<svg width="42" height="26" viewBox="0 0 42 26" fill="none" xmlns="http://www.w3.org/2000/svg">
<path d="M31.0287 7.61847L34.7762 0.471688L34.0071 0.0142993L30.2317 7.17538C27.3791 5.71744 24.163 4.8884 20.779 4.8884C17.5629 4.8884 14.5006 5.63167 11.7599 6.94667L8.11025 0L7.34117 0.471688L10.9908 7.37549C4.4886 10.9632 0.0559328 17.9241 0 26H41.6C41.572 18.1242 37.3212 11.249 31.0287 7.61847ZM10.0819 17.8098C8.99119 17.8098 8.11025 16.895 8.11025 15.7515C8.11025 14.6509 9.00517 13.7218 10.0819 13.7218C11.1726 13.7218 12.0535 14.6366 12.0535 15.7515C12.0535 16.895 11.1726 17.8098 10.0819 17.8098ZM31.1685 17.8098C30.0918 17.8098 29.1829 16.895 29.1829 15.7515C29.1829 14.6509 30.0779 13.7218 31.1685 13.7218C32.2453 13.7218 33.1681 14.6366 33.1681 15.7515C33.1681 16.895 32.2453 17.8098 31.1685 17.8098Z" fill="url(#paint0_linear_1609_1555)"/>
<defs>
<linearGradient id="paint0_linear_1609_1555" x1="20.8" y1="0" x2="20.8" y2="26" gradientUnits="userSpaceOnUse">
<stop stop-color="#22769B"/>
<stop offset="1" stop-color="#587FD7"/>
</linearGradient>
</defs>
</svg>
