<svg width="108" height="92" viewBox="0 0 108 92" fill="none" xmlns="http://www.w3.org/2000/svg">
<g clip-path="url(#clip0_1224_1821)">
<path d="M53.1736 33.9334C51.4048 32.4292 49.0526 31.6007 46.5507 31.6007C44.0488 31.6007 41.6971 32.4292 39.928 33.9334L34.9969 29.7402C38.083 27.1158 42.186 25.6705 46.5507 25.6705C50.9152 25.6705 55.0183 27.116 58.1045 29.7402L53.1736 33.9334Z" fill="#92E5EA"/>
<path d="M71.4777 18.3668C64.8191 12.7045 55.9667 9.58622 46.5502 9.58622C37.1336 9.58622 28.2812 12.7045 21.6226 18.3668L16.6919 14.1736C24.6676 7.39112 35.2714 3.65588 46.5504 3.65588C57.8293 3.65588 68.4331 7.39112 76.4088 14.1736L71.4777 18.3668Z" fill="#92E5EA"/>
<path d="M62.3249 26.1502C58.1112 22.567 52.5089 20.5934 46.5497 20.5934C40.5905 20.5934 34.9882 22.5668 30.7746 26.15L25.8438 21.9568C31.3744 17.2533 38.728 14.6632 46.5497 14.6632C54.3713 14.6632 61.7249 17.2535 67.2558 21.9568L62.3249 26.1502Z" fill="#92E5EA"/>
<path d="M53.1734 33.9332L58.1043 29.7399C55.0183 27.1154 50.9151 25.6703 46.5505 25.6703V31.6005C49.0524 31.6005 51.4046 32.4289 53.1734 33.9332Z" fill="#79BBBC"/>
<path d="M76.409 14.1732C68.4333 7.39075 57.8295 3.65552 46.5505 3.65552V9.58568C55.9666 9.58568 64.8195 12.7039 71.4781 18.3663L76.409 14.1732Z" fill="#79BBBC"/>
<path d="M62.3258 26.15L67.2567 21.9565C61.7258 17.2534 54.3722 14.663 46.5505 14.663V20.5931C52.5097 20.5933 58.112 22.5666 62.3258 26.15Z" fill="#79BBBC"/>
<path d="M81.064 56.869L70.8309 39.2947H22.2695L12.1461 56.6811H0.538818V81.4258H6.79938H12.074H95.2157H100.491H107.464V59.2412L81.064 56.869Z" fill="#F0C838"/>
<path d="M81.0637 56.869L70.8306 39.2947H46.5498V81.426H95.2154H100.49H107.464V59.2412L81.0637 56.869Z" fill="#E79C25"/>
<path d="M73.1726 56.681H50.0363V45.2245H66.5017L73.1726 56.681Z" fill="#92E5EA"/>
<path d="M26.5974 45.2245H43.063V56.681H19.9269L26.5974 45.2245Z" fill="#C8F9FA"/>
<path d="M22.1156 88.3441C15.7069 88.3441 10.4933 83.9102 10.4933 78.4604C10.4933 73.0107 15.7071 68.5768 22.1156 68.5768C28.524 68.5768 33.7378 73.0107 33.7378 78.4604C33.7378 83.9102 28.5242 88.3441 22.1156 88.3441Z" fill="#6F6F6F"/>
<path d="M85.174 88.3444C78.7654 88.3444 73.5518 83.9105 73.5518 78.4607C73.5518 73.0109 78.7656 68.577 85.174 68.577C91.5824 68.577 96.7963 73.0109 96.7963 78.4607C96.7963 83.9105 91.5824 88.3444 85.174 88.3444Z" fill="#444444"/>
</g>
<defs>
<clipPath id="clip0_1224_1821">
<rect width="106.925" height="90.93" fill="white" transform="translate(0.537354 0.535034)"/>
</clipPath>
</defs>
</svg>
