<svg width="78" height="79" viewBox="0 0 78 79" fill="none" xmlns="http://www.w3.org/2000/svg">
<g clip-path="url(#clip0_1224_1606)">
<path d="M60.1893 7.7135H31.9349H3.6803C1.72975 7.7135 0.148438 9.29482 0.148438 11.2454V67.7545C0.148438 69.705 1.72975 71.2863 3.6803 71.2863H31.9349H60.1894C62.14 71.2863 63.7213 69.705 63.7213 67.7545V53.6272V46.5636V32.4364V25.3728V11.2454C63.7211 9.29482 62.1398 7.7135 60.1893 7.7135Z" fill="#DEDEE0"/>
<path d="M70.7813 32.4365V46.5637H63.7217V53.6273H70.7842L70.7854 74.8185C70.7855 76.769 72.3669 78.35 74.3174 78.35C76.268 78.35 77.8493 76.7687 77.849 74.818L77.845 4.18158C77.845 2.23104 76.2637 0.650024 74.3129 0.650024C72.362 0.650024 70.7813 2.23134 70.7813 4.18204L70.7825 25.3727H63.7217V32.4363H70.7813V32.4365Z" fill="#77757F"/>
<path d="M36.6446 34.7911V25.3727H31.9354H27.2262V34.7911H17.8081V44.2093H27.2262V53.6273H31.9354H36.6446V44.2093H46.0625V34.7911H36.6446Z" fill="#D8143A"/>
<path d="M3.6803 71.2863H31.9349V53.6272H27.2258V44.2093H17.8076V34.791H27.2258V25.3726H31.9349V7.7135H3.6803C1.72975 7.7135 0.148438 9.29482 0.148438 11.2454V67.7545C0.148438 69.705 1.72975 71.2863 3.6803 71.2863Z" fill="#D6D5D8"/>
</g>
<defs>
<clipPath id="clip0_1224_1606">
<rect width="77.7" height="77.7" fill="white" transform="translate(0.149902 0.650024)"/>
</clipPath>
</defs>
</svg>
