<svg width="392" height="326" viewBox="0 0 392 326" fill="none" xmlns="http://www.w3.org/2000/svg">
<path d="M104.202 204.73L217.039 141.377C224.204 137.353 233.033 137.353 240.198 141.377L287.045 167.679C292.704 170.857 292.704 178.8 287.045 181.978L174.209 245.331C167.043 249.354 158.215 249.354 151.049 245.331L104.202 219.028C98.5425 215.851 98.5425 207.907 104.202 204.73Z" fill="#DBECFD"/>
<path d="M288.337 168.065C287.941 167.736 287.521 167.425 287.045 167.159L240.198 140.856C233.033 136.833 224.204 136.833 217.039 140.856L105.528 203.465L99.9578 204.543V208.659L99.9682 208.657C99.9115 211.493 101.317 214.351 104.202 215.971L151.049 242.274C158.215 246.297 167.043 246.297 174.209 242.274L287.045 178.921C289.875 177.332 291.29 174.552 291.29 171.772V167.493L288.337 168.065Z" fill="#A5CBF4"/>
<path opacity="0.3" d="M288.337 168.065C287.941 167.736 287.521 167.425 287.045 167.159L240.198 140.856C233.033 136.833 224.204 136.833 217.039 140.856L105.528 203.465L99.9578 204.543V208.659L99.9682 208.657C99.9115 211.493 101.317 214.351 104.202 215.971L151.049 242.274C158.215 246.297 167.043 246.297 174.209 242.274L287.045 178.921C289.875 177.332 291.29 174.552 291.29 171.772V167.493L288.337 168.065Z" fill="url(#paint0_linear_1229_3207)"/>
<path d="M104.202 197.394L217.039 134.042C224.204 130.019 233.033 130.019 240.198 134.042L287.045 160.344C292.704 163.522 292.704 171.466 287.045 174.643L174.209 237.996C167.043 242.019 158.215 242.019 151.049 237.996L104.202 211.694C98.5425 208.516 98.5425 200.572 104.202 197.394Z" fill="#E5ECF2"/>
<path d="M228.618 136.096C231.764 136.096 234.866 136.904 237.59 138.434L284.437 164.736C285.915 165.565 286.075 166.941 286.075 167.493C286.075 168.046 285.915 169.421 284.437 170.251L171.601 233.603C168.877 235.133 165.775 235.941 162.629 235.941C159.483 235.941 156.38 235.134 153.656 233.603L106.81 207.302C105.332 206.472 105.173 205.097 105.173 204.544C105.173 203.991 105.333 202.616 106.81 201.786L219.646 138.434C222.37 136.904 225.473 136.096 228.618 136.096Z" fill="#A5CBF4"/>
<path d="M106.81 207.301L106.838 207.317L219.645 143.981C222.37 142.451 225.473 141.643 228.618 141.643C231.764 141.643 234.866 142.451 237.59 143.981L284.408 170.267L284.437 170.251C285.915 169.421 286.075 168.046 286.075 167.493C286.075 166.941 285.915 165.565 284.437 164.736L237.59 138.434C234.866 136.904 231.764 136.096 228.618 136.096C225.473 136.096 222.37 136.904 219.645 138.434L106.81 201.786C105.332 202.616 105.173 203.991 105.173 204.544C105.173 205.096 105.332 206.471 106.81 207.301Z" fill="#59A3F5"/>
<path opacity="0.2" d="M228.618 136.096C231.764 136.096 234.866 136.904 237.59 138.434L284.437 164.736C285.915 165.565 286.075 166.941 286.075 167.493C286.075 168.046 285.915 169.421 284.437 170.251L171.601 233.603C168.877 235.133 165.775 235.941 162.629 235.941C159.483 235.941 156.38 235.134 153.656 233.603L106.81 207.302C105.332 206.472 105.173 205.097 105.173 204.544C105.173 203.991 105.333 202.616 106.81 201.786L219.646 138.434C222.37 136.904 225.473 136.096 228.618 136.096Z" fill="url(#paint1_linear_1229_3207)"/>
<path opacity="0.75" d="M141.99 203.391V205.927L201.966 239.6L302.312 183.26V180.724L242.337 147.051L141.99 203.391Z" fill="url(#paint2_linear_1229_3207)"/>
<path d="M224.488 158.252L216.795 153.932L220.362 151.929L228.055 156.248L224.488 158.252Z" fill="#26A385"/>
<path d="M242.286 168.244L234.593 163.925L238.16 161.922L245.853 166.241L242.286 168.244Z" fill="#26A385"/>
<path d="M259.112 170.786L247.391 171.258L247.729 168.615L259.449 168.143L259.112 170.786Z" fill="#26A385"/>
<path d="M285.505 173.266L273.784 173.739L274.122 171.096L285.844 170.623L285.505 173.266Z" fill="#26A385"/>
<path d="M232.019 162.628L226.605 159.589L232.857 156.078L238.272 159.118L232.019 162.628Z" fill="#26A385"/>
<path d="M261.888 179.251L254.195 174.931L257.762 172.928L265.455 177.248L261.888 179.251Z" fill="#26A385"/>
<path d="M269.42 183.626L264.006 180.586L270.257 177.076L275.672 180.116L269.42 183.626Z" fill="#26A385"/>
<path d="M243.002 174.454L235.309 170.135L238.877 168.132L246.569 172.451L243.002 174.454Z" fill="#26A385"/>
<path d="M253.107 180.128L245.413 175.808L248.981 173.806L256.674 178.125L253.107 180.128Z" fill="#26A385"/>
<path d="M231.945 173.679L220.223 174.152L220.562 171.509L232.283 171.036L231.945 173.679Z" fill="#26A385"/>
<path d="M232.899 181.268L227.484 178.228L233.737 174.718L239.151 177.757L232.899 181.268Z" fill="#26A385"/>
<path d="M216.021 171.644L208.328 167.324L211.895 165.321L219.588 169.641L216.021 171.644Z" fill="#26A385"/>
<path d="M205.918 166.12L200.503 163.079L206.755 159.569L212.171 162.609L205.918 166.12Z" fill="#26A385"/>
<path d="M192.168 176.399L184.475 172.079L188.043 170.076L195.736 174.396L192.168 176.399Z" fill="#26A385"/>
<path d="M209.965 174.052L202.272 169.733L205.84 167.73L213.533 172.049L209.965 174.052Z" fill="#26A385"/>
<path d="M226.792 176.594L215.071 177.066L215.409 174.424L227.13 173.951L226.792 176.594Z" fill="#26A385"/>
<path d="M253.185 191.412L241.464 191.885L241.802 189.242L253.523 188.77L253.185 191.412Z" fill="#26A385"/>
<path d="M199.7 180.774L194.285 177.734L200.537 174.224L205.952 177.264L199.7 180.774Z" fill="#26A385"/>
<path d="M229.568 185.058L221.875 180.739L225.442 178.736L233.136 183.056L229.568 185.058Z" fill="#26A385"/>
<path d="M237.1 189.434L231.684 186.395L237.937 182.884L243.352 185.924L237.1 189.434Z" fill="#26A385"/>
<path d="M210.682 192.6L202.989 188.281L206.556 186.278L214.249 190.597L210.682 192.6Z" fill="#26A385"/>
<path d="M220.787 198.274L213.094 193.954L216.661 191.952L224.354 196.271L220.787 198.274Z" fill="#26A385"/>
<path d="M199.625 179.487L187.904 179.96L188.242 177.317L199.962 176.844L199.625 179.487Z" fill="#26A385"/>
<path d="M200.579 187.076L195.164 184.036L201.417 180.526L206.831 183.565L200.579 187.076Z" fill="#26A385"/>
<path d="M183.701 177.452L176.008 173.132L179.575 171.13L187.269 175.45L183.701 177.452Z" fill="#26A385"/>
<path d="M173.598 184.266L168.183 181.226L174.435 177.715L179.85 180.755L173.598 184.266Z" fill="#26A385"/>
<path d="M159.848 182.206L152.155 177.887L155.723 175.884L163.415 180.204L159.848 182.206Z" fill="#26A385"/>
<path d="M177.645 192.198L169.952 187.879L173.519 185.876L181.213 190.195L177.645 192.198Z" fill="#26A385"/>
<path d="M194.472 194.74L182.751 195.212L183.089 192.57L194.81 192.097L194.472 194.74Z" fill="#26A385"/>
<path d="M220.865 209.559L209.144 210.031L209.481 207.389L221.202 206.916L220.865 209.559Z" fill="#26A385"/>
<path d="M167.379 186.582L161.965 183.542L168.217 180.031L173.632 183.072L167.379 186.582Z" fill="#26A385"/>
<path d="M197.248 203.204L189.555 198.884L193.122 196.882L200.815 201.202L197.248 203.204Z" fill="#26A385"/>
<path d="M204.78 207.581L199.365 204.541L205.617 201.031L211.032 204.07L204.78 207.581Z" fill="#26A385"/>
<path opacity="0.75" d="M141.99 203.391L242.337 147.051L302.312 180.724L201.966 237.064L141.99 203.391Z" fill="url(#paint3_linear_1229_3207)"/>
<path opacity="0.2" d="M201.966 223.934L142.696 190.657L141.99 191.053L201.966 224.726L302.312 168.386L301.606 167.99L201.966 223.934Z" fill="#F7F1E3"/>
<path opacity="0.1" d="M144.963 189.326L274.19 184.117L302.298 168.336L299.858 166.966L175.887 171.964L144.963 189.326Z" fill="#F7F1E3"/>
<path opacity="0.1" d="M188.325 177.318L289.086 173.257L251.983 152.425L231.167 153.265L188.325 177.318Z" fill="#F7F1E3"/>
<path opacity="0.1" d="M192.262 219.237L213.138 218.395L255.98 194.34L155.159 198.405L192.262 219.237Z" fill="#F7F1E3"/>
<path d="M288.337 139.864C287.941 139.535 287.521 139.224 287.045 138.957L240.198 112.655C233.033 108.632 224.204 108.632 217.039 112.655L105.528 175.264L99.9578 176.342V180.458L99.9682 180.456C99.9115 183.291 101.317 186.15 104.202 187.77L151.049 214.072C158.215 218.096 167.043 218.096 174.209 214.072L287.045 150.72C289.875 149.131 291.29 146.351 291.29 143.571V139.292L288.337 139.864Z" fill="#26A385"/>
<path opacity="0.3" d="M288.337 139.864C287.941 139.535 287.521 139.224 287.045 138.957L240.198 112.655C233.033 108.632 224.204 108.632 217.039 112.655L105.528 175.264L99.9578 176.342V180.458L99.9682 180.456C99.9115 183.291 101.317 186.15 104.202 187.77L151.049 214.072C158.215 218.096 167.043 218.096 174.209 214.072L287.045 150.72C289.875 149.131 291.29 146.351 291.29 143.571V139.292L288.337 139.864Z" fill="url(#paint4_linear_1229_3207)"/>
<path d="M104.202 169.192L217.039 105.84C224.204 101.817 233.033 101.817 240.198 105.84L287.045 132.142C292.704 135.32 292.704 143.264 287.045 146.441L174.209 209.794C167.043 213.817 158.215 213.817 151.049 209.794L104.202 183.492C98.5425 180.314 98.5425 172.37 104.202 169.192Z" fill="#33D9B2"/>
<path opacity="0.3" d="M104.202 169.192L217.039 105.84C224.204 101.817 233.033 101.817 240.198 105.84L287.045 132.142C292.704 135.32 292.704 143.264 287.045 146.441L174.209 209.794C167.043 213.817 158.215 213.817 151.049 209.794L104.202 183.492C98.5425 180.314 98.5425 172.37 104.202 169.192Z" fill="url(#paint5_linear_1229_3207)"/>
<path d="M150.14 174.543L132.173 184.63L114.207 174.543L138.046 161.159" stroke="#FFD562" stroke-width="3.40195" stroke-miterlimit="10" stroke-linecap="round" stroke-linejoin="round"/>
<path d="M185.559 157.816L215.35 174.543L233.41 164.403L206.221 149.137" stroke="#FFD562" stroke-width="3.40195" stroke-miterlimit="10" stroke-linecap="round" stroke-linejoin="round"/>
<path d="M198.818 154.691L217.299 165.067" stroke="#FFD562" stroke-width="3.40195" stroke-miterlimit="10" stroke-linecap="round"/>
<path d="M254.117 149.137L275.382 137.198L251.877 124.001" stroke="#FFD562" stroke-width="3.40195" stroke-miterlimit="10" stroke-linecap="round" stroke-linejoin="round"/>
<path d="M150.535 169.82L140.591 175.404L164.402 188.773L174.347 183.19L150.535 169.82Z" fill="#2D527B"/>
<path d="M140.591 175.404V178.696L164.402 192.065V188.773L140.591 175.404Z" fill="#17293E"/>
<path d="M164.402 192.065L174.347 186.48V183.19L164.402 188.773V192.065Z" fill="#223E5C"/>
<path d="M226.477 138.015L216.531 143.599L240.344 156.968L250.288 151.385L226.477 138.015Z" fill="#2D527B"/>
<path d="M216.531 143.599V146.891L240.344 160.26V156.968L216.531 143.599Z" fill="#17293E"/>
<path d="M240.344 160.26L250.288 154.675V151.385L240.344 156.968V160.26Z" fill="#223E5C"/>
<path d="M181.576 165.067L160.565 176.665L184.376 190.034L205.388 178.436L181.576 165.067Z" fill="#2D527B"/>
<path d="M160.565 176.665V179.956L184.376 193.326V190.034L160.565 176.665Z" fill="#17293E"/>
<path d="M184.376 193.325L205.388 181.727V178.436L184.376 190.034V193.325Z" fill="#223E5C"/>
<path d="M288.337 111.683C287.941 111.354 287.521 111.044 287.045 110.777L240.198 84.4741C233.033 80.451 224.204 80.451 217.039 84.4741L105.528 147.083L99.9578 148.161V152.278L99.9682 152.276C99.9115 155.111 101.317 157.97 104.202 159.589L151.049 185.892C158.215 189.915 167.043 189.915 174.209 185.892L287.045 122.54C289.875 120.951 291.29 118.17 291.29 115.39V111.111L288.337 111.683Z" fill="#A5CBF4"/>
<path opacity="0.3" d="M288.337 111.683C287.941 111.354 287.521 111.044 287.045 110.777L240.198 84.4741C233.033 80.451 224.204 80.451 217.039 84.4741L105.528 147.083L99.9578 148.161V152.278L99.9682 152.276C99.9115 155.111 101.317 157.97 104.202 159.589L151.049 185.892C158.215 189.915 167.043 189.915 174.209 185.892L287.045 122.54C289.875 120.951 291.29 118.17 291.29 115.39V111.111L288.337 111.683Z" fill="url(#paint6_linear_1229_3207)"/>
<path d="M104.202 141.011L217.039 77.6587C224.204 73.6357 233.033 73.6357 240.198 77.6587L287.045 103.961C292.704 107.139 292.704 115.083 287.045 118.26L174.209 181.612C167.043 185.636 158.215 185.636 151.049 181.612L104.202 155.31C98.5425 152.133 98.5425 144.189 104.202 141.011Z" fill="#E5ECF2"/>
<path d="M143.853 162.022L139.331 164.561C137.694 165.48 135.676 165.48 134.038 164.561L127.959 161.147C126.67 160.423 126.67 158.615 127.959 157.891L132.481 155.352C134.119 154.433 136.136 154.433 137.774 155.352L143.853 158.765C145.142 159.489 145.142 161.298 143.853 162.022Z" fill="#CEDFED"/>
<path opacity="0.75" d="M119.5 119.852L219.846 63.5118L279.821 97.1847L179.475 153.526L119.5 119.852Z" fill="url(#paint7_linear_1229_3207)"/>
<path d="M119.5 137.31L219.846 80.9686L279.821 114.642L179.475 170.983L119.5 137.31Z" fill="#A4D0FA"/>
<path opacity="0.75" d="M119.5 137.31L219.846 80.9686L279.821 114.642L179.475 170.983L119.5 137.31Z" fill="url(#paint8_linear_1229_3207)"/>
<path opacity="0.1" d="M122.474 135.64L251.7 130.431L279.807 114.65L277.368 113.28L153.397 118.278L122.474 135.64Z" fill="#F7F1E3"/>
<path opacity="0.1" d="M165.835 111.294L266.596 107.232L229.493 86.4009L208.677 87.2403L165.835 111.294Z" fill="#F7F1E3"/>
<path opacity="0.1" d="M169.771 165.551L190.648 164.709L233.49 140.655L132.668 144.719L169.771 165.551Z" fill="#F7F1E3"/>
<path opacity="0.75" d="M119.5 117.34V119.876L179.475 153.55L279.821 97.2087V94.6729L219.846 61L119.5 117.34Z" fill="url(#paint9_linear_1229_3207)"/>
<path d="M144.458 123.269L131.473 115.979L158.057 101.053L171.043 108.344L144.458 123.269Z" fill="#FFD562"/>
<path d="M162.1 133.175L149.116 125.884L166.411 116.174L179.395 123.465L162.1 133.175Z" fill="#FF528E"/>
<path d="M179.744 143.08L166.759 135.79L201.329 116.38L214.313 123.671L179.744 143.08Z" fill="#33D9B2"/>
<path d="M179.676 145.765L127.212 116.31C126.589 115.96 126.667 115.349 127.387 114.945L127.903 114.656C128.279 114.445 128.741 114.445 129.116 114.656L181.579 144.111C182.203 144.461 182.124 145.073 181.405 145.476L180.888 145.765C180.513 145.976 180.051 145.976 179.676 145.765Z" fill="#2D527B"/>
<path d="M180.677 91.2796L202.803 92.2413L195.731 110.498L215.06 107.466L233.555 110.917" stroke="#F7F1E3" stroke-width="2.15202" stroke-miterlimit="10" stroke-linecap="round" stroke-linejoin="round"/>
<path d="M182.226 92.2151C180.66 93.0944 178.292 93.1894 176.936 92.4281C175.58 91.6667 175.75 90.3367 177.315 89.4574C178.881 88.5781 181.249 88.483 182.605 89.2444C183.961 90.0064 183.792 91.3364 182.226 92.2151Z" fill="#FFD562"/>
<path d="M205.195 93.5838C203.629 94.4631 201.26 94.5588 199.905 93.7974C198.549 93.036 198.719 91.706 200.284 90.8267C201.85 89.9474 204.219 89.8523 205.575 90.6137C206.931 91.3751 206.76 92.7051 205.195 93.5838Z" fill="#437AB8"/>
<path d="M197.963 111.752C196.398 112.63 194.029 112.726 192.673 111.965C191.317 111.203 191.487 109.874 193.053 108.995C194.618 108.116 196.987 108.02 198.343 108.782C199.699 109.543 199.529 110.873 197.963 111.752Z" fill="#FF528E"/>
<path d="M217.04 109.112C215.475 109.991 213.106 110.087 211.75 109.325C210.394 108.563 210.564 107.233 212.13 106.354C213.695 105.475 216.064 105.38 217.42 106.14C218.776 106.902 218.606 108.232 217.04 109.112Z" fill="#FFD562"/>
<path d="M236.635 112.647C235.07 113.526 232.701 113.621 231.345 112.86C229.989 112.099 230.159 110.769 231.725 109.889C233.29 109.01 235.659 108.915 237.015 109.676C238.371 110.438 238.202 111.768 236.635 112.647Z" fill="#437AB8"/>
<path d="M228.348 85.1193C222.894 88.1819 214.644 88.5141 209.92 85.8623C205.197 83.2105 205.789 78.5782 211.243 75.5162C216.696 72.4542 224.947 72.1214 229.67 74.7732C234.394 77.4257 233.802 82.0573 228.348 85.1193Z" stroke="#F7F1E3" stroke-width="0.769181" stroke-miterlimit="10"/>
<path d="M229.671 74.774C234.394 77.4258 233.801 82.058 228.348 85.12C222.894 88.1826 214.644 88.5148 209.92 85.863C205.197 83.2112 205.79 78.5789 211.243 75.5169" stroke="#FFD562" stroke-width="2.30749" stroke-miterlimit="10" stroke-linecap="round"/>
<path d="M223.752 82.5396C221.229 83.9565 217.412 84.1105 215.226 82.8832C213.04 81.6559 213.315 79.5131 215.838 78.0962C218.362 76.6794 222.179 76.5253 224.365 77.752C226.55 78.9793 226.276 81.1227 223.752 82.5396Z" fill="#437AB8"/>
<path d="M254.73 95.8L240.636 87.8877C239.473 87.2347 239.619 86.0936 240.962 85.3399C242.305 84.5861 244.337 84.5037 245.5 85.1567L259.594 93.069C260.757 93.7219 260.611 94.8631 259.268 95.6168C257.924 96.3706 255.893 96.453 254.73 95.8Z" fill="#F7F1E3"/>
<path d="M245.665 100.888L231.573 92.9761C230.41 92.3231 230.555 91.182 231.898 90.4282C233.241 89.6745 235.274 89.5921 236.437 90.245L250.53 98.1574C251.693 98.8103 251.547 99.9514 250.204 100.705C248.86 101.46 246.828 101.542 245.665 100.888Z" fill="#F7F1E3"/>
<path opacity="0.75" d="M119.5 117.34L219.846 61L279.821 94.6729L179.475 151.014L119.5 117.34Z" fill="url(#paint10_linear_1229_3207)"/>
<path opacity="0.5" d="M179.475 150.169L120.253 116.919L119.5 117.341L179.475 151.014L279.821 94.6733L279.069 94.2505L179.475 150.169Z" fill="#CEDFED"/>
<path opacity="0.2" d="M179.475 153.55V151.014L279.821 94.6733V97.2091L179.475 153.55Z" fill="url(#paint11_linear_1229_3207)"/>
<path opacity="0.2" d="M201.977 227.262V224.726L302.323 168.386V170.922L201.977 227.262Z" fill="url(#paint12_linear_1229_3207)"/>
<path opacity="0.75" d="M280.388 266.113L234.82 240.529L243.352 235.738L288.92 261.323L280.388 266.113Z" fill="url(#paint13_linear_1229_3207)"/>
<path opacity="0.75" d="M319.352 242.45L273.784 216.865L282.316 212.075L327.884 237.66L319.352 242.45Z" fill="url(#paint14_linear_1229_3207)"/>
<path opacity="0.75" d="M307.372 166.201L352.94 140.617L344.408 135.826L298.839 161.411L307.372 166.201Z" fill="url(#paint15_linear_1229_3207)"/>
<path opacity="0.75" d="M85.5683 190.11L40 164.526L48.532 159.735L90.9504 183.551C92.35 184.337 92.35 186.302 90.9504 187.088L85.5683 190.11Z" fill="url(#paint16_linear_1229_3207)"/>
<path d="M271.333 47C271.333 48.4728 272.527 49.6667 274 49.6667C275.473 49.6667 276.667 48.4728 276.667 47C276.667 45.5272 275.473 44.3333 274 44.3333C272.527 44.3333 271.333 45.5272 271.333 47ZM298 1V0.5H297.697L297.557 0.768717L298 1ZM274.443 47.2313L298.443 1.23128L297.557 0.768717L273.557 46.7687L274.443 47.2313ZM298 1.5H386V0.5H298V1.5Z" fill="white"/>
<path d="M277.333 279C277.333 277.527 278.527 276.333 280 276.333C281.473 276.333 282.667 277.527 282.667 279C282.667 280.473 281.473 281.667 280 281.667C278.527 281.667 277.333 280.473 277.333 279ZM304 325V325.5H303.697L303.557 325.231L304 325ZM280.443 278.769L304.443 324.769L303.557 325.231L279.557 279.231L280.443 278.769ZM304 324.5H392V325.5H304V324.5Z" fill="white"/>
<path d="M120.667 47C120.667 48.4728 119.473 49.6667 118 49.6667C116.527 49.6667 115.333 48.4728 115.333 47C115.333 45.5272 116.527 44.3333 118 44.3333C119.473 44.3333 120.667 45.5272 120.667 47ZM94 1V0.5H94.3031L94.4433 0.768717L94 1ZM117.557 47.2313L93.5567 1.23128L94.4433 0.768717L118.443 46.7687L117.557 47.2313ZM94 1.5H6V0.5H94V1.5Z" fill="white"/>
<path d="M114.667 279C114.667 277.527 113.473 276.333 112 276.333C110.527 276.333 109.333 277.527 109.333 279C109.333 280.473 110.527 281.667 112 281.667C113.473 281.667 114.667 280.473 114.667 279ZM88 325V325.5H88.3031L88.4433 325.231L88 325ZM111.557 278.769L87.5567 324.769L88.4433 325.231L112.443 279.231L111.557 278.769ZM88 324.5H0V325.5H88V324.5Z" fill="white"/>
<defs>
<linearGradient id="paint0_linear_1229_3207" x1="99.9575" y1="191.565" x2="291.29" y2="191.565" gradientUnits="userSpaceOnUse">
<stop stop-color="#437AB8"/>
<stop offset="1" stop-color="#437AB8" stop-opacity="0"/>
</linearGradient>
<linearGradient id="paint1_linear_1229_3207" x1="125.108" y1="224.017" x2="291.489" y2="129.211" gradientUnits="userSpaceOnUse">
<stop stop-color="#2D527B"/>
<stop offset="1" stop-color="#2D527B" stop-opacity="0"/>
</linearGradient>
<linearGradient id="paint2_linear_1229_3207" x1="216.675" y1="210.382" x2="245.171" y2="116.528" gradientUnits="userSpaceOnUse">
<stop stop-color="#62A9F5"/>
<stop offset="1" stop-color="#62A9F5" stop-opacity="0.5"/>
</linearGradient>
<linearGradient id="paint3_linear_1229_3207" x1="141.99" y1="192.058" x2="302.312" y2="192.058" gradientUnits="userSpaceOnUse">
<stop stop-color="#59A3F5"/>
<stop offset="1" stop-color="#59A3F5" stop-opacity="0"/>
</linearGradient>
<linearGradient id="paint4_linear_1229_3207" x1="99.9575" y1="163.364" x2="291.29" y2="163.364" gradientUnits="userSpaceOnUse">
<stop stop-color="#2D527B"/>
<stop offset="1" stop-color="#2D527B" stop-opacity="0"/>
</linearGradient>
<linearGradient id="paint5_linear_1229_3207" x1="99.9575" y1="157.817" x2="291.29" y2="157.817" gradientUnits="userSpaceOnUse">
<stop stop-color="#2D527B"/>
<stop offset="1" stop-color="#2D527B" stop-opacity="0"/>
</linearGradient>
<linearGradient id="paint6_linear_1229_3207" x1="126.342" y1="177.627" x2="280.19" y2="75.2344" gradientUnits="userSpaceOnUse">
<stop stop-color="#437AB8"/>
<stop offset="1" stop-color="#437AB8" stop-opacity="0"/>
</linearGradient>
<linearGradient id="paint7_linear_1229_3207" x1="119.5" y1="108.519" x2="279.821" y2="108.519" gradientUnits="userSpaceOnUse">
<stop stop-color="#59A3F5"/>
<stop offset="1" stop-color="#59A3F5" stop-opacity="0"/>
</linearGradient>
<linearGradient id="paint8_linear_1229_3207" x1="105.412" y1="148.132" x2="254.675" y2="111.028" gradientUnits="userSpaceOnUse">
<stop stop-color="#437AB8"/>
<stop offset="0.0515" stop-color="#437AB8" stop-opacity="0.9485"/>
<stop offset="1" stop-color="#437AB8" stop-opacity="0"/>
</linearGradient>
<linearGradient id="paint9_linear_1229_3207" x1="194.184" y1="124.331" x2="222.681" y2="30.4766" gradientUnits="userSpaceOnUse">
<stop stop-color="#62A9F5"/>
<stop offset="1" stop-color="#62A9F5" stop-opacity="0.5"/>
</linearGradient>
<linearGradient id="paint10_linear_1229_3207" x1="119.5" y1="106.007" x2="279.821" y2="106.007" gradientUnits="userSpaceOnUse">
<stop stop-color="#59A3F5"/>
<stop offset="1" stop-color="#59A3F5" stop-opacity="0"/>
</linearGradient>
<linearGradient id="paint11_linear_1229_3207" x1="193.056" y1="148.372" x2="291.371" y2="79.4448" gradientUnits="userSpaceOnUse">
<stop stop-color="#E5ECF2"/>
<stop offset="1" stop-color="#E5ECF2" stop-opacity="0"/>
</linearGradient>
<linearGradient id="paint12_linear_1229_3207" x1="215.558" y1="222.085" x2="313.873" y2="153.157" gradientUnits="userSpaceOnUse">
<stop stop-color="#E5ECF2"/>
<stop offset="1" stop-color="#E5ECF2" stop-opacity="0"/>
</linearGradient>
<linearGradient id="paint13_linear_1229_3207" x1="230.716" y1="234.381" x2="276.076" y2="259.853" gradientUnits="userSpaceOnUse">
<stop stop-color="#CEDFED"/>
<stop offset="0.3815" stop-color="#BDD9F2" stop-opacity="0.6185"/>
<stop offset="1" stop-color="#A4D0FA" stop-opacity="0"/>
</linearGradient>
<linearGradient id="paint14_linear_1229_3207" x1="269.679" y1="210.718" x2="315.04" y2="236.19" gradientUnits="userSpaceOnUse">
<stop stop-color="#CEDFED"/>
<stop offset="0.3815" stop-color="#BDD9F2" stop-opacity="0.6185"/>
<stop offset="1" stop-color="#A4D0FA" stop-opacity="0"/>
</linearGradient>
<linearGradient id="paint15_linear_1229_3207" x1="303.948" y1="164.107" x2="341.601" y2="140.348" gradientUnits="userSpaceOnUse">
<stop stop-color="#CEDFED"/>
<stop offset="0.3815" stop-color="#BDD9F2" stop-opacity="0.6185"/>
<stop offset="1" stop-color="#A4D0FA" stop-opacity="0"/>
</linearGradient>
<linearGradient id="paint16_linear_1229_3207" x1="87.7719" y1="187.343" x2="51.0892" y2="164.196" gradientUnits="userSpaceOnUse">
<stop stop-color="#CEDFED"/>
<stop offset="0.3815" stop-color="#BDD9F2" stop-opacity="0.6185"/>
<stop offset="1" stop-color="#A4D0FA" stop-opacity="0"/>
</linearGradient>
</defs>
</svg>
