<svg width="78" height="78" viewBox="0 0 78 78" fill="none" xmlns="http://www.w3.org/2000/svg">
<g clip-path="url(#clip0_1224_345)">
<path d="M62.4074 28.5106H58.8426V15.4455C58.8426 9.17017 53.7371 4.06486 47.4618 4.06486C41.1864 4.06486 36.0811 9.17017 36.0811 15.4455V28.5107H32.5162V15.4455C32.5164 7.20472 39.2208 0.5 47.4618 0.5C55.7027 0.5 62.4074 7.20456 62.4074 15.4455V28.5106Z" fill="#EE3840"/>
<path d="M45.4835 28.5106H41.9186V15.4455C41.9186 9.17017 36.8133 4.06486 30.538 4.06486C24.2626 4.06486 19.1571 9.17017 19.1571 15.4455V28.5107H15.5923V15.4455C15.5926 7.20456 22.297 0.5 30.538 0.5C38.7788 0.5 45.4835 7.20456 45.4835 15.4455V28.5106Z" fill="#FF8C00"/>
<path d="M72.8479 22.9673H64.3859L57.2563 50.2336L64.3859 77.5H72.8479V22.9673Z" fill="#FF9E24"/>
<path d="M55.9239 22.9673L48.7943 50.2336L55.9239 77.5H64.3859V22.9673H55.9239Z" fill="#FF8C00"/>
<path d="M55.9239 22.9673H5.15198V77.5H55.9239V22.9673Z" fill="#FFB14D"/>
</g>
<defs>
<clipPath id="clip0_1224_345">
<rect width="77" height="77" fill="white" transform="translate(0.5 0.5)"/>
</clipPath>
</defs>
</svg>
