<svg width="89" height="78" viewBox="0 0 89 78" fill="none" xmlns="http://www.w3.org/2000/svg">
<g clip-path="url(#clip0_1077_1605)">
<path d="M73.5366 77.8001H14.9634V38.4339L44.25 9.72839L73.5366 38.4339V77.8001Z" fill="#ECECED"/>
<path d="M73.5366 77.8H44.25V7.61084L73.5366 38.4338V77.8Z" fill="#D7D7D7"/>
<path d="M44.2501 3.29053L8.98145 39.3651L13.3515 42.6794L44.2501 11.0749L75.1487 42.6794L79.5187 39.3651L44.2501 3.29053Z" fill="#D7D7D7"/>
<path d="M44.25 3.29053V11.0749L75.1486 42.6794L79.5186 39.3651L44.25 3.29053Z" fill="#B0B0B0"/>
<path d="M49.7313 64.1977C48.2672 62.9107 46.3204 62.2018 44.2496 62.2018C42.1788 62.2018 40.2324 62.9107 38.7681 64.1977L34.6868 60.6099C37.241 58.3645 40.637 57.1279 44.2496 57.1279C47.8619 57.1279 51.258 58.3647 53.8124 60.6099L49.7313 64.1977Z" fill="#92E5EA"/>
<path d="M64.8817 50.879C59.3705 46.0342 52.0432 43.3661 44.2497 43.3661C36.4561 43.3661 29.1288 46.0342 23.6176 50.879L19.5364 47.2912C26.1378 41.4881 34.9145 38.2922 44.2497 38.2922C53.5849 38.2922 62.3616 41.4881 68.9629 47.2912L64.8817 50.879Z" fill="#92E5EA"/>
<path d="M57.3066 57.5383C53.8189 54.4725 49.1818 52.784 44.2497 52.784C39.3176 52.784 34.6805 54.4725 31.193 57.5383L27.1118 53.9505C31.6894 49.9262 37.7759 47.7101 44.2497 47.7101C50.7235 47.7101 56.81 49.9263 61.3878 53.9505L57.3066 57.5383Z" fill="#92E5EA"/>
<path d="M49.7316 64.1977L53.8128 60.6099C51.2586 58.3644 47.8624 57.1279 44.25 57.1279V62.2018C46.3208 62.2018 48.2672 62.9107 49.7316 64.1977Z" fill="#79BBBC"/>
<path d="M68.9633 47.2912C62.3619 41.4881 53.5852 38.2922 44.25 38.2922V43.3661C52.0435 43.3661 59.3709 46.0341 64.8821 50.8788L68.9633 47.2912Z" fill="#79BBBC"/>
<path d="M57.3069 57.5383L61.3881 53.9503C56.8103 49.9262 50.7238 47.7101 44.25 47.7101V52.784C49.1821 52.784 53.8192 54.4725 57.3069 57.5383Z" fill="#79BBBC"/>
</g>
<defs>
<clipPath id="clip0_1077_1605">
<rect width="88.5" height="77.8" fill="white"/>
</clipPath>
</defs>
</svg>
