<svg width="392" height="365" viewBox="0 0 392 365" fill="none" xmlns="http://www.w3.org/2000/svg">
<path d="M72.7996 242.742L233.635 149.884C239.147 146.701 245.938 146.701 251.451 149.882L321.179 190.128C326.729 193.331 326.73 201.342 321.18 204.545L166.417 293.899C157.135 299.257 145.7 299.258 136.418 293.901L72.8009 257.182C67.242 253.974 67.2414 245.951 72.7996 242.742Z" fill="#DEE7F9"/>
<path d="M320.323 159.495C328.669 164.312 328.07 176.037 321.241 178.883L164.571 269.358C156.432 274.058 146.404 274.058 138.264 269.359L75.1566 233.167C68.8409 230.909 64.0846 217.679 72.006 213.121" fill="#A4D2EF"/>
<path d="M316.732 157.423L251.451 119.743C245.938 116.561 239.147 116.562 233.635 119.744L72.7997 212.602C68.2048 215.255 67.4204 221.191 70.4227 224.984L316.732 157.423Z" fill="#D7F4FF"/>
<path d="M321.178 159.989L316.732 157.423L70.4229 224.984C71.0526 225.779 71.8376 226.486 72.801 227.043L136.418 263.761C145.7 269.119 157.135 269.117 166.417 263.759L321.179 174.407C326.729 171.203 326.729 163.193 321.178 159.989Z" fill="#D0E8F7"/>
<path d="M85.1451 210.242L167.986 258.07L312.957 174.371L230.116 126.543L85.1451 210.242Z" fill="#A0CEFF"/>
<path d="M269.323 143.605L284.517 152.377C285.352 152.859 286.38 152.861 287.217 152.382C288.095 151.879 288.097 150.615 287.222 150.11L272.12 141.391C271.256 140.892 270.193 140.89 269.327 141.386C268.47 141.876 268.467 143.111 269.323 143.605Z" fill="#AACFE2"/>
<path d="M269.327 142.012C270.193 141.516 271.256 141.518 272.12 142.017L287.222 150.736C287.553 150.927 287.758 151.228 287.838 151.555C287.966 151.022 287.762 150.421 287.222 150.108L272.12 141.389C271.256 140.891 270.193 140.889 269.327 141.384C268.792 141.691 268.591 142.286 268.722 142.811C268.801 142.492 269.001 142.198 269.327 142.012Z" fill="#89BCD6"/>
<path d="M121.355 242.843C119.049 244.737 115.202 244.957 112.765 243.337C110.327 241.717 110.221 238.869 112.527 236.975C114.834 235.082 118.679 234.86 121.117 236.481C123.556 238.101 123.662 240.949 121.355 242.843Z" fill="#A1C9E0"/>
<path d="M120.819 242.681C118.793 244.344 115.415 244.539 113.273 243.115C111.132 241.692 111.038 239.19 113.065 237.527C115.09 235.864 118.469 235.669 120.61 237.092C122.752 238.516 122.845 241.017 120.819 242.681Z" fill="#C5E0F4"/>
<path d="M80.8186 233.423C80.9325 234.214 80.5463 234.925 79.9566 235.009C79.3669 235.094 78.7973 234.521 78.6833 233.73C78.57 232.94 78.9556 232.23 79.5453 232.145C80.135 232.06 80.7047 232.632 80.8186 233.423Z" fill="#3F4C51"/>
<path d="M82.6152 235.214C82.6759 235.636 82.4699 236.015 82.155 236.06C81.8402 236.105 81.5359 235.8 81.4752 235.378C81.4145 234.956 81.6204 234.577 81.9353 234.532C82.2502 234.486 82.5544 234.791 82.6152 235.214Z" fill="#3F4C51"/>
<path d="M133.12 263.968C133.192 264.468 132.948 264.918 132.575 264.971C132.202 265.025 131.841 264.662 131.769 264.162C131.697 263.662 131.941 263.212 132.315 263.159C132.688 263.105 133.048 263.468 133.12 263.968Z" fill="#3F4C51"/>
<path d="M134.713 264.879C134.785 265.379 134.541 265.828 134.168 265.882C133.795 265.935 133.434 265.573 133.362 265.073C133.29 264.573 133.534 264.123 133.908 264.07C134.281 264.016 134.641 264.379 134.713 264.879Z" fill="#3F4C51"/>
<path d="M136.307 265.79C136.379 266.29 136.135 266.74 135.762 266.793C135.389 266.847 135.028 266.485 134.956 265.984C134.884 265.484 135.128 265.035 135.501 264.981C135.874 264.928 136.235 265.29 136.307 265.79Z" fill="#3F4C51"/>
<path d="M137.9 266.734C137.972 267.234 137.728 267.684 137.355 267.737C136.982 267.791 136.621 267.428 136.549 266.928C136.477 266.428 136.722 265.979 137.095 265.925C137.468 265.872 137.828 266.234 137.9 266.734Z" fill="#3F4C51"/>
<path d="M139.494 267.646C139.565 268.146 139.321 268.595 138.948 268.649C138.575 268.702 138.215 268.34 138.143 267.84C138.071 267.34 138.315 266.89 138.688 266.837C139.062 266.783 139.422 267.146 139.494 267.646Z" fill="#3F4C51"/>
<path d="M99.6278 245.02C99.6522 245.19 99.569 245.344 99.4419 245.362C99.3148 245.38 99.1921 245.257 99.1671 245.086C99.1427 244.916 99.2259 244.763 99.353 244.745C99.4801 244.727 99.6028 244.85 99.6278 245.02Z" fill="#3F4C51"/>
<path d="M109.04 250.272C109.065 250.443 108.982 250.596 108.854 250.614C108.727 250.632 108.605 250.509 108.58 250.339C108.556 250.168 108.639 250.015 108.766 249.997C108.893 249.978 109.016 250.102 109.04 250.272Z" fill="#3F4C51"/>
<path d="M109.253 251.533L100.428 246.41C100.168 246.26 100.011 245.979 100.02 245.678C100.034 245.174 100.583 244.868 101.019 245.122L109.421 249.998C109.811 250.225 110.047 250.647 110.033 251.099C110.023 251.492 109.595 251.731 109.253 251.533Z" fill="#3F4C51"/>
<path d="M256.3 215.198C256.228 215.692 255.86 216.047 255.48 215.992C255.1 215.936 254.851 215.49 254.924 214.996C254.996 214.501 255.363 214.146 255.744 214.202C256.125 214.258 256.373 214.704 256.3 215.198Z" fill="#3F4C51"/>
<path d="M295.856 192.786L287.346 197.627C286.797 197.94 286.116 197.54 286.122 196.908C286.127 196.256 286.48 195.655 287.047 195.332L296.022 190.227C296.468 189.974 297.02 190.299 297.016 190.811C297.009 191.63 296.567 192.382 295.856 192.786Z" fill="#85B8CC"/>
<path d="M295.942 192.87L287.432 197.711C286.883 198.023 286.202 197.623 286.208 196.991C286.213 196.339 286.566 195.739 287.133 195.416L296.108 190.311C296.553 190.057 297.106 190.382 297.102 190.895C297.094 191.712 296.652 192.465 295.942 192.87Z" fill="#9CCBE2"/>
<path d="M295.942 192.87L287.432 197.711C286.883 198.023 286.202 197.623 286.208 196.991C286.213 196.339 286.566 195.739 287.133 195.416L296.108 190.311C296.553 190.057 297.106 190.382 297.102 190.895C297.094 191.712 296.652 192.465 295.942 192.87Z" fill="#9CCBE2"/>
<path d="M180.342 219.422L266.751 169.492L184.982 122.319L98.5735 172.247L180.342 219.422Z" fill="#54CFCF"/>
<path d="M180.342 219.422V220.835L266.751 170.9V169.492L180.342 219.422Z" fill="#41B7B1"/>
<path d="M180.342 235.927V220.834L266.751 170.9V185.998L180.342 235.927Z" fill="url(#paint0_linear_1229_3208)"/>
<path d="M180.342 235.927V220.835L98.5735 173.657V188.756L180.342 235.927Z" fill="url(#paint1_linear_1229_3208)"/>
<path d="M180.342 220.835L98.5735 173.657V172.248L180.342 219.422V220.835Z" fill="#33A09D"/>
<path d="M180.344 211.622L259.1 166.115L184.574 123.119L105.818 168.626L180.344 211.622Z" fill="#E5E1FF"/>
<path d="M180.344 211.622V212.909L259.1 167.397V166.115L180.344 211.622Z" fill="#C3BFEF"/>
<path d="M180.344 212.909L105.818 169.911V168.626L180.344 211.622V212.909Z" fill="#ADA9EA"/>
<path d="M226.219 191.712L233.553 187.451L221.979 180.696L214.644 184.957L226.219 191.712Z" fill="#E5E1FF"/>
<path d="M205.727 179.07V180.979L213.615 185.533V183.624L205.727 179.07Z" fill="#6B5193"/>
<path d="M218.894 176.535L210.116 181.604L205.726 179.07L214.505 174.001L218.894 176.535Z" fill="#8973D8"/>
<path d="M218.895 176.535V177.168L210.116 182.237V181.604L218.895 176.535Z" fill="#755ABA"/>
<path d="M210.116 182.237L205.727 179.703V179.07L210.116 181.604V182.237Z" fill="#6B5193"/>
<path d="M220.644 178.184L211.866 183.252L210.116 182.237L218.895 177.168L220.644 178.184Z" fill="#8973D8"/>
<path d="M220.644 178.184V178.817L211.866 183.885V183.252L220.644 178.184Z" fill="#755ABA"/>
<path d="M222.393 179.831L213.615 184.899L211.866 183.885L220.644 178.816L222.393 179.831Z" fill="#8973D8"/>
<path d="M222.393 179.831V180.464L213.615 185.533V184.899L222.393 179.831Z" fill="#755ABA"/>
<path d="M211.866 183.885L210.116 182.871V182.237L211.866 183.252V183.885Z" fill="#6B5193"/>
<path d="M218.648 154.283V165L218.128 165.29V154.574L218.648 154.283Z" fill="#755ABA"/>
<path d="M218.648 154.283L215.543 152.49L214.968 152.811L218.128 154.574L218.648 154.283Z" fill="#8973D8"/>
<path d="M124.449 165L177.239 195.478V156.036L124.449 125.558V165Z" fill="#6386D6"/>
<path d="M177.239 156.036L198.974 124.529L217.607 130.513V172.172L177.239 195.478V156.036Z" fill="#7199EA"/>
<path d="M197.808 135.818L196.447 136.61V154.159L197.821 154.941L197.808 135.818Z" fill="#4469AA"/>
<path d="M196.447 154.159L184.604 160.996V162.572L197.821 154.941L196.447 154.159Z" fill="#91B9F9"/>
<path d="M196.447 136.61L184.604 143.434V160.996L196.447 154.159V136.61Z" fill="#565656"/>
<path d="M196.068 137.294L184.604 143.901V160.548L196.068 153.941V137.294Z" fill="#BDE1EF"/>
<path d="M196.068 153.941L195.885 153.835V137.399L196.068 137.294V153.941Z" fill="#969696"/>
<path d="M196.068 153.941L184.604 160.548V160.339L195.885 153.835L196.068 153.941Z" fill="#AFAFAF"/>
<path d="M190.513 157.146L190.159 157.35V140.697L190.513 140.493V157.146Z" fill="#565656"/>
<path d="M190.159 157.347L189.976 157.241V140.805L190.159 140.7V157.347Z" fill="#969696"/>
<path d="M215.078 143.391L203.236 150.228V151.804L216.452 144.173L215.078 143.391Z" fill="#91B9F9"/>
<path d="M216.439 127.319L215.078 128.111V143.391L216.452 144.173L216.439 127.319Z" fill="#4469AA"/>
<path d="M215.078 128.111L203.236 134.935V150.228L215.078 143.391V128.111Z" fill="#565656"/>
<path d="M214.7 128.795L203.236 135.402V149.78L214.7 143.173V128.795Z" fill="#BDE1EF"/>
<path d="M214.7 143.173L214.516 143.067V128.899L214.7 128.795V143.173Z" fill="#969696"/>
<path d="M214.7 143.173L203.236 149.78V149.571L214.516 143.067L214.7 143.173Z" fill="#AFAFAF"/>
<path d="M209.144 146.377L208.791 146.581V132.198L209.144 131.994V146.377Z" fill="#565656"/>
<path d="M208.791 146.578L208.607 146.473V132.306L208.791 132.2V146.578Z" fill="#969696"/>
<path d="M189.66 166.859L205.183 157.827L198.976 154.243L183.381 163.273L189.66 166.859Z" fill="#91B9F9"/>
<path d="M205.182 157.827V186.512L189.66 195.478V166.859L205.182 157.827Z" fill="#7199EA"/>
<path d="M209.629 155.325L225.152 146.293L218.945 142.709L209.627 148.079L209.629 155.325Z" fill="#91B9F9"/>
<path d="M225.152 146.293V147.544L209.63 156.51V155.325L225.152 146.293Z" fill="#5A89CC"/>
<path d="M189.66 158.038L205.186 149.032L204.799 148.815L189.66 157.542V158.038Z" fill="#8973D8"/>
<path d="M205.186 149.032V149.712L189.66 158.675V158.038L205.186 149.032Z" fill="#755ABA"/>
<path d="M189.66 160.305L205.186 151.299L204.799 151.082L189.66 159.809V160.305Z" fill="#8973D8"/>
<path d="M205.186 151.299V151.979L189.66 160.942V160.305L205.186 151.299Z" fill="#755ABA"/>
<path d="M189.66 162.572L205.186 153.566L204.799 153.348L189.66 162.076V162.572Z" fill="#8973D8"/>
<path d="M205.186 153.566V154.245L189.66 163.209V162.572L205.186 153.566Z" fill="#755ABA"/>
<path d="M189.66 164.839L205.186 155.832L204.799 155.616L189.66 164.343V164.839Z" fill="#8973D8"/>
<path d="M205.186 155.832V156.512L189.66 165.476V164.839L205.186 155.832Z" fill="#755ABA"/>
<path d="M183.45 202.65V163.207L180.344 161.417V200.857L183.45 202.65Z" fill="#6B5193"/>
<path d="M183.45 202.65L189.66 199.064V153.347L183.45 163.207V202.65Z" fill="#755ABA"/>
<path d="M180.344 161.418L186.555 151.554L189.66 153.347L183.45 163.207L180.344 161.418Z" fill="#DEDEDE"/>
<path d="M222.91 145.869L216.852 142.298L217.239 142.082L222.91 145.373V145.869Z" fill="#8973D8"/>
<path d="M216.852 142.298V142.978L222.731 146.402L222.91 145.869L216.852 142.298Z" fill="#755ABA"/>
<path d="M209.627 153.44L223.208 145.537L222.821 145.321L209.627 152.944V153.44Z" fill="#8973D8"/>
<path d="M223.208 145.537V146.218L209.626 154.077V153.44L223.208 145.537Z" fill="#755ABA"/>
<path d="M222.91 143.467L216.852 139.896L217.239 139.68L222.91 142.971V143.467Z" fill="#8973D8"/>
<path d="M216.852 139.896V140.576L222.731 144L222.91 143.467L216.852 139.896Z" fill="#755ABA"/>
<path d="M209.627 151.038L223.208 143.135L222.821 142.919L209.627 150.542V151.038Z" fill="#8973D8"/>
<path d="M223.208 143.135V143.816L209.626 151.675V151.038L223.208 143.135Z" fill="#755ABA"/>
<path d="M222.91 141.276L216.852 137.705L217.239 137.489L222.91 140.78V141.276Z" fill="#8973D8"/>
<path d="M216.852 137.705V138.385L222.731 141.809L222.91 141.276L216.852 137.705Z" fill="#755ABA"/>
<path d="M209.627 148.847L223.208 140.944L222.821 140.728L209.627 148.351V148.847Z" fill="#8973D8"/>
<path d="M223.208 140.944V141.625L209.626 149.484V148.847L223.208 140.944Z" fill="#755ABA"/>
<path d="M222.91 139.085L216.853 135.514L217.24 135.298L222.91 138.588V139.085Z" fill="#8973D8"/>
<path d="M216.852 135.514V136.194L222.731 139.618L222.91 139.085L216.852 135.514Z" fill="#755ABA"/>
<path d="M208.39 147.358L223.208 138.753L222.821 138.537L207.963 147.109L208.39 147.358Z" fill="#8973D8"/>
<path d="M223.209 138.753V139.434L208.94 147.678L208.39 147.358L223.209 138.753Z" fill="#755ABA"/>
<path d="M204.288 163.876L202.927 164.668V182.217L204.301 182.999L204.288 163.876Z" fill="#4469AA"/>
<path d="M202.927 182.217L191.084 189.054V190.63L204.301 182.999L202.927 182.217Z" fill="#4D79BA"/>
<path d="M202.927 164.668L191.084 171.492V189.054L202.927 182.217V164.668Z" fill="#565656"/>
<path d="M202.548 165.352L191.084 171.96V188.606L202.548 181.999V165.352Z" fill="#BDE1EF"/>
<path d="M202.548 181.999L202.365 181.893V165.457L202.548 165.352V181.999Z" fill="#969696"/>
<path d="M202.548 181.999L191.084 188.606V188.397L202.365 181.893L202.548 181.999Z" fill="#AFAFAF"/>
<path d="M196.993 185.204L196.639 185.408V168.755L196.993 168.552V185.204Z" fill="#565656"/>
<path d="M196.639 185.405L196.457 185.299V168.864L196.639 168.758V185.405Z" fill="#969696"/>
<path d="M127.568 144.08L128.929 144.872V162.421L127.555 163.203L127.568 144.08Z" fill="#4469AA"/>
<path d="M128.93 162.421L174.134 188.501V190.078L127.555 163.203L128.93 162.421Z" fill="#4D79BA"/>
<path d="M128.929 144.872L174.134 170.94V188.501L128.929 162.421V144.872Z" fill="#565656"/>
<path d="M129.308 145.556L174.134 171.407V188.054L129.308 162.203V145.556Z" fill="#BDE1EF"/>
<path d="M129.308 162.203L129.491 162.097V145.661L129.308 145.556V162.203Z" fill="#969696"/>
<path d="M129.308 162.203L174.134 188.054V187.845L129.491 162.097L129.308 162.203Z" fill="#AFAFAF"/>
<path d="M140.991 168.943L141.346 169.147V152.495L140.991 152.291V168.943Z" fill="#565656"/>
<path d="M141.346 169.144L141.528 169.039V152.603L141.346 152.498V169.144Z" fill="#969696"/>
<path d="M158.339 178.949L158.693 179.153V162.501L158.339 162.297V178.949Z" fill="#565656"/>
<path d="M158.693 179.15L158.876 179.044V162.608L158.693 162.503V179.15Z" fill="#969696"/>
<path d="M214.165 153.81L213.554 154.166V173.41L214.166 173.732L214.165 153.81Z" fill="#4469AA"/>
<path d="M213.554 154.166L209.627 156.346V175.593L213.554 173.41V154.166Z" fill="#96D6D3"/>
<path d="M213.073 163.944C212.993 164.175 212.798 164.318 212.637 164.263C212.477 164.207 212.412 163.974 212.492 163.742C212.572 163.511 212.767 163.368 212.928 163.424C213.089 163.479 213.153 163.712 213.073 163.944Z" fill="#6E6E6E"/>
<path d="M214.166 173.732L209.627 176.36V175.593L213.554 173.41L214.166 173.732Z" fill="#4D79BA"/>
<path d="M115.135 130.978L139.974 91.4928L205.182 129.14L180.344 168.626L115.135 130.978Z" fill="#F4608E"/>
<path d="M180.344 168.626V165.04L203.474 128.148L203.809 131.361L180.344 168.626Z" fill="#D84A7D"/>
<path d="M205.183 129.14L233.133 136.104L167.923 98.4175L143.081 89.7017L205.183 129.14Z" fill="#E5578A"/>
<path d="M233.133 136.104V138.108L206.584 129.545V126.361L233.133 136.104Z" fill="#D84A7D"/>
<path d="M203.474 128.148L139.974 91.4927L143.081 89.7017L206.584 126.361L203.474 128.148Z" fill="#F975A5"/>
<path d="M203.809 131.361L206.584 129.545V126.361L203.474 128.148L203.809 131.361Z" fill="#D84A7D"/>
<path d="M214.502 156.076V166.793L215.022 167.084V156.366L214.502 156.076Z" fill="#6B5193"/>
<path d="M214.502 156.076L217.607 154.283L218.127 154.574L215.022 156.366L214.502 156.076Z" fill="#8973D8"/>
<path d="M215.022 156.366L218.128 154.574V165.291L215.022 167.084V156.366Z" fill="#755ABA"/>
<path d="M220.535 188.398V189.683L226.247 192.897L227.262 192.321L220.535 188.398Z" fill="#ADA9EA"/>
<path d="M226.247 192.897V191.73L233.553 187.451V188.607L226.247 192.897Z" fill="#C3BFEF"/>
<path opacity="0.7" d="M156.575 207.279C151.985 215.012 144.26 218.904 139.319 215.972C134.378 213.04 134.092 204.393 138.681 196.66C143.27 188.927 150.996 185.035 155.937 187.968C160.878 190.9 161.164 199.546 156.575 207.279Z" fill="#40A0E2"/>
<path d="M150.074 200.687L152.424 197.494L153.877 196.655V194.666L140.16 202.58V204.493L143.195 204.656L150.074 200.687Z" fill="white"/>
<path d="M141.055 207.771L142.249 207.083V205.121L141.055 205.112V207.771Z" fill="white"/>
<path d="M153.61 200.075V197.052L152.67 197.594V200.617L153.61 200.075Z" fill="white"/>
<path d="M154.63 202.499C154.285 202.698 154.005 203.192 154.005 203.604V204.777L151.788 205.632C151.712 205.173 151.346 205.002 150.904 205.257C150.737 205.353 150.584 205.5 150.45 205.67C150.271 205.559 150.123 205.388 150.018 205.16L149.253 203.506L152.425 201.677V197.978L150.075 201.171L143.195 205.14L142.426 205.099V207.446L148.415 203.991L149.314 205.934C149.478 206.291 149.722 206.541 150.017 206.689C150.011 206.744 150.004 206.799 150.004 206.852C150.004 207.446 150.407 207.695 150.904 207.408C151.177 207.251 151.417 206.966 151.582 206.643L154.006 205.708V206.983C154.006 207.395 154.285 207.567 154.63 207.368L155.095 207.1V202.23L154.63 202.499Z" fill="white"/>
<path opacity="0.7" d="M96.3533 170.372C100.942 162.638 100.656 153.992 95.7148 151.06C90.7735 148.128 83.0479 152.021 78.4593 159.754C73.8706 167.487 74.1565 176.133 79.0978 179.065C84.0391 181.997 91.7646 178.105 96.3533 170.372Z" fill="#40A0E2"/>
<path d="M80.8532 165.238C81.0854 164.818 81.3546 164.42 81.6488 164.086C81.9406 163.752 82.2511 163.465 82.5603 163.226C83.1825 162.746 83.8054 162.413 84.4108 162.147C85.6239 161.626 86.7871 161.316 87.9395 160.943C89.092 160.576 90.2332 160.156 91.3825 159.564C92.5344 158.982 93.6831 158.171 94.8637 157.164C94.8831 157.147 94.9019 157.154 94.9063 157.179C94.9094 157.199 94.9019 157.226 94.8894 157.244C93.8471 158.736 92.6251 159.93 91.4 160.763C90.1712 161.611 88.9405 162.142 87.7567 162.506C86.5698 162.878 85.4211 163.087 84.2862 163.383C83.7184 163.531 83.1531 163.698 82.5866 163.988C82.0188 164.26 81.4542 164.681 80.9039 165.323L80.902 165.325C80.8776 165.353 80.8501 165.353 80.8407 165.323C80.8319 165.3 80.8382 165.265 80.8532 165.238Z" fill="white"/>
<path d="M80.853 168.169C81.0852 167.75 81.3544 167.351 81.6486 167.018C81.9403 166.684 82.2508 166.398 82.5601 166.157C83.1823 165.678 83.8052 165.344 84.4105 165.079C85.6237 164.557 86.7868 164.248 87.9393 163.874C89.0917 163.508 90.2329 163.088 91.3823 162.496C92.5341 161.914 93.6828 161.102 94.8635 160.095C94.8829 160.078 94.9016 160.085 94.906 160.111C94.9092 160.131 94.9016 160.157 94.8891 160.176C93.8468 161.668 92.6249 162.862 91.3998 163.695C90.171 164.543 88.9402 165.074 87.7565 165.438C86.5696 165.809 85.4209 166.018 84.2859 166.315C83.7182 166.463 83.1529 166.63 82.5863 166.92C82.0186 167.191 81.4539 167.613 80.9037 168.255L80.9018 168.257C80.8774 168.285 80.8498 168.285 80.8404 168.255C80.8317 168.231 80.8379 168.196 80.853 168.169Z" fill="white"/>
<path d="M80.853 171.1C81.0852 170.681 81.3544 170.282 81.6486 169.949C81.9403 169.615 82.2508 169.329 82.5601 169.088C83.1823 168.609 83.8052 168.275 84.4105 168.01C85.6237 167.488 86.7868 167.178 87.9393 166.805C89.0917 166.438 90.2329 166.018 91.3823 165.427C92.5341 164.845 93.6828 164.033 94.8635 163.026C94.8829 163.009 94.9016 163.016 94.906 163.042C94.9092 163.062 94.9016 163.088 94.8891 163.107C93.8468 164.599 92.6249 165.792 91.3998 166.626C90.171 167.474 88.9402 168.005 87.7565 168.368C86.5696 168.74 85.4209 168.949 84.2859 169.245C83.7182 169.394 83.1529 169.561 82.5863 169.851C82.0186 170.122 81.4539 170.544 80.9037 171.185L80.9018 171.188C80.8774 171.216 80.8498 171.215 80.8404 171.186C80.8317 171.162 80.8379 171.128 80.853 171.1Z" fill="white"/>
<path d="M80.853 174.032C81.0852 173.612 81.3544 173.214 81.6486 172.881C81.9403 172.546 82.2508 172.26 82.5601 172.02C83.1823 171.54 83.8052 171.207 84.4105 170.941C85.6237 170.42 86.7868 170.11 87.9393 169.737C89.0917 169.37 90.2329 168.949 91.3823 168.358C92.5341 167.776 93.6828 166.965 94.8635 165.958C94.8829 165.941 94.9016 165.948 94.906 165.973C94.9092 165.993 94.9016 166.02 94.8891 166.038C93.8468 167.53 92.6249 168.724 91.3998 169.557C90.171 170.405 88.9402 170.936 87.7565 171.3C86.5696 171.672 85.4209 171.881 84.2859 172.177C83.7182 172.325 83.1529 172.493 82.5863 172.782C82.0186 173.053 81.4539 173.475 80.9037 174.116L80.9018 174.119C80.8774 174.147 80.8498 174.146 80.8404 174.117C80.8317 174.094 80.8379 174.059 80.853 174.032Z" fill="white"/>
<path opacity="0.7" d="M176.651 219.366C181.24 211.633 180.954 202.987 176.013 200.055C171.071 197.123 163.346 201.015 158.757 208.749C154.168 216.482 154.454 225.128 159.396 228.06C164.337 230.992 172.062 227.1 176.651 219.366Z" fill="#40A0E2"/>
<path d="M174.559 206.685C169.689 209.59 167.704 207.637 167.704 207.637C167.704 207.637 165.72 211.88 160.849 214.595C160.849 214.595 160.488 223.731 167.704 222.487C174.92 215.405 174.559 206.685 174.559 206.685ZM167.763 221.074L167.704 221.132L167.645 221.142C162.058 222.105 162.272 215.029 162.275 214.957L162.284 214.741L162.461 214.642C166.037 212.642 167.544 209.518 167.56 209.487L167.705 209.179L167.849 209.321C167.864 209.335 169.371 210.729 172.948 208.592L173.125 208.486L173.133 208.692C173.136 208.761 173.351 215.589 167.763 221.074Z" fill="white"/>
<path d="M167.704 209.868C167.247 210.708 165.696 213.21 162.64 214.977C162.654 216.115 162.975 221.442 167.704 220.671C172.441 215.978 172.755 210.285 172.769 209.133C169.712 210.893 168.161 210.18 167.704 209.868Z" fill="white"/>
<path opacity="0.7" d="M215.528 101.993C220.117 94.2596 219.831 85.6137 214.889 82.6817C209.948 79.7497 202.223 83.6418 197.634 91.375C193.045 99.1082 193.331 107.754 198.272 110.686C203.214 113.618 210.939 109.726 215.528 101.993Z" fill="#40A0E2"/>
<path d="M213.942 98.0848V87.2224L198.754 95.9852V106.848L205.449 102.984V104.837L202.55 106.509V107.314L210.144 102.933V102.128L207.245 103.801V101.948L213.942 98.0848ZM199.407 96.2906L213.29 88.2816V97.7793L199.407 105.788V96.2906Z" fill="white"/>
<path opacity="0.7" d="M115.338 182.809C110.749 190.542 103.023 194.434 98.0823 191.501C93.1407 188.569 92.8552 179.924 97.4444 172.191C102.033 164.458 109.759 160.566 114.7 163.498C119.641 166.43 119.927 175.076 115.338 182.809Z" fill="#40A0E2"/>
<path d="M99.8416 182.526C99.5993 182.666 99.3558 182.71 99.1542 182.628C98.6929 182.441 98.6271 181.664 99.0071 180.895C99.1367 180.633 102.23 174.438 106.734 171.69C109.556 169.969 112.24 169.999 114.715 171.778C115.12 172.069 115.092 172.903 114.652 173.64C114.213 174.377 113.528 174.738 113.123 174.447C111.091 172.986 108.962 172.915 106.795 174.238C103.263 176.392 100.703 181.523 100.677 181.574C100.464 182.007 100.154 182.346 99.8416 182.526Z" fill="white"/>
<path d="M111.188 179.06C110.879 179.239 110.572 179.259 110.359 179.077C109.341 178.215 108.258 178.101 107.14 178.74C107.135 178.743 107.129 178.746 107.123 178.749C105.163 179.88 103.544 182.997 103.528 183.028C103.14 183.794 102.457 184.252 102.003 184.05C101.549 183.847 101.496 183.062 101.884 182.296C101.976 182.117 104.147 177.883 107.123 176.165C107.133 176.16 107.142 176.155 107.15 176.149C108.934 175.131 110.571 175.236 112.017 176.46C112.401 176.785 112.341 177.635 111.883 178.357C111.68 178.677 111.433 178.919 111.188 179.06Z" fill="white"/>
<path d="M108.673 182.325C108.673 183.507 107.871 184.928 106.881 185.499C105.891 186.07 105.089 185.575 105.089 184.393C105.089 183.211 105.891 181.79 106.881 181.219C107.871 180.648 108.673 181.143 108.673 182.325Z" fill="white"/>
<path opacity="0.7" d="M300.486 146.912C295.897 154.645 288.171 158.537 283.23 155.605C278.289 152.673 278.003 144.027 282.593 136.294C287.182 128.561 294.907 124.669 299.848 127.601C304.789 130.533 305.075 139.179 300.486 146.912Z" fill="#40A0E2"/>
<path d="M296.21 131.005V148.473L287.745 153.357V135.889L296.21 131.005ZM296.567 130.372L296.21 130.578L287.745 135.462L287.387 135.669V136.096V153.564V153.991L287.745 153.784L296.21 148.9L296.567 148.694V148.267V130.799V130.372Z" fill="white"/>
<path d="M288.162 136.252V152.513L295.792 148.111V131.85L288.162 136.252ZM294.391 141.552C294.038 141.756 293.752 141.579 293.752 141.158C293.752 140.736 294.038 140.229 294.391 140.025C294.744 139.822 295.031 139.998 295.031 140.42C295.03 140.842 294.744 141.348 294.391 141.552Z" fill="white"/>
<path opacity="0.7" d="M258.426 123.152C253.837 130.885 246.112 134.776 241.171 131.844C236.23 128.912 235.944 120.266 240.533 112.533C245.121 104.8 252.847 100.909 257.789 103.841C262.73 106.773 263.015 115.419 258.426 123.152Z" fill="#40A0E2"/>
<path d="M252.255 119.615V110.237C252.255 108.878 251.328 108.306 250.189 108.963C249.051 109.619 248.124 111.26 248.124 112.62V121.997C247.359 123.183 246.924 124.524 246.924 125.705C246.924 127.855 248.388 128.759 250.189 127.72C251.989 126.681 253.454 124.087 253.454 121.937C253.455 120.756 253.019 119.919 252.255 119.615ZM250.189 127.033C248.706 127.889 247.5 127.144 247.5 125.373C247.5 124.353 247.896 123.187 248.585 122.176L248.701 122.005V121.598L249.865 120.927C250.024 120.835 250.153 120.606 250.153 120.417C250.153 120.227 250.024 120.147 249.865 120.239L248.701 120.91V119.721L249.865 119.049C250.024 118.957 250.153 118.729 250.153 118.539C250.153 118.35 250.024 118.269 249.865 118.361L248.701 119.033V117.844L249.865 117.172C250.024 117.08 250.153 116.851 250.153 116.662C250.153 116.472 250.024 116.392 249.865 116.484L248.701 117.156V115.966L249.865 115.294C250.024 115.202 250.153 114.973 250.153 114.784C250.153 114.594 250.024 114.514 249.865 114.606L248.701 115.278V114.088L249.865 113.416C250.024 113.324 250.153 113.095 250.153 112.906C250.153 112.716 250.024 112.637 249.865 112.728L248.701 113.4V112.288C248.701 111.308 249.369 110.125 250.189 109.652C251.01 109.178 251.678 109.591 251.678 110.57V120.288L251.794 120.324C252.483 120.541 252.879 121.25 252.879 122.27C252.879 124.04 251.672 126.177 250.189 127.033Z" fill="white"/>
<path d="M250.19 126.485C251.326 125.829 252.247 124.199 252.247 122.842L248.133 125.216C248.133 126.572 249.054 127.14 250.19 126.485Z" fill="white"/>
<path opacity="0.7" d="M237.729 111.775C242.317 104.042 242.031 95.3958 237.09 92.4638C232.149 89.5318 224.423 93.4239 219.835 101.157C215.246 108.89 215.532 117.536 220.473 120.468C225.414 123.4 233.14 119.508 237.729 111.775Z" fill="#40A0E2"/>
<path d="M232.615 96.2782L224.954 100.698C224.774 100.802 224.627 101.061 224.627 101.277V117.622C224.627 117.838 224.774 117.928 224.954 117.824L232.615 113.404C232.796 113.3 232.942 113.041 232.942 112.825V96.4804C232.942 96.2644 232.796 96.1736 232.615 96.2782ZM228.785 115.092C228.525 115.242 228.314 115.112 228.314 114.801C228.314 114.491 228.525 114.118 228.785 113.968C229.045 113.817 229.256 113.948 229.256 114.258C229.256 114.569 229.045 114.942 228.785 115.092ZM232.566 111.168L225.003 115.531V101.194L232.566 96.8309V111.168Z" fill="white"/>
<path opacity="0.7" d="M279.987 134.743C284.576 127.01 284.29 118.364 279.349 115.432C274.407 112.5 266.682 116.392 262.093 124.125C257.504 131.858 257.79 140.504 262.732 143.436C267.673 146.368 275.398 142.476 279.987 134.743Z" fill="#40A0E2"/>
<path d="M271.618 121.164C267.528 123.523 264.201 129.416 264.201 134.298C264.201 139.181 267.528 141.235 271.618 138.875C275.707 136.516 279.035 130.623 279.035 125.74C279.035 120.858 275.708 118.804 271.618 121.164ZM271.618 137.773C268.038 139.839 265.125 138.041 265.125 133.766C265.125 129.491 268.038 124.333 271.618 122.267C275.198 120.202 278.111 121.999 278.111 126.274C278.111 130.549 275.198 135.707 271.618 137.773Z" fill="white"/>
<path d="M274.273 122.925C274.088 122.906 273.853 123.119 273.748 123.4L271.664 128.97C271.649 128.978 271.634 128.984 271.619 128.993C271.144 129.267 270.759 129.949 270.759 130.515C270.759 130.984 271.023 131.227 271.383 131.141L273.12 133.857C273.191 133.967 273.322 133.976 273.457 133.898C273.521 133.862 273.585 133.805 273.644 133.732C273.83 133.501 273.897 133.183 273.793 133.021L272.172 130.486C272.359 130.19 272.479 129.838 272.479 129.523C272.479 129.312 272.426 129.148 272.334 129.037L274.417 123.468C274.521 123.188 274.458 122.944 274.273 122.925Z" fill="white"/>
<path opacity="0.7" d="M135.395 195.187C130.806 202.92 123.08 206.812 118.139 203.879C113.198 200.947 112.912 192.301 117.502 184.569C122.091 176.836 129.816 172.944 134.757 175.876C139.698 178.808 139.984 187.454 135.395 195.187Z" fill="#40A0E2"/>
<path d="M129.752 183.388L124.782 188.315C124.408 188.685 123.99 188.705 123.853 188.36C123.716 188.014 123.909 187.428 124.283 187.057L129.253 182.131C129.627 181.76 130.045 181.74 130.182 182.086C130.319 182.432 130.126 183.018 129.752 183.388Z" fill="white"/>
<path d="M129.752 185.996L124.782 190.922C124.408 191.293 123.99 191.313 123.853 190.967C123.716 190.621 123.909 190.035 124.283 189.665L129.253 184.738C129.627 184.368 130.045 184.348 130.182 184.694C130.319 185.039 130.126 185.625 129.752 185.996Z" fill="white"/>
<path d="M127.672 182.866L124.782 185.707C124.408 186.077 123.99 186.097 123.853 185.751C123.716 185.406 123.909 184.82 124.283 184.449L127.173 181.608C127.546 181.238 127.964 181.218 128.102 181.563C128.239 181.91 128.045 182.496 127.672 182.866Z" fill="white"/>
<path d="M130.117 189.104C129.841 188.961 129.403 189.223 129.137 189.689C128.106 191.5 127.868 193.102 127.831 194.034L126.54 194.776C126.513 194.096 126.367 193.163 125.842 192.479L129.751 188.604C130.125 188.233 130.318 187.647 130.181 187.302C130.044 186.956 129.626 186.976 129.252 187.346L124.283 192.273C123.909 192.643 123.715 193.229 123.852 193.575C123.95 193.82 124.189 193.878 124.453 193.76C124.973 194.23 125.118 195.015 125.15 195.573L124.98 195.67C124.733 195.812 124.532 196.155 124.532 196.436V197.93C124.532 198.211 124.733 198.324 124.98 198.182L125.141 198.09V199.298C125.141 199.566 125.333 199.674 125.569 199.538L126.343 199.094C126.541 199.367 126.909 199.416 127.332 199.174C127.754 198.932 128.122 198.46 128.321 197.959L129.095 197.515C129.331 197.38 129.522 197.052 129.522 196.784V195.576L129.683 195.484C129.93 195.341 130.131 194.998 130.131 194.717V193.224C130.131 192.943 129.931 192.83 129.683 192.972L129.217 193.24C129.25 192.576 129.427 191.455 130.137 190.208C130.402 189.741 130.394 189.247 130.117 189.104Z" fill="white"/>
<path d="M271.333 54C271.333 55.4728 272.527 56.6667 274 56.6667C275.473 56.6667 276.667 55.4728 276.667 54C276.667 52.5272 275.473 51.3333 274 51.3333C272.527 51.3333 271.333 52.5272 271.333 54ZM298 8V7.5H297.697L297.557 7.76872L298 8ZM274.443 54.2313L298.443 8.23128L297.557 7.76872L273.557 53.7687L274.443 54.2313ZM298 8.5H386V7.5H298V8.5Z" fill="white"/>
<path d="M277.333 318C277.333 316.527 278.527 315.333 280 315.333C281.473 315.333 282.667 316.527 282.667 318C282.667 319.473 281.473 320.667 280 320.667C278.527 320.667 277.333 319.473 277.333 318ZM304 364V364.5H303.697L303.557 364.231L304 364ZM280.443 317.769L304.443 363.769L303.557 364.231L279.557 318.231L280.443 317.769ZM304 363.5H392V364.5H304V363.5Z" fill="white"/>
<path d="M120.667 54C120.667 55.4728 119.473 56.6667 118 56.6667C116.527 56.6667 115.333 55.4728 115.333 54C115.333 52.5272 116.527 51.3333 118 51.3333C119.473 51.3333 120.667 52.5272 120.667 54ZM94 8V7.5H94.3031L94.4433 7.76872L94 8ZM117.557 54.2313L93.5567 8.23128L94.4433 7.76872L118.443 53.7687L117.557 54.2313ZM94 8.5H6V7.5H94V8.5Z" fill="white"/>
<path d="M114.667 318C114.667 316.527 113.473 315.333 112 315.333C110.527 315.333 109.333 316.527 109.333 318C109.333 319.473 110.527 320.667 112 320.667C113.473 320.667 114.667 319.473 114.667 318ZM88 364V364.5H88.3031L88.4433 364.231L88 364ZM111.557 317.769L87.5567 363.769L88.4433 364.231L112.443 318.231L111.557 317.769ZM88 363.5H0V364.5H88V363.5Z" fill="white"/>
<defs>
<linearGradient id="paint0_linear_1229_3208" x1="226.824" y1="209.09" x2="220.269" y2="197.736" gradientUnits="userSpaceOnUse">
<stop stop-color="white" stop-opacity="0"/>
<stop offset="1" stop-color="white"/>
</linearGradient>
<linearGradient id="paint1_linear_1229_3208" x1="136.181" y1="210.468" x2="142.732" y2="199.12" gradientUnits="userSpaceOnUse">
<stop stop-color="white" stop-opacity="0"/>
<stop offset="1" stop-color="white"/>
</linearGradient>
</defs>
</svg>
