<svg width="169" height="147" viewBox="0 0 169 147" fill="none" xmlns="http://www.w3.org/2000/svg">
<g id="Group">
<g id="Group_2">
<path id="Vector" d="M82.3416 130.422L168.751 80.4924L86.9821 33.3189L0.573486 83.2474L82.3416 130.422Z" fill="#54CFCF"/>
<path id="Vector_2" d="M82.3417 130.422V131.835L168.751 81.8997V80.4925L82.3417 130.422Z" fill="#41B7B1"/>
<path id="Vector_3" d="M82.3417 146.927V131.834L168.751 81.8997V96.9982L82.3417 146.927Z" fill="url(#paint0_linear_968_7038)"/>
<path id="Vector_4" d="M82.3416 146.927V131.835L0.573486 84.6573V99.7558L82.3416 146.927Z" fill="url(#paint1_linear_968_7038)"/>
<path id="Vector_5" d="M82.3416 131.835L0.573486 84.6573V83.2476L82.3416 130.422V131.835Z" fill="#33A09D"/>
</g>
<g id="Group_3">
<path id="Vector_6" d="M82.3442 122.622L161.1 77.1145L86.574 34.119L7.81824 79.626L82.3442 122.622Z" fill="#E5E1FF"/>
<path id="Vector_7" d="M82.3442 122.622V123.909L161.1 78.3972V77.1145L82.3442 122.622Z" fill="#C3BFEF"/>
<path id="Vector_8" d="M82.3443 123.909L7.81836 80.9105V79.626L82.3443 122.622V123.909Z" fill="#ADA9EA"/>
</g>
<path id="Vector_9" d="M128.219 102.712L135.553 98.451L123.979 91.6959L116.644 95.957L128.219 102.712Z" fill="#E5E1FF"/>
<g id="Group_4">
<path id="Vector_10" d="M107.727 90.0695V91.9788L115.615 96.533V94.6237L107.727 90.0695Z" fill="#6B5193"/>
<path id="Vector_11" d="M120.894 87.5349L112.116 92.6036L107.726 90.0696L116.505 85.0009L120.894 87.5349Z" fill="#8973D8"/>
<path id="Vector_12" d="M120.895 87.5349V88.1684L112.116 93.2372V92.6036L120.895 87.5349Z" fill="#755ABA"/>
<path id="Vector_13" d="M112.116 93.2371L107.727 90.703V90.0695L112.116 92.6036V93.2371Z" fill="#6B5193"/>
<path id="Vector_14" d="M122.644 89.1838L113.866 94.2519L112.116 93.2371L120.895 88.1684L122.644 89.1838Z" fill="#8973D8"/>
<path id="Vector_15" d="M122.644 89.1837V89.8172L113.866 94.8853V94.2518L122.644 89.1837Z" fill="#755ABA"/>
<path id="Vector_16" d="M124.393 90.8307L115.615 95.8994L113.866 94.8847L122.644 89.816L124.393 90.8307Z" fill="#8973D8"/>
<path id="Vector_17" d="M124.393 90.8307V91.4643L115.615 96.533V95.8995L124.393 90.8307Z" fill="#755ABA"/>
<path id="Vector_18" d="M113.866 94.8854L112.116 93.8706V93.2371L113.866 94.2519V94.8854Z" fill="#6B5193"/>
</g>
<g id="Group_5">
<g id="Group_6">
<path id="Vector_19" d="M120.648 65.2831V75.9996L120.128 76.29V65.5735L120.648 65.2831Z" fill="#755ABA"/>
<path id="Vector_20" d="M120.648 65.283L117.543 63.4902L116.968 63.8107L120.128 65.5735L120.648 65.283Z" fill="#8973D8"/>
</g>
<g id="Group_7">
<path id="Vector_21" d="M26.4492 76.0001L79.2392 106.478V67.0358L26.4492 36.5577V76.0001Z" fill="#6386D6"/>
<path id="Vector_22" d="M79.2393 67.0358L100.974 35.5286L119.607 41.5125V83.1716L79.2393 106.478V67.0358Z" fill="#7199EA"/>
</g>
<g id="Group_8">
<path id="Vector_23" d="M99.8076 46.8177L98.4467 47.6103V65.1589L99.8207 65.9408L99.8076 46.8177Z" fill="#4469AA"/>
<path id="Vector_24" d="M98.4467 65.159L86.604 71.9962V73.5718L99.8207 65.9409L98.4467 65.159Z" fill="#91B9F9"/>
<path id="Vector_25" d="M98.4467 47.6104L86.604 54.4337V71.9962L98.4467 65.159V47.6104Z" fill="#565656"/>
<path id="Vector_26" d="M98.0679 48.2938L86.604 54.9013V71.5485L98.0679 64.941V48.2938Z" fill="#BDE1EF"/>
<path id="Vector_27" d="M98.0679 64.941L97.8845 64.8353V48.399L98.0679 48.2938V64.941Z" fill="#969696"/>
<path id="Vector_28" d="M98.0679 64.9411L86.604 71.5485V71.3388L97.8845 64.8353L98.0679 64.9411Z" fill="#AFAFAF"/>
<path id="Vector_29" d="M92.5129 68.1456L92.1592 68.3497V51.6974L92.5129 51.4933V68.1456Z" fill="#565656"/>
<path id="Vector_30" d="M92.1591 68.3465L91.9757 68.2407V51.8051L92.1591 51.7V68.3465Z" fill="#969696"/>
</g>
<g id="Group_9">
<path id="Vector_31" d="M117.078 54.3907L105.236 61.2279V62.8035L118.452 55.1726L117.078 54.3907Z" fill="#91B9F9"/>
<path id="Vector_32" d="M118.439 38.3187L117.078 39.1112V54.3906L118.452 55.1725L118.439 38.3187Z" fill="#4469AA"/>
<path id="Vector_33" d="M117.078 39.1113L105.236 45.9347V61.2279L117.078 54.3907V39.1113Z" fill="#565656"/>
<path id="Vector_34" d="M116.7 39.7948L105.236 46.4022V60.7802L116.7 54.1728V39.7948Z" fill="#BDE1EF"/>
<path id="Vector_35" d="M116.7 54.1728L116.516 54.067V39.8993L116.7 39.7948V54.1728Z" fill="#969696"/>
<path id="Vector_36" d="M116.7 54.1728L105.236 60.7802V60.5705L116.516 54.067L116.7 54.1728Z" fill="#AFAFAF"/>
<path id="Vector_37" d="M111.144 57.3773L110.791 57.5814V43.1984L111.144 42.9943V57.3773Z" fill="#565656"/>
<path id="Vector_38" d="M110.791 57.5783L110.607 57.4725V43.3062L110.791 43.2004V57.5783Z" fill="#969696"/>
</g>
<path id="Vector_39" d="M91.6603 77.8588L107.183 68.8268L100.976 65.243L85.3809 74.273L91.6603 77.8588Z" fill="#91B9F9"/>
<path id="Vector_40" d="M107.182 68.8268V97.512L91.6602 106.478V77.8587L107.182 68.8268Z" fill="#7199EA"/>
<path id="Vector_41" d="M111.629 66.3247L127.152 57.2928L120.945 53.7089L111.627 59.0794L111.629 66.3247Z" fill="#91B9F9"/>
<path id="Vector_42" d="M127.152 57.2927V58.544L111.63 67.5102V66.3246L127.152 57.2927Z" fill="#5A89CC"/>
<g id="Group_10">
<g id="Group_11">
<path id="Vector_43" d="M91.6602 69.0384L107.186 60.0321L106.799 59.8149L91.6602 68.5419V69.0384Z" fill="#8973D8"/>
<path id="Vector_44" d="M107.186 60.0321V60.7119L91.6603 69.675V69.0384L107.186 60.0321Z" fill="#755ABA"/>
</g>
<g id="Group_12">
<path id="Vector_45" d="M91.6603 71.3052L107.186 62.2989L106.799 62.0817L91.6603 70.8088V71.3052Z" fill="#8973D8"/>
<path id="Vector_46" d="M107.186 62.2989V62.9787L91.6604 71.9424V71.3051L107.186 62.2989Z" fill="#755ABA"/>
</g>
<g id="Group_13">
<path id="Vector_47" d="M91.6603 73.5719L107.186 64.5656L106.799 64.3484L91.6603 73.0761V73.5719Z" fill="#8973D8"/>
<path id="Vector_48" d="M107.186 64.5656V65.2454L91.6604 74.2091V73.5719L107.186 64.5656Z" fill="#755ABA"/>
</g>
<g id="Group_14">
<path id="Vector_49" d="M91.6603 75.8386L107.186 66.8324L106.799 66.6158L91.6603 75.3428V75.8386Z" fill="#8973D8"/>
<path id="Vector_50" d="M107.186 66.8323V67.5121L91.6604 76.4758V75.8385L107.186 66.8323Z" fill="#755ABA"/>
</g>
</g>
<g id="Group_15">
<path id="Vector_51" d="M85.4498 113.65V74.2072L82.3442 72.4175V111.857L85.4498 113.65Z" fill="#6B5193"/>
<path id="Vector_52" d="M85.4497 113.65L91.6603 110.064V64.347L85.4497 74.2072V113.65Z" fill="#755ABA"/>
<path id="Vector_53" d="M82.3441 72.4175L88.5547 62.5543L91.6603 64.3471L85.4497 74.2073L82.3441 72.4175Z" fill="#DEDEDE"/>
</g>
<g id="Group_16">
<g id="Group_17">
<path id="Vector_54" d="M124.91 56.8691L118.852 53.2984L119.239 53.0818L124.91 56.3727V56.8691Z" fill="#8973D8"/>
<path id="Vector_55" d="M118.852 53.2984V53.9782L124.731 57.4018L124.91 56.8691L118.852 53.2984Z" fill="#755ABA"/>
</g>
<g id="Group_18">
<path id="Vector_56" d="M111.627 64.44L125.208 56.5373L124.821 56.3207L111.627 63.9442V64.44Z" fill="#8973D8"/>
<path id="Vector_57" d="M125.208 56.5373V57.2178L111.626 65.0772V64.4399L125.208 56.5373Z" fill="#755ABA"/>
</g>
</g>
<g id="Group_19">
<g id="Group_20">
<path id="Vector_58" d="M124.91 54.467L118.852 50.8963L119.239 50.6797L124.91 53.9706V54.467Z" fill="#8973D8"/>
<path id="Vector_59" d="M118.852 50.8963V51.5761L124.731 54.9997L124.91 54.467L118.852 50.8963Z" fill="#755ABA"/>
</g>
<g id="Group_21">
<path id="Vector_60" d="M111.627 62.0379L125.208 54.1353L124.821 53.9187L111.627 61.5421V62.0379Z" fill="#8973D8"/>
<path id="Vector_61" d="M125.208 54.1353V54.8158L111.626 62.6752V62.0379L125.208 54.1353Z" fill="#755ABA"/>
</g>
</g>
<g id="Group_22">
<g id="Group_23">
<path id="Vector_62" d="M124.91 52.2759L118.852 48.7052L119.239 48.4886L124.91 51.7795V52.2759Z" fill="#8973D8"/>
<path id="Vector_63" d="M118.852 48.7052V49.385L124.731 52.8086L124.91 52.2759L118.852 48.7052Z" fill="#755ABA"/>
</g>
<g id="Group_24">
<path id="Vector_64" d="M111.627 59.8468L125.208 51.9442L124.821 51.7276L111.627 59.351V59.8468Z" fill="#8973D8"/>
<path id="Vector_65" d="M125.208 51.9441V52.6245L111.626 60.484V59.8467L125.208 51.9441Z" fill="#755ABA"/>
</g>
</g>
<g id="Group_25">
<g id="Group_26">
<path id="Vector_66" d="M124.91 50.0849L118.853 46.5142L119.24 46.2976L124.91 49.5885V50.0849Z" fill="#8973D8"/>
<path id="Vector_67" d="M118.852 46.5141V47.1939L124.731 50.6175L124.91 50.0848L118.852 46.5141Z" fill="#755ABA"/>
</g>
<g id="Group_27">
<path id="Vector_68" d="M110.39 58.3582L125.208 49.7532L124.821 49.5366L109.963 58.109L110.39 58.3582Z" fill="#8973D8"/>
<path id="Vector_69" d="M125.209 49.7532V50.4337L110.94 58.6781L110.39 58.3582L125.209 49.7532Z" fill="#755ABA"/>
</g>
</g>
<g id="Group_28">
<path id="Vector_70" d="M106.288 74.8763L104.927 75.6682V93.2169L106.301 93.9988L106.288 74.8763Z" fill="#4469AA"/>
<path id="Vector_71" d="M104.927 93.217L93.0842 100.054V101.63L106.301 93.9988L104.927 93.217Z" fill="#4D79BA"/>
<path id="Vector_72" d="M104.927 75.6682L93.0842 82.4915V100.054L104.927 93.2168V75.6682Z" fill="#565656"/>
<path id="Vector_73" d="M104.548 76.3518L93.0842 82.9599V99.6065L104.548 92.999V76.3518Z" fill="#BDE1EF"/>
<path id="Vector_74" d="M104.548 92.999L104.365 92.8932V76.457L104.548 76.3518V92.999Z" fill="#969696"/>
<path id="Vector_75" d="M104.548 92.999L93.0842 99.6065V99.3968L104.365 92.8932L104.548 92.999Z" fill="#AFAFAF"/>
<path id="Vector_76" d="M98.9931 96.2035L98.6394 96.4076V79.7554L98.9931 79.5519V96.2035Z" fill="#565656"/>
<path id="Vector_77" d="M98.6393 96.4052L98.4565 96.2994V79.8637L98.6393 79.7579V96.4052Z" fill="#969696"/>
</g>
<g id="Group_29">
<path id="Vector_78" d="M29.5678 55.0804L30.9294 55.8723V73.421L29.5547 74.2029L29.5678 55.0804Z" fill="#4469AA"/>
<path id="Vector_79" d="M30.9296 73.421L76.1337 99.5014V101.078L29.5549 74.2029L30.9296 73.421Z" fill="#4D79BA"/>
<path id="Vector_80" d="M30.9294 55.8723L76.1335 81.9395V99.5013L30.9294 73.4209V55.8723Z" fill="#565656"/>
<path id="Vector_81" d="M31.3076 56.5559L76.1336 82.4072V99.0544L31.3076 73.2031V56.5559Z" fill="#BDE1EF"/>
<path id="Vector_82" d="M31.3076 73.2031L31.491 73.0973V56.6611L31.3076 56.5559V73.2031Z" fill="#969696"/>
<path id="Vector_83" d="M31.3076 73.2031L76.1336 99.0544V98.8447L31.491 73.0974L31.3076 73.2031Z" fill="#AFAFAF"/>
<g id="Group_30">
<path id="Vector_84" d="M42.9913 79.9432L43.3457 80.1473V63.4951L42.9913 63.291V79.9432Z" fill="#565656"/>
<path id="Vector_85" d="M43.3457 80.1441L43.5285 80.039V63.6027L43.3457 63.4976V80.1441Z" fill="#969696"/>
</g>
<g id="Group_31">
<path id="Vector_86" d="M60.339 89.9487L60.6927 90.1528V73.5006L60.339 73.2965V89.9487Z" fill="#565656"/>
<path id="Vector_87" d="M60.6927 90.1497L60.8762 90.0439V73.6083L60.6927 73.5025V90.1497Z" fill="#969696"/>
</g>
</g>
<g id="Group_32">
<path id="Vector_88" d="M116.165 64.8103L115.554 65.1659V84.4104L116.166 84.7321L116.165 64.8103Z" fill="#4469AA"/>
<path id="Vector_89" d="M115.554 65.1659L111.627 67.3456V86.5932L115.554 84.4104V65.1659Z" fill="#96D6D3"/>
<path id="Vector_90" d="M115.073 74.9439C114.993 75.1755 114.798 75.3182 114.637 75.2625C114.477 75.2068 114.412 74.9739 114.492 74.7423C114.572 74.5107 114.767 74.368 114.928 74.4237C115.089 74.4794 115.153 74.7123 115.073 74.9439Z" fill="#6E6E6E"/>
<path id="Vector_91" d="M116.166 84.7322L111.627 87.3601V86.5933L115.554 84.4104L116.166 84.7322Z" fill="#4D79BA"/>
</g>
<g id="Group_33">
<g id="Group_34">
<path id="Vector_92" d="M17.1355 41.9784L41.9739 2.4928L107.182 40.1398L82.344 79.626L17.1355 41.9784Z" fill="#F4608E"/>
<path id="Vector_93" d="M82.3441 79.6259V76.0402L105.474 39.1481L105.809 42.3608L82.3441 79.6259Z" fill="#D84A7D"/>
</g>
<g id="Group_35">
<path id="Vector_94" d="M107.183 40.1397L135.133 47.104L69.923 9.41752L45.0808 0.701721L107.183 40.1397Z" fill="#E5578A"/>
<path id="Vector_95" d="M135.133 47.104V49.1078L108.584 40.5447V37.3609L135.133 47.104Z" fill="#D84A7D"/>
</g>
<path id="Vector_96" d="M105.474 39.1481L41.9741 2.49271L45.081 0.701721L108.584 37.3609L105.474 39.1481Z" fill="#F975A5"/>
<path id="Vector_97" d="M105.809 42.3608L108.584 40.5448V37.361L105.474 39.1482L105.809 42.3608Z" fill="#D84A7D"/>
</g>
<g id="Group_36">
<path id="Vector_98" d="M116.502 67.0759V77.793L117.022 78.0835V67.3664L116.502 67.0759Z" fill="#6B5193"/>
<path id="Vector_99" d="M116.502 67.0759L119.607 65.2831L120.127 65.5735L117.022 67.3664L116.502 67.0759Z" fill="#8973D8"/>
<path id="Vector_100" d="M117.022 67.3665L120.128 65.5736V76.2907L117.022 78.0836V67.3665Z" fill="#755ABA"/>
</g>
</g>
<path id="Vector_101" d="M122.535 99.3981V100.683L128.247 103.897L129.262 103.321L122.535 99.3981Z" fill="#ADA9EA"/>
<path id="Vector_102" d="M128.247 103.897V102.73L135.553 98.451V99.6073L128.247 103.897Z" fill="#C3BFEF"/>
</g>
<defs>
<linearGradient id="paint0_linear_968_7038" x1="128.824" y1="120.09" x2="122.269" y2="108.736" gradientUnits="userSpaceOnUse">
<stop stop-color="white" stop-opacity="0"/>
<stop offset="1" stop-color="white"/>
</linearGradient>
<linearGradient id="paint1_linear_968_7038" x1="38.1805" y1="121.468" x2="44.732" y2="110.12" gradientUnits="userSpaceOnUse">
<stop stop-color="white" stop-opacity="0"/>
<stop offset="1" stop-color="white"/>
</linearGradient>
</defs>
</svg>
