<svg width="234" height="157" viewBox="0 0 234 157" fill="none" xmlns="http://www.w3.org/2000/svg">
<g id="Group">
<g id="Group_2">
<path id="Vector" opacity="0.7" d="M86.5746 130.279C81.9854 138.012 74.2599 141.904 69.3189 138.972C64.3779 136.04 64.0918 127.393 68.681 119.66C73.2696 111.927 80.9957 108.035 85.9367 110.968C90.8777 113.9 91.1638 122.546 86.5746 130.279Z" fill="#40A0E2"/>
<g id="Group_3">
<path id="Vector_2" d="M80.0742 123.687L82.4242 120.494L83.8772 119.655V117.666L70.1603 125.58V127.493L73.1945 127.656L80.0742 123.687Z" fill="white"/>
<path id="Vector_3" d="M71.0548 130.771L72.2492 130.083V128.121L71.0548 128.112V130.771Z" fill="white"/>
<path id="Vector_4" d="M83.6103 123.075V120.052L82.67 120.594V123.617L83.6103 123.075Z" fill="white"/>
<path id="Vector_5" d="M84.6295 125.499C84.2846 125.698 84.0054 126.192 84.0054 126.604V127.777L81.7881 128.632C81.7124 128.173 81.3462 128.002 80.9036 128.257C80.7371 128.353 80.5837 128.5 80.4497 128.67C80.2707 128.559 80.1229 128.388 80.0178 128.16L79.2534 126.506L82.4248 124.677V120.978L80.0747 124.171L73.195 128.14L72.4257 128.099V130.446L78.4152 126.991L79.3135 128.934C79.4782 129.291 79.7217 129.541 80.0172 129.689C80.0109 129.744 80.004 129.799 80.004 129.852C80.004 130.446 80.4072 130.695 80.9042 130.408C81.1765 130.251 81.4169 129.966 81.5822 129.643L84.006 128.708V129.983C84.006 130.395 84.2852 130.567 84.6302 130.368L85.0953 130.1V125.23L84.6295 125.499Z" fill="white"/>
</g>
</g>
<g id="Group_4">
<path id="Vector_6" opacity="0.7" d="M26.3533 93.3716C30.942 85.6384 30.6561 76.9925 25.7148 74.0605C20.7735 71.1284 13.0479 75.0206 8.45928 82.7538C3.87061 90.487 4.15647 99.1329 9.09776 102.065C14.0391 104.997 21.7646 101.105 26.3533 93.3716Z" fill="#40A0E2"/>
<g id="Group_5">
<path id="Vector_7" d="M10.8532 88.2377C11.0854 87.8183 11.3546 87.4195 11.6488 87.0865C11.9406 86.7522 12.2511 86.4655 12.5603 86.2257C13.1825 85.7462 13.8054 85.4126 14.4108 85.1471C15.6239 84.6257 16.7871 84.3158 17.9395 83.9427C19.092 83.5759 20.2332 83.1558 21.3825 82.5643C22.5344 81.9821 23.6831 81.1708 24.8637 80.1635C24.8831 80.1466 24.9019 80.1535 24.9063 80.1792C24.9094 80.1992 24.9019 80.2255 24.8894 80.2443C23.8471 81.7361 22.6251 82.9305 21.4 83.763C20.1712 84.6113 18.9405 85.1421 17.7567 85.5058C16.5698 85.8777 15.4211 86.0868 14.2862 86.3829C13.7184 86.5312 13.1531 86.6984 12.5866 86.9882C12.0188 87.2599 11.4542 87.6812 10.9039 88.3228L10.902 88.3253C10.8776 88.3535 10.8501 88.3529 10.8407 88.3235C10.8319 88.2997 10.8382 88.2646 10.8532 88.2377Z" fill="white"/>
<path id="Vector_8" d="M10.853 91.1694C11.0852 90.75 11.3544 90.3512 11.6486 90.0182C11.9403 89.6839 12.2508 89.3978 12.5601 89.1574C13.1823 88.6779 13.8052 88.3443 14.4105 88.0788C15.6237 87.5574 16.7868 87.2475 17.9393 86.8744C19.0917 86.5076 20.2329 86.0875 21.3823 85.496C22.5341 84.9138 23.6828 84.1025 24.8635 83.0952C24.8829 83.0783 24.9016 83.0852 24.906 83.1109C24.9092 83.1309 24.9016 83.1572 24.8891 83.176C23.8468 84.6678 22.6249 85.8615 21.3998 86.6947C20.171 87.543 18.9402 88.0738 17.7565 88.4375C16.5696 88.8094 15.4209 89.0185 14.2859 89.3146C13.7182 89.4629 13.1529 89.6301 12.5863 89.9199C12.0186 90.191 11.4539 90.6129 10.9037 91.2545L10.9018 91.257C10.8774 91.2852 10.8498 91.2846 10.8404 91.2552C10.8317 91.2307 10.8379 91.1963 10.853 91.1694Z" fill="white"/>
<path id="Vector_9" d="M10.853 94.1002C11.0852 93.6808 11.3544 93.2821 11.6486 92.949C11.9403 92.6147 12.2508 92.3287 12.5601 92.0883C13.1823 91.6088 13.8052 91.2751 14.4105 91.0097C15.6237 90.4882 16.7868 90.1783 17.9393 89.8052C19.0917 89.4384 20.2329 89.0184 21.3823 88.4268C22.5341 87.8446 23.6828 87.0333 24.8635 86.0261C24.8829 86.0092 24.9016 86.0161 24.906 86.0417C24.9092 86.0618 24.9016 86.0881 24.8891 86.1068C23.8468 87.5986 22.6249 88.7924 21.3998 89.6256C20.171 90.4738 18.9402 91.0047 17.7565 91.3684C16.5696 91.7402 15.4209 91.9493 14.2859 92.2454C13.7182 92.3938 13.1529 92.5609 12.5863 92.8507C12.0186 93.1218 11.4539 93.5437 10.9037 94.1854L10.9018 94.1879C10.8774 94.216 10.8498 94.2154 10.8404 94.186C10.8317 94.1622 10.8379 94.1278 10.853 94.1002Z" fill="white"/>
<path id="Vector_10" d="M10.853 97.0319C11.0852 96.6125 11.3544 96.2137 11.6486 95.8807C11.9403 95.5464 12.2508 95.2603 12.5601 95.0199C13.1823 94.5404 13.8052 94.2067 14.4105 93.9413C15.6237 93.4199 16.7868 93.11 17.9393 92.7369C19.0917 92.3701 20.2329 91.9494 21.3823 91.3584C22.5341 90.7763 23.6828 89.965 24.8635 88.9577C24.8829 88.9408 24.9016 88.9477 24.906 88.9734C24.9092 88.9934 24.9016 89.0197 24.8891 89.0385C23.8468 90.5302 22.6249 91.724 21.3998 92.5572C20.171 93.4055 18.9402 93.9363 17.7565 94.3C16.5696 94.6719 15.4209 94.8809 14.2859 95.177C13.7182 95.3254 13.1529 95.4925 12.5863 95.7818C12.0186 96.0528 11.4539 96.4747 10.9037 97.1164L10.9018 97.1189C10.8774 97.1471 10.8498 97.1464 10.8404 97.117C10.8317 97.0939 10.8379 97.0594 10.853 97.0319Z" fill="white"/>
</g>
</g>
<g id="Group_6">
<path id="Vector_11" opacity="0.7" d="M106.651 142.366C111.24 134.633 110.954 125.987 106.013 123.055C101.071 120.123 93.3458 124.015 88.7571 131.749C84.1685 139.482 84.4543 148.128 89.3956 151.06C94.3369 153.992 102.062 150.1 106.651 142.366Z" fill="#40A0E2"/>
<g id="Group_7">
<path id="Vector_12" d="M104.559 129.685C99.6886 132.59 97.7041 130.637 97.7041 130.637C97.7041 130.637 95.7197 134.88 90.8488 137.595C90.8488 137.595 90.4882 146.731 97.7041 145.487C104.92 138.405 104.559 129.685 104.559 129.685ZM97.763 144.074L97.7041 144.132L97.6453 144.142C92.0576 145.105 92.2723 138.029 92.2755 137.957L92.2842 137.741L92.4614 137.642C96.0371 135.642 97.5445 132.518 97.5595 132.487L97.7048 132.179L97.8494 132.321C97.8638 132.335 99.3705 133.729 102.948 131.592L103.125 131.486L103.133 131.692C103.136 131.761 103.351 138.589 97.763 144.074Z" fill="white"/>
<path id="Vector_13" d="M97.7042 132.868C97.2473 133.708 95.696 136.21 92.6399 137.977C92.6543 139.115 92.9748 144.442 97.7042 143.671C102.441 138.978 102.755 133.285 102.769 132.133C99.7118 133.893 98.1612 133.18 97.7042 132.868Z" fill="white"/>
</g>
</g>
<g id="Group_8">
<path id="Vector_14" opacity="0.7" d="M145.528 24.9928C150.117 17.2596 149.831 8.61371 144.889 5.68169C139.948 2.74966 132.223 6.64179 127.634 14.375C123.045 22.1082 123.331 30.7541 128.272 33.6861C133.214 36.6181 140.939 32.726 145.528 24.9928Z" fill="#40A0E2"/>
<path id="Vector_15" d="M143.942 21.0848V10.2224L128.754 18.9852V29.8475L135.449 25.9845V27.8368L132.55 29.5095V30.3139L140.144 25.9325V25.1281L137.245 26.8008V24.9484L143.942 21.0848ZM129.407 19.2906L143.29 11.2816V20.7793L129.407 28.7883V19.2906Z" fill="white"/>
</g>
<g id="Group_9">
<path id="Vector_16" opacity="0.7" d="M45.338 105.809C40.7488 113.542 33.0233 117.434 28.0823 114.501C23.1407 111.569 22.8552 102.924 27.4444 95.1906C32.033 87.4577 39.7591 83.5658 44.7001 86.498C49.6411 89.4296 49.9266 98.0759 45.338 105.809Z" fill="#40A0E2"/>
<g id="Group_10">
<g id="Group_11">
<path id="Vector_17" d="M29.8416 105.526C29.5993 105.666 29.3558 105.71 29.1542 105.628C28.6929 105.441 28.6271 104.664 29.0071 103.895C29.1367 103.633 32.2304 97.4378 36.7345 94.6897C39.5558 92.9688 42.2401 92.9989 44.7147 94.778C45.1197 95.069 45.0916 95.9029 44.6521 96.6397C44.2127 97.3771 43.5284 97.7383 43.1234 97.4472C41.0908 95.9861 38.9618 95.9154 36.7946 97.2381C33.2633 99.3922 30.7029 104.523 30.6773 104.574C30.4638 105.007 30.1539 105.346 29.8416 105.526Z" fill="white"/>
</g>
<g id="Group_12">
<path id="Vector_18" d="M41.1881 102.06C40.8795 102.239 40.5721 102.259 40.3586 102.077C39.3408 101.215 38.2578 101.101 37.1397 101.74C37.1347 101.743 37.1291 101.746 37.1235 101.749C35.1635 102.88 33.544 105.997 33.5284 106.028C33.1396 106.794 32.4566 107.252 32.0028 107.05C31.5489 106.847 31.4957 106.062 31.8845 105.296C31.9759 105.117 34.1468 100.883 37.1235 99.1651C37.1329 99.1601 37.1416 99.1551 37.1504 99.1495C38.9339 98.131 40.5715 98.2355 42.0169 99.46C42.4006 99.7855 42.3406 100.635 41.8829 101.357C41.6801 101.677 41.4335 101.919 41.1881 102.06Z" fill="white"/>
</g>
<g id="Group_13">
<path id="Vector_19" d="M38.6732 105.325C38.6732 106.507 37.8707 107.928 36.881 108.499C35.8913 109.07 35.0887 108.575 35.0887 107.393C35.0887 106.211 35.8913 104.79 36.881 104.219C37.8713 103.648 38.6732 104.143 38.6732 105.325Z" fill="white"/>
</g>
</g>
</g>
<g id="Group_14">
<path id="Vector_20" opacity="0.7" d="M230.486 69.9121C225.897 77.6451 218.171 81.5369 213.23 78.6048C208.289 75.6726 208.003 67.0269 212.593 59.2939C217.182 51.5609 224.907 47.6691 229.848 50.6013C234.789 53.5328 235.075 62.1785 230.486 69.9121Z" fill="#40A0E2"/>
<g id="Group_15">
<path id="Vector_21" d="M226.21 54.0053V71.4732L217.745 76.3572V58.8893L226.21 54.0053ZM226.567 53.3718L226.21 53.5783L217.745 58.4624L217.387 58.669V59.0959V76.5638V76.9908L217.745 76.7842L226.21 71.9001L226.567 71.6935V71.2666V53.7987V53.3718Z" fill="white"/>
<path id="Vector_22" d="M218.162 59.2524V75.5128L225.792 71.1108V54.8504L218.162 59.2524ZM224.391 64.5522C224.038 64.7562 223.752 64.5791 223.752 64.1578C223.752 63.7359 224.038 63.2294 224.391 63.0253C224.744 62.8219 225.031 62.9984 225.031 63.4197C225.03 63.8416 224.744 64.3481 224.391 64.5522Z" fill="white"/>
</g>
</g>
<g id="Group_16">
<path id="Vector_23" opacity="0.7" d="M188.426 46.1516C183.837 53.8846 176.112 57.7764 171.171 54.8443C166.23 51.9121 165.944 43.2664 170.533 35.5334C175.121 27.8004 182.847 23.9086 187.789 26.8408C192.73 29.773 193.015 38.4186 188.426 46.1516Z" fill="#40A0E2"/>
<g id="Group_17">
<path id="Vector_24" d="M182.255 42.6147V33.2372C182.255 31.8775 181.328 31.306 180.189 31.9626C179.051 32.6193 178.124 34.2601 178.124 35.6197V44.9972C177.359 46.1835 176.924 47.5244 176.924 48.705C176.924 50.8547 178.388 51.7586 180.189 50.7201C181.989 49.681 183.454 47.0874 183.454 44.9371C183.455 43.7565 183.019 42.9189 182.255 42.6147ZM180.189 50.0328C178.706 50.8885 177.5 50.1442 177.5 48.3732C177.5 47.3529 177.896 46.1872 178.585 45.1756L178.701 45.0054V44.5985L179.865 43.9268C180.024 43.8354 180.153 43.6062 180.153 43.4166C180.153 43.2269 180.024 43.1468 179.865 43.2388L178.701 43.9105V42.7211L179.865 42.0494C180.024 41.9574 180.153 41.7289 180.153 41.5392C180.153 41.3495 180.024 41.2694 179.865 41.3614L178.701 42.0331V40.8437L179.865 40.172C180.024 40.08 180.153 39.8515 180.153 39.6618C180.153 39.4721 180.024 39.392 179.865 39.484L178.701 40.1557V38.9657L179.865 38.294C180.024 38.202 180.153 37.9735 180.153 37.7838C180.153 37.5941 180.024 37.514 179.865 37.606L178.701 38.2777V37.0877L179.865 36.416C180.024 36.324 180.153 36.0955 180.153 35.9058C180.153 35.7161 180.024 35.6366 179.865 35.728L178.701 36.3997V35.288C178.701 34.3076 179.369 33.1251 180.189 32.6519C181.01 32.178 181.678 32.5905 181.678 33.5702V43.2876L181.794 43.3239C182.483 43.5405 182.879 44.2498 182.879 45.2702C182.879 47.0405 181.672 49.177 180.189 50.0328Z" fill="white"/>
<path id="Vector_25" d="M180.19 49.4849C181.326 48.8295 182.247 47.1988 182.247 45.8422L178.133 48.216C178.133 49.5719 179.054 50.1403 180.19 49.4849Z" fill="white"/>
</g>
</g>
<g id="Group_18">
<path id="Vector_26" opacity="0.7" d="M167.729 34.7749C172.317 27.0417 172.031 18.3958 167.09 15.4638C162.149 12.5318 154.423 16.4239 149.835 24.1571C145.246 31.8903 145.532 40.5362 150.473 43.4682C155.414 46.4002 163.14 42.5081 167.729 34.7749Z" fill="#40A0E2"/>
<path id="Vector_27" d="M162.615 19.2782L154.954 23.6977C154.774 23.8023 154.627 24.0614 154.627 24.2774V40.6216C154.627 40.8376 154.774 40.9277 154.954 40.8238L162.615 36.4043C162.796 36.2997 162.942 36.0406 162.942 35.8246V19.4804C162.942 19.2644 162.796 19.1736 162.615 19.2782ZM158.785 38.092C158.525 38.2422 158.314 38.112 158.314 37.8015C158.314 37.491 158.525 37.1179 158.785 36.9677C159.045 36.8174 159.256 36.9476 159.256 37.2581C159.256 37.5686 159.045 37.9417 158.785 38.092ZM162.566 34.1676L155.003 38.5308V24.1941L162.566 19.8309V34.1676Z" fill="white"/>
</g>
<g id="Group_19">
<path id="Vector_28" opacity="0.7" d="M209.987 57.7429C214.576 50.0097 214.29 41.3638 209.349 38.4318C204.407 35.4998 196.682 39.3919 192.093 47.1251C187.504 54.8583 187.79 63.5042 192.732 66.4362C197.673 69.3682 205.398 65.4761 209.987 57.7429Z" fill="#40A0E2"/>
<g id="Group_20">
<path id="Vector_29" d="M201.618 44.1637C197.528 46.5231 194.201 52.4156 194.201 57.2984C194.201 62.1812 197.528 64.2345 201.618 61.8751C205.707 59.5157 209.035 53.6232 209.035 48.7404C209.035 43.8576 205.708 41.8043 201.618 44.1637ZM201.618 60.7727C198.038 62.8385 195.125 61.0413 195.125 56.7663C195.125 52.4914 198.038 47.3331 201.618 45.2673C205.198 43.2015 208.111 44.9988 208.111 49.2737C208.111 53.5487 205.198 58.7069 201.618 60.7727Z" fill="white"/>
<path id="Vector_30" d="M204.273 45.9254C204.088 45.906 203.853 46.1189 203.748 46.3999L201.664 51.9701C201.649 51.9776 201.634 51.9845 201.619 51.9932C201.144 52.2674 200.759 52.9485 200.759 53.515C200.759 53.9839 201.023 54.2268 201.383 54.141L203.12 56.8566C203.191 56.9668 203.322 56.9762 203.457 56.898C203.521 56.8616 203.585 56.8053 203.644 56.7321C203.83 56.5011 203.897 56.1831 203.793 56.0209L202.172 53.4856C202.359 53.1895 202.479 52.8383 202.479 52.5235C202.479 52.3125 202.426 52.1479 202.334 52.0371L204.417 46.4682C204.521 46.1877 204.458 45.9442 204.273 45.9254Z" fill="white"/>
</g>
</g>
<g id="Group_21">
<path id="Vector_31" opacity="0.7" d="M65.3951 118.187C60.8059 125.92 53.0805 129.812 48.1395 126.879C43.1984 123.947 42.9124 115.301 47.5016 107.569C52.0908 99.8355 59.8162 95.9437 64.7573 98.8759C69.6983 101.808 69.9844 110.454 65.3951 118.187Z" fill="#40A0E2"/>
<g id="Group_22">
<path id="Vector_32" d="M59.7519 106.388L54.782 111.315C54.4083 111.685 53.9901 111.705 53.8531 111.36C53.716 111.014 53.9094 110.428 54.2831 110.057L59.2529 105.131C59.6267 104.76 60.0448 104.74 60.1819 105.086C60.319 105.432 60.1256 106.018 59.7519 106.388Z" fill="white"/>
<path id="Vector_33" d="M59.7519 108.996L54.782 113.922C54.4083 114.293 53.9901 114.313 53.8531 113.967C53.716 113.621 53.9094 113.035 54.2831 112.665L59.2529 107.738C59.6267 107.368 60.0448 107.348 60.1819 107.694C60.319 108.039 60.1256 108.625 59.7519 108.996Z" fill="white"/>
<path id="Vector_34" d="M57.6715 105.866L54.7819 108.707C54.4082 109.077 53.99 109.097 53.8529 108.751C53.7158 108.406 53.9093 107.82 54.283 107.449L57.1726 104.608C57.5463 104.238 57.9645 104.218 58.1016 104.563C58.2387 104.91 58.0453 105.496 57.6715 105.866Z" fill="white"/>
<path id="Vector_35" d="M60.1174 112.104C59.8414 111.961 59.4026 112.223 59.1371 112.689C58.1061 114.5 57.8676 116.102 57.8313 117.034L56.5405 117.776C56.5129 117.096 56.3671 116.163 55.8419 115.479L59.7512 111.604C60.125 111.233 60.3184 110.647 60.1813 110.302C60.0442 109.956 59.626 109.976 59.2523 110.346L54.2825 115.273C53.9088 115.643 53.7153 116.229 53.8524 116.575C53.9501 116.82 54.1892 116.878 54.4534 116.76C54.973 117.23 55.1176 118.015 55.1495 118.573L54.9805 118.67C54.7332 118.812 54.5323 119.155 54.5323 119.436V120.93C54.5323 121.211 54.7326 121.324 54.9805 121.182L55.1414 121.09V122.298C55.1414 122.566 55.3329 122.674 55.5689 122.538L56.3427 122.094C56.5411 122.367 56.9092 122.416 57.3317 122.174C57.7543 121.932 58.1224 121.46 58.3208 120.959L59.0946 120.515C59.3306 120.38 59.5221 120.052 59.5221 119.784V118.576L59.683 118.484C59.9303 118.341 60.1312 117.998 60.1312 117.717V116.224C60.1312 115.943 59.9309 115.83 59.683 115.972L59.2166 116.24C59.2498 115.576 59.427 114.455 60.1369 113.208C60.4023 112.741 60.3935 112.247 60.1174 112.104Z" fill="white"/>
</g>
</g>
</g>
</svg>
