<svg width="161" height="93" viewBox="0 0 161 93" fill="none" xmlns="http://www.w3.org/2000/svg">
<path opacity="0.75" d="M0 56.3404V58.8762L59.9753 92.549L160.321 36.2087V33.6729L100.347 0L0 56.3404Z" fill="url(#paint0_linear_488_5347)"/>
<path d="M82.4977 11.2008L74.8047 6.88106L78.3719 4.87842L86.0649 9.19753L82.4977 11.2008Z" fill="#26A385"/>
<path d="M100.295 21.1927L92.6016 16.8743L96.1688 14.871L103.862 19.1901L100.295 21.1927Z" fill="#26A385"/>
<path d="M117.121 23.7351L105.399 24.2074L105.738 21.5645L117.458 21.0922L117.121 23.7351Z" fill="#26A385"/>
<path d="M143.514 26.2154L131.793 26.6877L132.131 24.0448L143.852 23.5725L143.514 26.2154Z" fill="#26A385"/>
<path d="M90.0289 15.5773L84.6143 12.5375L90.8666 9.02673L96.2813 12.0672L90.0289 15.5773Z" fill="#26A385"/>
<path d="M119.897 32.1996L112.204 27.8798L115.771 25.8772L123.464 30.1969L119.897 32.1996Z" fill="#26A385"/>
<path d="M127.429 36.5752L122.015 33.5355L128.266 30.0247L133.681 33.0651L127.429 36.5752Z" fill="#26A385"/>
<path d="M101.011 27.4031L93.3184 23.0839L96.8862 21.0813L104.579 25.4004L101.011 27.4031Z" fill="#26A385"/>
<path d="M111.116 33.077L103.423 28.7573L106.991 26.7546L114.683 31.0737L111.116 33.077Z" fill="#26A385"/>
<path d="M89.9542 26.628L78.2324 27.101L78.5708 24.458L90.2919 23.9851L89.9542 26.628Z" fill="#26A385"/>
<path d="M90.9078 34.2165L85.4932 31.1767L91.7455 27.6665L97.1602 30.7063L90.9078 34.2165Z" fill="#26A385"/>
<path d="M74.03 24.5929L66.3369 20.2732L69.9047 18.2705L77.5978 22.5902L74.03 24.5929Z" fill="#26A385"/>
<path d="M63.927 19.0687L58.5117 16.0283L64.7641 12.5181L70.1794 15.5579L63.927 19.0687Z" fill="#26A385"/>
<path d="M50.1768 29.3475L42.4844 25.0278L46.0516 23.0251L53.7446 27.3449L50.1768 29.3475Z" fill="#26A385"/>
<path d="M67.9743 27.0015L60.2812 22.6823L63.8491 20.6791L71.5421 24.9982L67.9743 27.0015Z" fill="#26A385"/>
<path d="M84.8012 29.5427L73.0801 30.015L73.4184 27.3727L85.1389 26.8998L84.8012 29.5427Z" fill="#26A385"/>
<path d="M111.194 44.3614L99.4727 44.8337L99.811 42.1914L111.532 41.7185L111.194 44.3614Z" fill="#26A385"/>
<path d="M57.7086 33.7231L52.2939 30.6833L58.5463 27.1725L63.961 30.2129L57.7086 33.7231Z" fill="#26A385"/>
<path d="M87.5772 38.0074L79.8848 33.6877L83.4513 31.6851L91.145 36.0048L87.5772 38.0074Z" fill="#26A385"/>
<path d="M95.1087 42.3834L89.6934 39.3436L95.9464 35.8328L101.361 38.8732L95.1087 42.3834Z" fill="#26A385"/>
<path d="M68.6911 45.549L60.998 41.2299L64.5652 39.2273L72.2576 43.5464L68.6911 45.549Z" fill="#26A385"/>
<path d="M78.7956 51.2226L71.1025 46.9035L74.6697 44.9009L82.3628 49.22L78.7956 51.2226Z" fill="#26A385"/>
<path d="M57.6342 32.436L45.9131 32.909L46.2514 30.266L57.9719 29.7931L57.6342 32.436Z" fill="#26A385"/>
<path d="M58.5885 40.0252L53.1738 36.9854L59.4262 33.4746L64.8402 36.5144L58.5885 40.0252Z" fill="#26A385"/>
<path d="M41.7096 30.4011L34.0166 26.0814L37.5838 24.0787L45.2775 28.3985L41.7096 30.4011Z" fill="#26A385"/>
<path d="M31.607 37.2149L26.1924 34.1745L32.4447 30.6643L37.8594 33.7041L31.607 37.2149Z" fill="#26A385"/>
<path d="M17.8571 35.1553L10.1641 30.8355L13.7319 28.8329L21.4243 33.1526L17.8571 35.1553Z" fill="#26A385"/>
<path d="M35.654 45.1472L27.9609 40.8281L31.5281 38.8248L39.2218 43.1439L35.654 45.1472Z" fill="#26A385"/>
<path d="M52.4819 47.6887L40.7607 48.161L41.0984 45.5187L52.8196 45.0458L52.4819 47.6887Z" fill="#26A385"/>
<path d="M78.8745 62.5077L67.1533 62.98L67.491 60.3377L79.2121 59.8647L78.8745 62.5077Z" fill="#26A385"/>
<path d="M25.3886 39.5309L19.9746 36.4912L26.227 32.9803L31.6416 36.0208L25.3886 39.5309Z" fill="#26A385"/>
<path d="M55.2575 56.1532L47.5645 51.8335L51.1316 49.8308L58.8247 54.1505L55.2575 56.1532Z" fill="#26A385"/>
<path d="M62.7893 60.5296L57.374 57.4898L63.6264 53.9796L69.0417 57.0194L62.7893 60.5296Z" fill="#26A385"/>
<path opacity="0.75" d="M0 56.3404L100.347 0L160.321 33.6729L59.9753 90.0132L0 56.3404Z" fill="url(#paint1_linear_488_5347)"/>
<path opacity="0.2" d="M59.9753 76.8826L0.706001 43.606L0 44.0022L59.9753 77.6751L160.321 21.3347L159.615 20.9385L59.9753 76.8826Z" fill="#F7F1E3"/>
<path opacity="0.1" d="M2.97266 42.2747L132.2 37.0655L160.307 21.2846L157.868 19.9153L33.8967 24.9127L2.97266 42.2747Z" fill="#F7F1E3"/>
<path opacity="0.1" d="M46.334 30.2673L147.095 26.2056L109.992 5.37341L89.1761 6.2134L46.334 30.2673Z" fill="#F7F1E3"/>
<path opacity="0.1" d="M50.2717 72.1856L71.1481 71.3438L113.99 47.2892L13.1689 51.3541L50.2717 72.1856Z" fill="#F7F1E3"/>
<defs>
<linearGradient id="paint0_linear_488_5347" x1="74.6847" y1="63.3311" x2="103.181" y2="-30.5231" gradientUnits="userSpaceOnUse">
<stop stop-color="#62A9F5"/>
<stop offset="1" stop-color="#62A9F5" stop-opacity="0.5"/>
</linearGradient>
<linearGradient id="paint1_linear_488_5347" x1="0.00013038" y1="45.0065" x2="160.322" y2="45.0065" gradientUnits="userSpaceOnUse">
<stop stop-color="#59A3F5"/>
<stop offset="1" stop-color="#59A3F5" stop-opacity="0"/>
</linearGradient>
</defs>
</svg>
