<svg width="192" height="115" viewBox="0 0 192 115" fill="none" xmlns="http://www.w3.org/2000/svg">
<path d="M188.38 37.0416C187.984 36.7126 187.564 36.4019 187.088 36.135L140.241 9.83247C133.076 5.80942 124.248 5.80942 117.082 9.83247L5.57079 72.4413L0.000976562 73.5197V77.6359L0.0114062 77.634C-0.045309 80.469 1.36018 83.3275 4.24548 84.9479L51.0922 111.25C58.2578 115.273 67.0865 115.273 74.2522 111.25L187.088 47.8973C189.918 46.3087 191.333 43.5282 191.333 40.7483V36.4691L188.38 37.0416Z" fill="#26A385"/>
<path opacity="0.3" d="M188.38 37.0416C187.984 36.7126 187.564 36.4019 187.088 36.135L140.241 9.83247C133.076 5.80942 124.248 5.80942 117.082 9.83247L5.57079 72.4413L0.000976562 73.5197V77.6359L0.0114062 77.634C-0.045309 80.469 1.36018 83.3275 4.24548 84.9479L51.0922 111.25C58.2578 115.273 67.0865 115.273 74.2522 111.25L187.088 47.8973C189.918 46.3087 191.333 43.5282 191.333 40.7483V36.4691L188.38 37.0416Z" fill="url(#paint0_linear_488_5454)"/>
<path d="M4.24483 66.3698L117.081 3.01728C124.247 -1.00576 133.076 -1.00576 140.241 3.01728L187.087 29.3199C192.747 32.4972 192.747 40.4419 187.087 43.6186L74.2515 106.971C67.0859 110.995 58.2572 110.995 51.0915 106.971L4.24483 80.6691C-1.41494 77.4911 -1.41494 69.5471 4.24483 66.3698Z" fill="#33D9B2"/>
<path opacity="0.3" d="M4.24483 66.3698L117.081 3.01728C124.247 -1.00576 133.076 -1.00576 140.241 3.01728L187.087 29.3199C192.747 32.4972 192.747 40.4419 187.087 43.6186L74.2515 106.971C67.0859 110.995 58.2572 110.995 51.0915 106.971L4.24483 80.6691C-1.41494 77.4911 -1.41494 69.5471 4.24483 66.3698Z" fill="url(#paint1_linear_488_5454)"/>
<path d="M50.1826 71.7207L32.2163 81.8075L14.25 71.7207L38.0893 58.3362" stroke="#FFD562" stroke-width="3.40195" stroke-miterlimit="10" stroke-linecap="round" stroke-linejoin="round"/>
<path d="M85.6016 54.9941L115.392 71.7202L133.453 61.5802L106.263 46.3147" stroke="#FFD562" stroke-width="3.40195" stroke-miterlimit="10" stroke-linecap="round" stroke-linejoin="round"/>
<path d="M98.8604 51.8682L117.342 62.244" stroke="#FFD562" stroke-width="3.40195" stroke-miterlimit="10" stroke-linecap="round"/>
<path d="M154.161 46.3146L175.425 34.3754L151.92 21.1785" stroke="#FFD562" stroke-width="3.40195" stroke-miterlimit="10" stroke-linecap="round" stroke-linejoin="round"/>
<path d="M50.5785 66.998L40.6338 72.5812L64.445 85.9506L74.3897 80.3674L50.5785 66.998Z" fill="#2D527B"/>
<path d="M40.6338 72.5814V75.8735L64.445 89.2429V85.9508L40.6338 72.5814Z" fill="#17293E"/>
<path d="M64.4453 89.2425L74.39 83.658V80.3672L64.4453 85.9504V89.2425Z" fill="#223E5C"/>
<path d="M126.52 35.1921L116.574 40.776L140.387 54.1453L150.331 48.5621L126.52 35.1921Z" fill="#2D527B"/>
<path d="M116.574 40.7761V44.0682L140.387 57.4376V54.1455L116.574 40.7761Z" fill="#17293E"/>
<path d="M140.387 57.4373L150.331 51.8528V48.562L140.387 54.1452V57.4373Z" fill="#223E5C"/>
<path d="M81.6191 62.2441L60.6084 73.8423L84.4196 87.2116L105.431 75.6135L81.6191 62.2441Z" fill="#2D527B"/>
<path d="M60.6084 73.8423V77.1337L84.4196 90.5031V87.2116L60.6084 73.8423Z" fill="#17293E"/>
<path d="M84.4199 90.5026L105.431 78.9045V75.613L84.4199 87.2111V90.5026Z" fill="#223E5C"/>
<defs>
<linearGradient id="paint0_linear_488_5454" x1="0.000715803" y1="60.5415" x2="191.333" y2="60.5415" gradientUnits="userSpaceOnUse">
<stop stop-color="#2D527B"/>
<stop offset="1" stop-color="#2D527B" stop-opacity="0"/>
</linearGradient>
<linearGradient id="paint1_linear_488_5454" x1="6.51898e-05" y1="54.9942" x2="191.332" y2="54.9942" gradientUnits="userSpaceOnUse">
<stop stop-color="#2D527B"/>
<stop offset="1" stop-color="#2D527B" stop-opacity="0"/>
</linearGradient>
</defs>
</svg>
