<svg width="161" height="110" viewBox="0 0 161 110" fill="none" xmlns="http://www.w3.org/2000/svg">
<path opacity="0.75" d="M0 58.8521L100.347 2.51172L160.321 36.1846L59.9753 92.5256L0 58.8521Z" fill="url(#paint0_linear_488_5451)"/>
<path d="M0 76.3095L100.347 19.9685L160.321 53.642L59.9753 109.983L0 76.3095Z" fill="#A4D0FA"/>
<path opacity="0.75" d="M0 56.3404V58.8762L59.9753 92.5497L160.321 36.2087V33.6729L100.347 0L0 56.3404Z" fill="url(#paint1_linear_488_5451)"/>
<path d="M24.9588 62.2693L11.9736 54.9789L38.558 40.0532L51.5432 47.3436L24.9588 62.2693Z" fill="#FFD562"/>
<path d="M42.6007 72.1747L29.6162 64.8843L46.9111 55.1741L59.8956 62.4645L42.6007 72.1747Z" fill="#FF528E"/>
<path d="M60.2439 82.0804L47.2588 74.79L81.8289 55.3804L94.8134 62.6708L60.2439 82.0804Z" fill="#33D9B2"/>
<path d="M60.1761 84.7655L7.71269 55.3103C7.08947 54.9603 7.1677 54.3492 7.8874 53.9454L8.40371 53.6557C8.7792 53.4452 9.2414 53.4452 9.61624 53.6557L62.0797 83.1108C62.7029 83.4614 62.6247 84.0725 61.905 84.4757L61.3887 84.7655C61.0132 84.9759 60.551 84.9759 60.1761 84.7655Z" fill="#2D527B"/>
<path d="M61.1768 30.2795L83.3028 31.2412L76.231 49.4984L95.5605 46.4662L114.055 49.9174" stroke="#F7F1E3" stroke-width="2.15202" stroke-miterlimit="10" stroke-linecap="round" stroke-linejoin="round"/>
<path d="M62.7261 31.2151C61.1602 32.0944 58.7919 32.1894 57.4359 31.4281C56.08 30.6667 56.2501 29.3367 57.8153 28.4574C59.3812 27.5781 61.7495 27.483 63.1055 28.2444C64.4614 29.0064 64.2919 30.3364 62.7261 31.2151Z" fill="#FFD562"/>
<path d="M85.6948 32.5838C84.129 33.4631 81.7606 33.5588 80.4047 32.7975C79.0487 32.0361 79.2189 30.7061 80.7841 29.8268C82.3499 28.9475 84.7189 28.8524 86.0749 29.6138C87.4308 30.3751 87.26 31.7052 85.6948 32.5838Z" fill="#437AB8"/>
<path d="M78.4634 50.7518C76.8975 51.6305 74.5292 51.7262 73.1732 50.9648C71.8173 50.2034 71.9874 48.874 73.5526 47.9948C75.1185 47.1155 77.4875 47.0197 78.8434 47.7818C80.1994 48.5425 80.0292 49.8725 78.4634 50.7518Z" fill="#FF528E"/>
<path d="M97.5405 48.1117C95.9753 48.9909 93.6063 49.0867 92.2503 48.3247C90.8944 47.5633 91.0645 46.2333 92.6304 45.354C94.1956 44.4747 96.5646 44.3796 97.9205 45.1403C99.2765 45.9023 99.1063 47.2324 97.5405 48.1117Z" fill="#FFD562"/>
<path d="M117.135 51.647C115.57 52.5262 113.201 52.6213 111.845 51.86C110.489 51.0986 110.659 49.7686 112.225 48.8893C113.79 48.01 116.159 47.9149 117.515 48.6763C118.871 49.4383 118.702 50.7683 117.135 51.647Z" fill="#437AB8"/>
<path d="M108.848 24.1194C103.394 27.182 95.1435 27.5141 90.4199 24.8623C85.6969 22.2105 86.2895 17.5783 91.7426 14.5163C97.1964 11.4543 105.447 11.1215 110.17 13.7733C114.894 16.4257 114.302 21.0574 108.848 24.1194Z" stroke="#F7F1E3" stroke-width="0.769181" stroke-miterlimit="10"/>
<path d="M110.17 13.7739C114.893 16.4257 114.301 21.058 108.848 24.12C103.394 27.1826 95.1435 27.5148 90.4199 24.863C85.6969 22.2112 86.2895 17.5789 91.7426 14.5169" stroke="#FFD562" stroke-width="2.30749" stroke-miterlimit="10" stroke-linecap="round"/>
<path d="M104.253 21.5397C101.729 22.9566 97.9123 23.1106 95.7265 21.8833C93.5407 20.6559 93.8152 18.5132 96.3387 17.0963C98.8622 15.6794 102.68 15.5254 104.865 16.7521C107.051 17.9794 106.776 20.1228 104.253 21.5397Z" fill="#437AB8"/>
<path d="M135.23 34.8001L121.137 26.8877C119.974 26.2348 120.119 25.0937 121.463 24.3399C122.806 23.5861 124.838 23.5037 126.001 24.1567L140.094 32.069C141.257 32.722 141.112 33.8631 139.768 34.6169C138.425 35.3706 136.393 35.453 135.23 34.8001Z" fill="#F7F1E3"/>
<path d="M126.165 39.8884L112.072 31.9761C110.909 31.3231 111.055 30.182 112.398 29.4283C113.741 28.6745 115.773 28.5921 116.936 29.2451L131.03 37.1574C132.193 37.8104 132.047 38.9515 130.704 39.7052C129.36 40.4596 127.328 40.542 126.165 39.8884Z" fill="#F7F1E3"/>
<path opacity="0.75" d="M0 56.3404L100.347 0L160.321 33.6729L59.9753 90.0139L0 56.3404Z" fill="url(#paint2_linear_488_5451)"/>
<path opacity="0.5" d="M59.9753 89.1686L0.752941 55.9186L0 56.3408L59.9753 90.0143L160.321 33.6733L159.569 33.2505L59.9753 89.1686Z" fill="#CEDFED"/>
<defs>
<linearGradient id="paint0_linear_488_5451" x1="0.00013038" y1="47.5185" x2="160.322" y2="47.5185" gradientUnits="userSpaceOnUse">
<stop stop-color="#59A3F5"/>
<stop offset="1" stop-color="#59A3F5" stop-opacity="0"/>
</linearGradient>
<linearGradient id="paint1_linear_488_5451" x1="74.6846" y1="63.3312" x2="103.181" y2="-30.5234" gradientUnits="userSpaceOnUse">
<stop stop-color="#62A9F5"/>
<stop offset="1" stop-color="#62A9F5" stop-opacity="0.5"/>
</linearGradient>
<linearGradient id="paint2_linear_488_5451" x1="0.00013038" y1="45.0067" x2="160.322" y2="45.0067" gradientUnits="userSpaceOnUse">
<stop stop-color="#59A3F5"/>
<stop offset="1" stop-color="#59A3F5" stop-opacity="0"/>
</linearGradient>
</defs>
</svg>
