<svg width="192" height="115" viewBox="0 0 192 115" fill="none" xmlns="http://www.w3.org/2000/svg">
<path d="M188.38 37.0412C187.984 36.7128 187.564 36.4022 187.088 36.1353L140.241 9.83271C133.076 5.80967 124.248 5.80967 117.082 9.83271L5.57079 72.4416L0.000976562 73.5199V77.6368L0.0114062 77.6342C-0.045309 80.4693 1.36018 83.3284 4.24548 84.9481L51.0922 111.251C58.2578 115.274 67.0865 115.274 74.2522 111.251L187.088 47.8982C189.918 46.3095 191.333 43.529 191.333 40.7485V36.4694L188.38 37.0412Z" fill="#A5CBF4"/>
<path opacity="0.3" d="M188.38 37.0412C187.984 36.7128 187.564 36.4022 187.088 36.1353L140.241 9.83271C133.076 5.80967 124.248 5.80967 117.082 9.83271L5.57079 72.4416L0.000976562 73.5199V77.6368L0.0114062 77.6342C-0.045309 80.4693 1.36018 83.3284 4.24548 84.9481L51.0922 111.251C58.2578 115.274 67.0865 115.274 74.2522 111.251L187.088 47.8982C189.918 46.3095 191.333 43.529 191.333 40.7485V36.4694L188.38 37.0412Z" fill="url(#paint0_linear_488_5453)"/>
<path d="M4.24483 66.3698L117.081 3.01728C124.247 -1.00576 133.076 -1.00576 140.241 3.01728L187.087 29.3199C192.747 32.4972 192.747 40.4412 187.087 43.6186L74.2515 106.971C67.0859 110.994 58.2572 110.994 51.0915 106.971L4.24483 80.6685C-1.41494 77.4911 -1.41494 69.5471 4.24483 66.3698Z" fill="#E5ECF2"/>
<path d="M43.8963 87.3802L39.3741 89.9192C37.7366 90.8384 35.7189 90.8384 34.0814 89.9192L28.0018 86.5053C26.713 85.7814 26.713 83.9733 28.0018 83.2494L32.524 80.7104C34.1615 79.7912 36.1792 79.7912 37.8167 80.7104L43.8963 84.1236C45.1851 84.8476 45.1851 86.6562 43.8963 87.3802Z" fill="#CEDFED"/>
<path opacity="0.75" d="M19.543 62.6681L119.89 6.32715L179.864 40.0006L79.5182 96.3416L19.543 62.6681Z" fill="url(#paint1_linear_488_5453)"/>
<path opacity="0.1" d="M22.5166 60.9989L151.743 55.7891L179.85 40.0082L177.411 38.6389L53.44 43.6363L22.5166 60.9989Z" fill="#F7F1E3"/>
<path opacity="0.1" d="M65.8779 36.6528L166.639 32.5911L129.536 11.7595L108.72 12.5989L65.8779 36.6528Z" fill="#F7F1E3"/>
<path opacity="0.1" d="M69.8147 90.9093L90.6917 90.0674L133.533 66.0134L32.7119 70.0777L69.8147 90.9093Z" fill="#F7F1E3"/>
<path opacity="0.2" d="M79.5176 78.9088V76.373L179.864 20.032V22.5678L79.5176 78.9088Z" fill="url(#paint2_linear_488_5453)"/>
<defs>
<linearGradient id="paint0_linear_488_5453" x1="26.3854" y1="102.986" x2="180.233" y2="0.593005" gradientUnits="userSpaceOnUse">
<stop stop-color="#437AB8"/>
<stop offset="1" stop-color="#437AB8" stop-opacity="0"/>
</linearGradient>
<linearGradient id="paint1_linear_488_5453" x1="5.455" y1="73.491" x2="154.719" y2="36.3863" gradientUnits="userSpaceOnUse">
<stop stop-color="#437AB8"/>
<stop offset="0.0515" stop-color="#437AB8" stop-opacity="0.9485"/>
<stop offset="1" stop-color="#437AB8" stop-opacity="0"/>
</linearGradient>
<linearGradient id="paint2_linear_488_5453" x1="93.099" y1="73.731" x2="191.414" y2="4.80347" gradientUnits="userSpaceOnUse">
<stop stop-color="#E5ECF2"/>
<stop offset="1" stop-color="#E5ECF2" stop-opacity="0"/>
</linearGradient>
</defs>
</svg>
