<svg width="203" height="118" viewBox="0 0 203 118" fill="none" xmlns="http://www.w3.org/2000/svg">
<path d="M4.24483 73.7052L117.081 10.3527C124.247 6.32904 133.076 6.32904 140.241 10.3527L187.087 36.6546C192.747 39.8326 192.747 47.776 187.087 50.9534L74.2515 114.306C67.0859 118.33 58.2572 118.33 51.0915 114.306L4.24483 88.0039C-1.41494 84.8266 -1.41494 76.8825 4.24483 73.7052Z" fill="#DBECFD"/>
<path d="M188.38 37.0406C187.984 36.7116 187.564 36.4009 187.088 36.1341L140.241 9.83149C133.076 5.80845 124.248 5.80845 117.082 9.83149L5.57079 72.4403L0.000976562 73.5187V77.6349L0.0114062 77.633C-0.045309 80.468 1.36018 83.3265 4.24548 84.9469L51.0922 111.249C58.2578 115.273 67.0865 115.273 74.2522 111.249L187.088 47.8963C189.918 46.3077 191.333 43.5272 191.333 40.7473V36.4682L188.38 37.0406Z" fill="#A5CBF4"/>
<path opacity="0.3" d="M188.38 37.0406C187.984 36.7116 187.564 36.4009 187.088 36.1341L140.241 9.83149C133.076 5.80845 124.248 5.80845 117.082 9.83149L5.57079 72.4403L0.000976562 73.5187V77.6349L0.0114062 77.633C-0.045309 80.468 1.36018 83.3265 4.24548 84.9469L51.0922 111.249C58.2578 115.273 67.0865 115.273 74.2522 111.249L187.088 47.8963C189.918 46.3077 191.333 43.5272 191.333 40.7473V36.4682L188.38 37.0406Z" fill="url(#paint0_linear_488_5455)"/>
<path d="M4.24483 66.3698L117.081 3.01728C124.247 -1.00576 133.076 -1.00576 140.241 3.01728L187.087 29.3198C192.747 32.4972 192.747 40.4412 187.087 43.6186L74.2515 106.972C67.0859 110.995 58.2572 110.995 51.0915 106.972L4.24483 80.6691C-1.41494 77.4911 -1.41494 69.5471 4.24483 66.3698Z" fill="#E5ECF2"/>
<path d="M128.661 5.07129C131.807 5.07129 134.909 5.87958 137.633 7.4093L184.48 33.7112C185.958 34.5411 186.118 35.9161 186.118 36.4689C186.118 37.0217 185.958 38.3967 184.48 39.2266L71.6442 102.579C68.9199 104.109 65.8176 104.917 62.6715 104.917C59.5261 104.917 56.4231 104.109 53.6994 102.579L6.85273 76.2771C5.37488 75.4473 5.21582 74.0722 5.21582 73.5194C5.21582 72.9666 5.37553 71.5916 6.85273 70.7618L119.689 7.4093C122.413 5.87958 125.516 5.07129 128.661 5.07129Z" fill="#A5CBF4"/>
<path d="M6.85273 76.2765L6.88142 76.2924L119.688 12.9564C122.413 11.4266 125.516 10.6183 128.661 10.6183C131.807 10.6183 134.909 11.4266 137.633 12.9564L184.451 39.2424L184.48 39.2266C185.958 38.3967 186.118 37.0217 186.118 36.4689C186.118 35.9161 185.958 34.5411 184.48 33.7112L137.633 7.4093C134.909 5.87958 131.807 5.07129 128.661 5.07129C125.516 5.07129 122.413 5.87958 119.688 7.4093L6.85273 70.7618C5.37488 71.5916 5.21582 72.9666 5.21582 73.5194C5.21582 74.0716 5.37488 75.4467 6.85273 76.2765Z" fill="#59A3F5"/>
<path opacity="0.2" d="M128.661 5.07129C131.807 5.07129 134.909 5.87958 137.633 7.4093L184.48 33.7112C185.958 34.5411 186.118 35.9161 186.118 36.4689C186.118 37.0217 185.958 38.3967 184.48 39.2266L71.6442 102.579C68.9199 104.109 65.8176 104.917 62.6715 104.917C59.5261 104.917 56.4231 104.109 53.6994 102.579L6.85273 76.2771C5.37488 75.4473 5.21582 74.0722 5.21582 73.5194C5.21582 72.9666 5.37553 71.5916 6.85273 70.7618L119.689 7.4093C122.413 5.87958 125.516 5.07129 128.661 5.07129Z" fill="url(#paint1_linear_488_5455)"/>
<path opacity="0.2" d="M102.02 96.2375V93.7017L202.366 37.3613V39.8971L102.02 96.2375Z" fill="url(#paint2_linear_488_5455)"/>
<defs>
<linearGradient id="paint0_linear_488_5455" x1="0.000715803" y1="60.5408" x2="191.333" y2="60.5408" gradientUnits="userSpaceOnUse">
<stop stop-color="#437AB8"/>
<stop offset="1" stop-color="#437AB8" stop-opacity="0"/>
</linearGradient>
<linearGradient id="paint1_linear_488_5455" x1="25.1514" y1="92.9923" x2="191.532" y2="-1.81329" gradientUnits="userSpaceOnUse">
<stop stop-color="#2D527B"/>
<stop offset="1" stop-color="#2D527B" stop-opacity="0"/>
</linearGradient>
<linearGradient id="paint2_linear_488_5455" x1="115.601" y1="91.0602" x2="213.916" y2="22.1329" gradientUnits="userSpaceOnUse">
<stop stop-color="#E5ECF2"/>
<stop offset="1" stop-color="#E5ECF2" stop-opacity="0"/>
</linearGradient>
</defs>
</svg>
