<svg width="240" height="155" viewBox="0 0 240 155" fill="none" xmlns="http://www.w3.org/2000/svg">
<g id="Group 625255">
<g id="Group 625256">
<path id="Vector" opacity="0.5" d="M120 154.345C54.2524 154.345 0.953568 119.837 0.953568 77.2697C0.953568 34.702 54.2524 0.194092 120 0.194092C185.747 0.194092 239.046 34.702 239.046 77.2697C239.046 119.837 185.747 154.345 120 154.345Z" fill="url(#paint0_radial_1151_2716)"/>
<g id="Group">
<g id="Group_2" opacity="0.67">
<path id="Vector_2" d="M119.112 142.937L220.387 77.3673L119.115 11.7986L17.8401 77.3693L119.112 142.937Z" fill="#0F054C"/>
</g>
<g id="Group_3" opacity="0.67">
<path id="Vector_3" d="M119.112 132.768L204.681 77.3673L119.115 21.968L33.5464 77.3687L119.112 132.768Z" fill="#0F054C"/>
</g>
<g id="Group_4" opacity="0.9">
<path id="Vector_4" d="M119.113 120.953L186.433 77.3671L119.115 33.783L51.7964 77.3685L119.113 120.953Z" fill="#080344"/>
</g>
</g>
<g id="Group_5">
<g id="Group_6">
<g id="Group_7">
<path id="Vector_5" d="M119.36 126.604C120.491 126.604 121.681 126.297 122.609 125.696L193.766 79.6253C194.691 79.0258 195.222 78.2171 195.222 77.407C195.222 76.7234 194.847 76.1043 194.167 75.6643L122.205 29.0732C120.727 28.1164 118.142 28.2328 116.442 29.3329L45.2843 75.4039C44.3591 76.0034 43.8287 76.8115 43.8287 77.6216C43.8287 78.3052 44.2031 78.9229 44.8835 79.3643L116.846 125.956C117.518 126.39 118.418 126.604 119.36 126.604ZM119.691 28.8175C120.569 28.8175 121.404 29.0153 122.027 29.4191L193.989 76.0101C194.554 76.3762 194.866 76.8721 194.866 77.407C194.866 78.0711 194.4 78.7533 193.588 79.2795L122.43 125.35C120.828 126.387 118.403 126.504 117.024 125.61L45.0617 79.0184C44.4959 78.6524 44.1845 78.1565 44.1845 77.6216C44.1845 76.9575 44.6501 76.2753 45.4625 75.7498L116.621 29.6788C117.5 29.1095 118.626 28.8175 119.691 28.8175Z" fill="#42E8E0"/>
<path id="Vector_6" d="M195.042 70.5385L190.701 70.5406L122.114 26.1342C120.683 25.2077 118.183 25.3241 116.531 26.3939L48.2233 70.6193L44.0071 70.6213V74.5043H44.0101C44.0083 75.0944 44.3227 75.6582 44.9725 76.0794L116.934 122.671C118.365 123.598 120.865 123.481 122.518 122.411L193.676 76.3405C194.603 75.7403 195.065 74.9679 195.041 74.2419H195.042V70.5385Z" fill="url(#paint1_linear_1151_2716)"/>
<path id="Vector_7" d="M116.936 118.806L44.9738 72.2154C43.5428 71.2888 43.7222 69.67 45.3746 68.6002L116.533 22.5292C118.185 21.4593 120.685 21.3429 122.116 22.2694L194.078 68.8612C195.509 69.7877 195.33 71.4066 193.678 72.4764L122.519 118.547C120.867 119.617 118.367 119.734 116.936 118.806Z" fill="url(#paint2_linear_1151_2716)"/>
<path id="Vector_8" opacity="0.1" d="M117.114 115.472L50.1229 72.0991C48.7909 71.2365 48.9577 69.73 50.4961 68.7335L116.739 25.8451C118.277 24.8493 120.605 24.7409 121.937 25.6035L188.928 68.9764C190.26 69.839 190.093 71.3455 188.555 72.342L122.312 115.23C120.773 116.227 118.447 116.335 117.114 115.472Z" fill="#180D5B"/>
<path id="Vector_9" d="M193.676 72.0302L122.518 118.101C120.866 119.171 118.365 119.287 116.934 118.361L44.9724 71.7699C44.4042 71.4018 44.094 70.9248 44.025 70.4161C43.932 71.0862 44.2398 71.7423 44.9724 72.2166L116.934 118.808C118.365 119.734 120.866 119.618 122.518 118.548L193.676 72.477C194.673 71.8318 195.129 70.988 195.024 70.2156C194.936 70.8548 194.483 71.5081 193.676 72.0302Z" fill="white"/>
</g>
</g>
<g id="Group_8">
<g id="Group_9">
<path id="Vector_10" d="M114.508 36.5959C114.738 36.5959 114.951 36.534 115.143 36.4108C115.593 36.1188 115.841 35.5294 115.841 34.7509V33.0264C115.841 32.4646 115.996 32.0555 116.279 31.8725C116.561 31.6902 116.955 31.7433 117.389 32.0252L118.721 32.8871C118.845 32.9652 119.005 32.9201 119.077 32.7802C119.148 32.6402 119.106 32.4619 118.982 32.3812L117.649 31.5193C117.047 31.1304 116.469 31.0759 116.019 31.3665C115.569 31.6579 115.321 32.2473 115.321 33.0264V34.7509C115.321 35.3127 115.166 35.7218 114.883 35.9048C114.602 36.0885 114.207 36.0334 113.773 35.7528L107.394 31.6222C107.271 31.5421 107.111 31.5886 107.038 31.7292C106.967 31.8685 107.009 32.0474 107.133 32.1282L113.513 36.2588C113.859 36.4828 114.197 36.5959 114.508 36.5959Z" fill="#42E8E0"/>
<path id="Vector_11" d="M112.028 38.1958C112.257 38.1958 112.471 38.1346 112.662 38.0114C113.112 37.7194 113.36 37.1307 113.36 36.3515V34.627C113.36 34.0652 113.515 33.6561 113.798 33.4731C114.08 33.2887 114.474 33.3446 114.908 33.6252L116.24 34.4877C116.365 34.5658 116.524 34.5214 116.596 34.3808C116.668 34.2415 116.626 34.0625 116.501 33.9818L115.168 33.1192C114.566 32.7303 113.987 32.6765 113.537 32.9671C113.088 33.2591 112.84 33.8479 112.84 34.627V36.3515C112.84 36.9134 112.685 37.3224 112.403 37.5055C112.121 37.6871 111.727 37.6346 111.292 37.3527L104.914 33.2228C104.791 33.1427 104.631 33.1885 104.558 33.3298C104.486 33.4691 104.528 33.648 104.653 33.7288L111.032 37.8587C111.377 38.0828 111.716 38.1958 112.028 38.1958Z" fill="#42E8E0"/>
<path id="Vector_12" d="M109.544 39.7966C109.774 39.7966 109.988 39.7354 110.179 39.6123C110.629 39.3209 110.876 38.7315 110.876 37.9524V36.2272C110.876 35.666 111.032 35.2563 111.314 35.0733C111.597 34.8909 111.991 34.9454 112.425 35.226L113.757 36.0886C113.881 36.1673 114.04 36.1215 114.113 35.9816C114.184 35.8423 114.142 35.6633 114.017 35.5826L112.685 34.72C112.084 34.3311 111.504 34.2773 111.054 34.568C110.604 34.8586 110.357 35.4487 110.357 36.2272V37.9524C110.357 38.5142 110.201 38.9233 109.919 39.1063C109.639 39.288 109.244 39.2355 108.809 38.9536L102.431 34.8236C102.307 34.7442 102.148 34.7893 102.075 34.9306C102.004 35.0699 102.046 35.2489 102.17 35.3296L108.549 39.4595C108.895 39.6836 109.234 39.7966 109.544 39.7966Z" fill="#42E8E0"/>
<path id="Vector_13" d="M107.064 41.3971C107.294 41.3971 107.508 41.3352 107.699 41.2121C108.149 40.9207 108.396 40.3313 108.396 39.5528V37.8277C108.396 37.2658 108.552 36.8567 108.834 36.6737C109.116 36.4914 109.51 36.5445 109.944 36.8265L111.276 37.6891C111.4 37.7678 111.56 37.7227 111.632 37.5821C111.704 37.4428 111.662 37.2638 111.537 37.1831L110.204 36.3205C109.602 35.9316 109.024 35.8778 108.574 36.1678C108.124 36.4591 107.876 37.0485 107.876 37.8277V39.5528C107.876 40.114 107.721 40.5237 107.438 40.7068C107.156 40.8891 106.762 40.8346 106.328 40.554L99.9491 36.4241C99.8255 36.3447 99.6665 36.3898 99.5933 36.5311C99.5219 36.6704 99.5639 36.8493 99.6887 36.9301L106.068 41.06C106.415 41.2841 106.754 41.3971 107.064 41.3971Z" fill="#42E8E0"/>
<path id="Vector_14" d="M104.584 42.9979C104.814 42.9979 105.028 42.936 105.22 42.8128C105.669 42.5208 105.917 41.9314 105.917 41.1529V39.4278C105.917 38.8659 106.072 38.4568 106.354 38.2738C106.636 38.0915 107.029 38.1446 107.464 38.4266L108.797 39.2885C108.921 39.3665 109.081 39.3221 109.153 39.1815C109.224 39.0415 109.182 38.8632 109.057 38.7825L107.725 37.9206C107.122 37.531 106.543 37.4772 106.094 37.7679C105.645 38.0592 105.397 38.6486 105.397 39.4278V41.1529C105.397 41.7148 105.241 42.1238 104.959 42.3069C104.677 42.4912 104.283 42.4354 103.849 42.1548L97.4702 38.0242C97.3472 37.9441 97.1876 37.9906 97.1144 38.1312C97.043 38.2705 97.085 38.4495 97.2098 38.5302L103.588 42.6608C103.935 42.8848 104.273 42.9979 104.584 42.9979Z" fill="#42E8E0"/>
<path id="Vector_15" d="M102.103 44.5973C102.333 44.5973 102.547 44.5361 102.738 44.413C103.188 44.1216 103.435 43.5322 103.435 42.7531V41.0286C103.435 40.4667 103.591 40.0577 103.873 39.8746C104.155 39.691 104.55 39.7461 104.984 40.0267L106.316 40.8893C106.44 40.9673 106.6 40.9223 106.672 40.7823C106.743 40.643 106.701 40.464 106.576 40.3833L105.244 39.5207C104.643 39.1311 104.064 39.0787 103.613 39.3687C103.164 39.6607 102.916 40.2501 102.916 41.0286V42.7531C102.916 43.3149 102.76 43.724 102.478 43.907C102.195 44.0913 101.802 44.0362 101.368 43.7549L94.9898 39.625C94.8668 39.5449 94.7072 39.5907 94.634 39.732C94.5626 39.8713 94.6046 40.0502 94.7294 40.131L101.108 44.2609C101.454 44.4843 101.793 44.5973 102.103 44.5973Z" fill="#42E8E0"/>
<path id="Vector_16" d="M99.621 46.1985C99.8502 46.1985 100.064 46.1373 100.255 46.0142C100.705 45.7228 100.953 45.1334 100.953 44.3542V42.6291C100.953 42.0679 101.108 41.6582 101.391 41.4752C101.673 41.2928 102.067 41.3473 102.501 41.6279L103.834 42.4905C103.958 42.5692 104.117 42.5241 104.189 42.3835C104.261 42.2442 104.219 42.0652 104.094 41.9845L102.761 41.1219C102.16 40.7337 101.581 40.6792 101.131 40.9698C100.681 41.2612 100.433 41.8506 100.433 42.6291V44.3542C100.433 44.9161 100.278 45.3252 99.996 45.5082C99.714 45.6905 99.3198 45.6367 98.886 45.3554L92.5074 41.2255C92.3838 41.1461 92.2248 41.1912 92.1516 41.3325C92.0802 41.4718 92.1222 41.6508 92.247 41.7315L98.6256 45.8614C98.9712 46.0855 99.3102 46.1985 99.621 46.1985Z" fill="#42E8E0"/>
<path id="Vector_17" d="M97.141 47.7992C97.3702 47.7992 97.5838 47.738 97.7752 47.6149C98.2252 47.3235 98.473 46.7341 98.473 45.9549V44.2291C98.473 43.6673 98.6284 43.2582 98.911 43.0752C99.193 42.8935 99.5872 42.946 100.021 43.2279L101.354 44.0905C101.477 44.1692 101.637 44.1235 101.709 43.9835C101.781 43.8442 101.739 43.6653 101.614 43.5845L100.281 42.7219C99.6802 42.3337 99.1012 42.2785 98.6512 42.5692C98.2012 42.8605 97.9534 43.45 97.9534 44.2291V45.9549C97.9534 46.5168 97.798 46.9259 97.516 47.1089C97.234 47.2912 96.8398 47.2381 96.406 46.9561L90.0268 42.8262C89.9032 42.7468 89.7442 42.7926 89.671 42.9332C89.5996 43.0725 89.6416 43.2515 89.7664 43.3322L96.1456 47.4621C96.4912 47.6862 96.8302 47.7992 97.141 47.7992Z" fill="#42E8E0"/>
<path id="Vector_18" d="M94.6605 49.3997C94.8903 49.3997 95.1039 49.3378 95.2959 49.2147C95.7453 48.9227 95.9931 48.3333 95.9931 47.5548V45.8303C95.9931 45.2685 96.1485 44.8594 96.4305 44.6763C96.7125 44.494 97.1067 44.5485 97.5405 44.8291L98.8731 45.691C98.9973 45.769 99.1569 45.724 99.2289 45.584C99.3003 45.4441 99.2583 45.2658 99.1335 45.185L97.8009 44.3231C97.1985 43.9329 96.6195 43.8804 96.1701 44.1704C95.7207 44.4617 95.4729 45.0511 95.4729 45.8303V47.5548C95.4729 48.1166 95.3175 48.5257 95.0355 48.7087C94.7535 48.8931 94.3587 48.8372 93.9249 48.5566L87.5463 44.426C87.4234 44.346 87.2637 44.3924 87.1905 44.533C87.1191 44.6723 87.1612 44.8513 87.286 44.932L93.6645 49.0626C94.0107 49.2867 94.3491 49.3997 94.6605 49.3997Z" fill="#42E8E0"/>
<path id="Vector_19" d="M92.1787 51C92.4079 51 92.6221 50.9381 92.8135 50.815C93.2629 50.523 93.5107 49.9342 93.5107 49.1551V47.4306C93.5107 46.8688 93.6661 46.4597 93.9481 46.2767C94.2301 46.093 94.6255 46.1481 95.0587 46.4287L96.3907 47.2913C96.5149 47.3693 96.6745 47.3249 96.7465 47.1843C96.8179 47.045 96.7759 46.8661 96.6511 46.7853L95.3191 45.9227C94.7173 45.5332 94.1395 45.48 93.6877 45.7713C93.2383 46.0634 92.9905 46.6521 92.9905 47.4312V49.1557C92.9905 49.7176 92.8351 50.1267 92.5525 50.3097C92.2705 50.4934 91.8763 50.4382 91.4425 50.1576L85.0639 46.027C84.9409 45.9476 84.7813 45.9927 84.7081 46.134C84.6367 46.2733 84.6787 46.4523 84.8035 46.533L91.1821 50.6636C91.5289 50.887 91.8673 51 92.1787 51Z" fill="#42E8E0"/>
<path id="Vector_20" d="M89.6986 52.6007C89.9278 52.6007 90.1414 52.5395 90.3328 52.4157C90.7828 52.1244 91.0306 51.5349 91.0306 50.7558V49.0313C91.0306 48.4695 91.186 48.0597 91.4686 47.8767C91.7506 47.6944 92.1454 47.7488 92.5786 48.0294L93.9112 48.892C94.0354 48.9707 94.1944 48.925 94.267 48.785C94.3384 48.6457 94.2964 48.4668 94.1716 48.386L92.839 47.5234C92.2378 47.1345 91.6582 47.0814 91.2082 47.3714C90.7588 47.6627 90.511 48.2521 90.511 49.0313V50.7558C90.511 51.3176 90.3556 51.7267 90.073 51.9097C89.791 52.0921 89.3962 52.0382 88.963 51.757L82.5838 47.6271C82.4608 47.5477 82.3006 47.5934 82.228 47.734C82.1566 47.8733 82.1986 48.0523 82.3234 48.133L88.7026 52.263C89.0488 52.4877 89.3872 52.6007 89.6986 52.6007Z" fill="#42E8E0"/>
<path id="Vector_21" d="M87.2162 54.2008C87.4454 54.2008 87.659 54.1396 87.8504 54.0165C88.3004 53.7251 88.5482 53.1357 88.5482 52.3565V50.6314C88.5482 50.0696 88.7036 49.6605 88.9862 49.4774C89.2682 49.2951 89.6624 49.3489 90.0962 49.6302L91.4288 50.4928C91.5524 50.5715 91.712 50.5264 91.7846 50.3858C91.856 50.2465 91.814 50.0675 91.6892 49.9868L90.3566 49.1242C89.7542 48.7346 89.1758 48.6808 88.7258 48.9715C88.2764 49.2628 88.0286 49.8522 88.0286 50.6314V52.3565C88.0286 52.9184 87.8732 53.3275 87.5912 53.5105C87.3092 53.6928 86.915 53.6397 86.4812 53.3577L80.102 49.2278C79.9784 49.1484 79.8194 49.1935 79.7462 49.3348C79.6748 49.4741 79.7168 49.6531 79.8416 49.7338L86.2208 53.8637C86.5664 54.0878 86.9054 54.2008 87.2162 54.2008Z" fill="#42E8E0"/>
<path id="Vector_22" d="M84.7368 55.8016C84.9666 55.8016 85.1802 55.7397 85.3716 55.6166C85.8216 55.3253 86.0688 54.7359 86.0688 53.9567V52.2315C86.0688 51.6697 86.2242 51.2606 86.5062 51.0776C86.7882 50.8953 87.1824 50.9484 87.6168 51.2303L88.9488 52.0923C89.0724 52.1703 89.232 52.1259 89.3046 51.9853C89.376 51.846 89.334 51.667 89.2092 51.5863L87.8772 50.7244C87.276 50.3361 86.6964 50.281 86.2464 50.5716C85.7964 50.8636 85.5486 51.4531 85.5486 52.2315V53.9567C85.5486 54.5185 85.3932 54.9283 85.1118 55.1113C84.8286 55.293 84.4356 55.2392 84.0012 54.9586L77.6226 50.8287C77.4996 50.7493 77.34 50.795 77.2668 50.9356C77.1954 51.0749 77.2374 51.2539 77.3622 51.3346L83.7408 55.4646C84.0864 55.6886 84.4254 55.8016 84.7368 55.8016Z" fill="#42E8E0"/>
<path id="Vector_23" d="M82.2533 57.4023C82.4825 57.4023 82.6967 57.3404 82.8881 57.2173C83.3375 56.9253 83.5853 56.3359 83.5853 55.5574V53.8322C83.5853 53.2704 83.7407 52.8613 84.0233 52.6783C84.3053 52.4933 84.6995 52.5491 85.1333 52.8297L86.4659 53.6923C86.5901 53.771 86.7497 53.7252 86.8217 53.5853C86.8931 53.446 86.8511 53.267 86.7263 53.1863L85.3937 52.3237C84.7919 51.9341 84.2129 51.8816 83.7635 52.1716C83.3135 52.4636 83.0657 53.0531 83.0657 53.8315V55.5567C83.0657 56.1185 82.9103 56.5276 82.6277 56.7106C82.3457 56.8943 81.9509 56.8392 81.5177 56.5586L75.1391 52.428C75.0161 52.3486 74.8565 52.3937 74.7833 52.535C74.7119 52.6743 74.7539 52.8532 74.8787 52.934L81.2573 57.0646C81.6035 57.2893 81.9419 57.4023 82.2533 57.4023Z" fill="#42E8E0"/>
<path id="Vector_24" d="M79.773 59.0019C80.0022 59.0019 80.2158 58.9406 80.4072 58.8175C80.8572 58.5262 81.105 57.9368 81.105 57.1576V55.4331C81.105 54.8713 81.2604 54.4622 81.5424 54.2792C81.8238 54.0948 82.2186 54.15 82.6524 54.4312L83.985 55.2938C84.1092 55.3726 84.2681 55.3275 84.3407 55.1869C84.4121 55.0476 84.3702 54.8686 84.2454 54.7879L82.9127 53.9253C82.3104 53.535 81.7325 53.4825 81.2825 53.7732C80.8325 54.0652 80.5848 54.6546 80.5848 55.4331V57.1576C80.5848 57.7194 80.4293 58.1285 80.1473 58.3115C79.8659 58.4939 79.4712 58.44 79.0374 58.1588L72.6582 54.0289C72.5352 53.9495 72.3756 53.9946 72.3024 54.1359C72.231 54.2751 72.273 54.4541 72.3978 54.5349L78.777 58.6648C79.1232 58.8888 79.4616 59.0019 79.773 59.0019Z" fill="#42E8E0"/>
<path id="Vector_25" d="M77.2929 60.6031C77.5221 60.6031 77.7357 60.5418 77.9271 60.4187C78.3771 60.1267 78.6249 59.5373 78.6249 58.7588V57.0336C78.6249 56.4718 78.7803 56.0627 79.0629 55.8797C79.3449 55.6967 79.7391 55.7512 80.1729 56.0325L81.5055 56.895C81.6291 56.9738 81.7887 56.928 81.8613 56.7881C81.9327 56.6488 81.8907 56.4698 81.7659 56.3891L80.4333 55.5265C79.8309 55.1362 79.2525 55.0837 78.8025 55.3737C78.3531 55.6651 78.1053 56.2545 78.1053 57.0336V58.7588C78.1053 59.3206 77.9499 59.7297 77.6679 59.9127C77.3865 60.0944 76.9923 60.0419 76.5573 59.76L70.1787 55.6301C70.0551 55.5507 69.8961 55.5965 69.8229 55.7371C69.7515 55.8764 69.7935 56.0553 69.9183 56.1361L76.2969 60.266C76.6425 60.49 76.9821 60.6031 77.2929 60.6031Z" fill="#42E8E0"/>
<path id="Vector_26" d="M74.811 62.2036C75.0408 62.2036 75.2544 62.1417 75.4458 62.0186C75.8958 61.7272 76.143 61.1378 76.143 60.3593V58.6342C76.143 58.0723 76.2984 57.6633 76.5804 57.4802C76.8618 57.2979 77.2566 57.3511 77.691 57.633L79.023 58.4956C79.1466 58.5743 79.3062 58.5292 79.3788 58.3886C79.4502 58.2493 79.4082 58.0703 79.2834 57.9896L77.9514 57.127C77.3496 56.7381 76.7706 56.6843 76.3206 56.9749C75.8706 57.2663 75.6228 57.8557 75.6228 58.6348V60.36C75.6228 60.9212 75.4674 61.3309 75.1854 61.5139C74.9046 61.6963 74.5092 61.6425 74.0748 61.3619L67.6962 57.232C67.5732 57.1526 67.4137 57.1976 67.3405 57.3389C67.2691 57.4782 67.3111 57.6572 67.4359 57.7379L73.8144 61.8679C74.1618 62.0906 74.5008 62.2036 74.811 62.2036Z" fill="#42E8E0"/>
<path id="Vector_27" d="M72.3295 63.8043C72.5593 63.8043 72.7729 63.7424 72.9643 63.6193C73.4143 63.3273 73.6621 62.7379 73.6621 61.9594V60.2349C73.6621 59.6731 73.8175 59.264 74.0995 59.081C74.3815 58.8986 74.7757 58.9518 75.2095 59.2337L76.5421 60.0956C76.6663 60.1743 76.8265 60.1292 76.8979 59.9886C76.9693 59.8487 76.9273 59.6704 76.8025 59.5896L75.4699 58.7277C74.8681 58.3388 74.2897 58.285 73.8397 58.575C73.3897 58.8663 73.1419 59.4557 73.1419 60.2349V61.9594C73.1419 62.5212 72.9865 62.9303 72.7045 63.1133C72.4231 63.297 72.0283 63.2418 71.5945 62.9612L65.2153 58.8307C65.0923 58.7513 64.9321 58.7963 64.8595 58.9376C64.7881 59.0769 64.8301 59.2559 64.9549 59.3366L71.3341 63.4672C71.6803 63.6913 72.0187 63.8043 72.3295 63.8043Z" fill="#42E8E0"/>
<path id="Vector_28" d="M69.8486 65.4037C70.0778 65.4037 70.2914 65.3425 70.4828 65.2194C70.9328 64.928 71.1806 64.3386 71.1806 63.5595V61.835C71.1806 61.2732 71.336 60.8641 71.618 60.681C71.9 60.4967 72.2942 60.5519 72.728 60.8331L74.0606 61.6957C74.1848 61.7744 74.3438 61.7287 74.4164 61.5887C74.4878 61.4494 74.4458 61.2704 74.321 61.1897L72.9884 60.3271C72.386 59.9369 71.8076 59.8844 71.3582 60.1751C70.9082 60.4671 70.6605 61.0558 70.6605 61.835V63.5595C70.6605 64.1213 70.505 64.5304 70.2231 64.7134C69.9411 64.8957 69.5462 64.8426 69.113 64.5607L62.7339 60.4307C62.6109 60.3514 62.4513 60.3971 62.3781 60.5377C62.3067 60.677 62.3487 60.856 62.4735 60.9367L68.8527 65.0666C69.1989 65.2914 69.5372 65.4037 69.8486 65.4037Z" fill="#42E8E0"/>
<path id="Vector_29" d="M67.369 67.0047C67.5982 67.0047 67.8119 66.9435 68.0033 66.8204C68.4532 66.5284 68.701 65.9389 68.701 65.1605V63.4353C68.701 62.8735 68.8564 62.4644 69.139 62.2814C69.4216 62.0997 69.8146 62.1535 70.249 62.4341L71.5816 63.2967C71.7052 63.3754 71.8648 63.3303 71.9374 63.1897C72.0088 63.0504 71.9668 62.8715 71.842 62.7907L70.5094 61.9281C69.907 61.5379 69.3286 61.4847 68.8786 61.7754C68.4292 62.0667 68.1814 62.6561 68.1814 63.4353V65.1605C68.1814 65.7223 68.026 66.1314 67.744 66.3144C67.462 66.4967 67.0678 66.4436 66.6334 66.1617L60.2549 62.0317C60.1313 61.9523 59.9723 61.9974 59.8991 62.1387C59.8277 62.278 59.8696 62.457 59.9944 62.5377L66.373 66.6676C66.7186 66.8917 67.0582 67.0047 67.369 67.0047Z" fill="#42E8E0"/>
</g>
<g id="Group_10">
<path id="Vector_30" d="M124.673 36.7267C124.984 36.7267 125.323 36.6136 125.669 36.3896L132.048 32.259C132.173 32.1782 132.215 31.9993 132.143 31.86C132.071 31.7194 131.912 31.6736 131.788 31.753L125.408 35.8836C124.975 36.1642 124.58 36.2193 124.298 36.0356C124.016 35.8533 123.86 35.4435 123.86 34.8817V33.1565C123.86 32.3781 123.613 31.7886 123.163 31.4966C122.714 31.2053 122.135 31.2584 121.532 31.6487L120.2 32.5113C120.075 32.592 120.033 32.771 120.105 32.9103C120.177 33.0509 120.337 33.096 120.46 33.0173L121.793 32.1547C122.227 31.8734 122.622 31.8189 122.903 32.0026C123.186 32.185 123.34 32.5947 123.34 33.1565V34.8817C123.34 35.6602 123.588 36.2496 124.038 36.5416C124.23 36.6654 124.444 36.7267 124.673 36.7267Z" fill="#42E8E0"/>
<path id="Vector_31" d="M127.154 38.3264C127.465 38.3264 127.804 38.2133 128.15 37.9893L134.529 33.8594C134.654 33.7786 134.696 33.5997 134.624 33.4604C134.552 33.3197 134.392 33.274 134.269 33.3534L127.889 37.4833C127.456 37.7652 127.061 37.8177 126.779 37.636C126.497 37.4537 126.342 37.0439 126.342 36.4821V34.7576C126.342 33.9791 126.094 33.3897 125.644 33.0977C125.195 32.8064 124.616 32.8595 124.014 33.2498L122.681 34.1124C122.557 34.1931 122.515 34.3721 122.586 34.5114C122.659 34.652 122.818 34.6971 122.942 34.6183L124.274 33.7557C124.709 33.4745 125.103 33.4193 125.384 33.6037C125.667 33.786 125.822 34.1958 125.822 34.7576V36.4821C125.822 37.2613 126.07 37.8507 126.52 38.142C126.711 38.2658 126.925 38.3264 127.154 38.3264Z" fill="#42E8E0"/>
<path id="Vector_32" d="M129.634 39.927C129.945 39.927 130.284 39.8139 130.63 39.5899L137.009 35.4599C137.134 35.3792 137.176 35.2002 137.104 35.0609C137.032 34.9203 136.872 34.8746 136.749 34.954L130.37 39.0839C129.935 39.3658 129.541 39.419 129.259 39.2366C128.977 39.0543 128.821 38.6445 128.821 38.0827V36.3575C128.821 35.5784 128.574 34.989 128.124 34.6976C127.674 34.4063 127.095 34.4614 126.493 34.8503L125.161 35.7129C125.036 35.7937 124.994 35.9727 125.065 36.1119C125.138 36.2526 125.298 36.2976 125.421 36.2189L126.754 35.3563C127.188 35.0751 127.581 35.0212 127.864 35.2043C128.146 35.3866 128.301 35.7964 128.301 36.3582V38.0834C128.301 38.8618 128.549 39.4513 128.999 39.7433C129.19 39.8657 129.405 39.927 129.634 39.927Z" fill="#42E8E0"/>
<path id="Vector_33" d="M132.116 41.5279C132.427 41.5279 132.766 41.4149 133.112 41.1908L139.49 37.0609C139.615 36.9802 139.657 36.8012 139.586 36.6619C139.513 36.5206 139.354 36.4756 139.23 36.5549L132.851 40.6849C132.418 40.9654 132.023 41.0193 131.741 40.8369C131.459 40.6546 131.303 40.2442 131.303 39.683V37.9578C131.303 37.1793 131.056 36.5899 130.606 36.2979C130.157 36.0066 129.577 36.0611 128.975 36.4507L127.643 37.3132C127.518 37.394 127.476 37.573 127.547 37.7122C127.62 37.8529 127.78 37.8979 127.903 37.8192L129.235 36.9566C129.67 36.6747 130.064 36.6222 130.346 36.8039C130.628 36.9862 130.783 37.396 130.783 37.9578V39.683C130.783 40.4615 131.03 41.0509 131.48 41.3422C131.672 41.466 131.886 41.5279 132.116 41.5279Z" fill="#42E8E0"/>
<path id="Vector_34" d="M134.597 43.1283C134.908 43.1283 135.246 43.0153 135.592 42.7912L141.971 38.6607C142.096 38.5799 142.138 38.4009 142.067 38.2617C141.994 38.121 141.835 38.0753 141.711 38.1547L135.332 42.2853C134.897 42.5658 134.503 42.6203 134.222 42.4373C133.939 42.255 133.784 41.8452 133.784 41.2834V39.5589C133.784 38.7797 133.537 38.1903 133.087 37.899C132.636 37.6077 132.058 37.6622 131.456 38.0517L130.124 38.9136C129.999 38.9944 129.957 39.1727 130.028 39.3126C130.1 39.4533 130.261 39.4983 130.384 39.4196L131.717 38.5577C132.151 38.2765 132.545 38.2226 132.827 38.405C133.109 38.5873 133.264 38.9971 133.264 39.5589V41.2834C133.264 42.0619 133.512 42.6513 133.962 42.9433C134.153 43.0664 134.367 43.1283 134.597 43.1283Z" fill="#42E8E0"/>
<path id="Vector_35" d="M137.078 44.7285C137.389 44.7285 137.728 44.6155 138.074 44.3914L144.453 40.2615C144.578 40.1807 144.62 40.0018 144.548 39.8625C144.476 39.7219 144.316 39.6761 144.192 39.7555L137.814 43.8854C137.379 44.1667 136.985 44.2205 136.703 44.0381C136.421 43.8558 136.266 43.446 136.266 42.8842V41.1591C136.266 40.3806 136.018 39.7912 135.569 39.4991C135.118 39.2078 134.539 39.2623 133.938 39.6512L132.605 40.5138C132.48 40.5945 132.438 40.7735 132.51 40.9128C132.582 41.0534 132.742 41.0985 132.866 41.0198L134.198 40.1572C134.632 39.8766 135.026 39.8214 135.308 40.0051C135.591 40.1875 135.746 40.5972 135.746 41.1591V42.8842C135.746 43.6627 135.993 44.2521 136.443 44.5441C136.634 44.6673 136.848 44.7285 137.078 44.7285Z" fill="#42E8E0"/>
<path id="Vector_36" d="M139.559 46.3295C139.87 46.3295 140.209 46.2165 140.555 45.9924L146.933 41.8625C147.058 41.7818 147.1 41.6028 147.029 41.4635C146.956 41.3222 146.797 41.2771 146.673 41.3565L140.294 45.4864C139.861 45.7677 139.467 45.8222 139.184 45.6392C138.902 45.4568 138.746 45.0471 138.746 44.4852V42.7601C138.746 41.9816 138.499 41.3922 138.049 41.1002C137.6 40.8088 137.02 40.8633 136.418 41.2529L135.086 42.1155C134.961 42.1962 134.919 42.3752 134.99 42.5145C135.063 42.6551 135.223 42.7002 135.346 42.6215L136.678 41.7589C137.113 41.477 137.507 41.4245 137.789 41.6061C138.071 41.7885 138.227 42.1982 138.227 42.7601V44.4852C138.227 45.2644 138.475 45.8538 138.924 46.1452C139.115 46.2683 139.329 46.3295 139.559 46.3295Z" fill="#42E8E0"/>
<path id="Vector_37" d="M142.04 47.9306C142.352 47.9306 142.69 47.8175 143.036 47.5935L149.415 43.4636C149.54 43.3828 149.582 43.2039 149.51 43.0646C149.437 42.924 149.279 42.8782 149.154 42.9576L142.776 47.0875C142.342 47.3681 141.948 47.4219 141.666 47.2403C141.383 47.0579 141.228 46.6475 141.228 46.0863V44.3611C141.228 43.582 140.98 42.9926 140.53 42.7012C140.079 42.4099 139.502 42.4644 138.9 42.854L137.567 43.7166C137.442 43.7973 137.4 43.9763 137.472 44.1156C137.544 44.2562 137.704 44.3013 137.828 44.2225L139.16 43.36C139.594 43.078 139.988 43.0249 140.27 43.2072C140.553 43.3896 140.708 43.7993 140.708 44.3611V46.0863C140.708 46.8648 140.956 47.4542 141.405 47.7456C141.597 47.8687 141.811 47.9306 142.04 47.9306Z" fill="#42E8E0"/>
<path id="Vector_38" d="M144.521 49.5309C144.832 49.5309 145.17 49.4179 145.517 49.1938L151.896 45.0632C152.021 44.9825 152.063 44.8035 151.991 44.6642C151.919 44.5236 151.76 44.4779 151.635 44.5573L145.256 48.6878C144.822 48.9684 144.428 49.0229 144.146 48.8399C143.864 48.6576 143.709 48.2478 143.709 47.686V45.9608C143.709 45.1816 143.461 44.5922 143.011 44.3009C142.56 44.0089 141.982 44.0641 141.381 44.4536L140.048 45.3155C139.923 45.3963 139.881 45.5746 139.953 45.7145C140.024 45.8552 140.186 45.9002 140.309 45.8215L141.641 44.9596C142.075 44.6784 142.469 44.6245 142.751 44.8069C143.034 44.9892 143.189 45.399 143.189 45.9608V47.686C143.189 48.4645 143.437 49.0539 143.887 49.3459C144.078 49.469 144.291 49.5309 144.521 49.5309Z" fill="#42E8E0"/>
<path id="Vector_39" d="M147.002 51.1308C147.313 51.1308 147.652 51.0178 147.999 50.7937L154.377 46.6638C154.502 46.583 154.544 46.4041 154.473 46.2648C154.4 46.1242 154.24 46.0784 154.117 46.1578L147.738 50.2877C147.304 50.569 146.91 50.6228 146.628 50.4398C146.345 50.2575 146.19 49.8477 146.19 49.2859V47.5614C146.19 46.7829 145.942 46.1935 145.493 45.9015C145.042 45.6094 144.464 45.6633 143.862 46.0535L142.53 46.9161C142.405 46.9968 142.363 47.1758 142.434 47.3151C142.507 47.4557 142.666 47.5008 142.79 47.4221L144.123 46.5595C144.556 46.2789 144.951 46.2237 145.233 46.4081C145.515 46.5904 145.67 47.0002 145.67 47.562V49.2865C145.67 50.065 145.918 50.6544 146.368 50.9464C146.559 51.0696 146.773 51.1308 147.002 51.1308Z" fill="#42E8E0"/>
<path id="Vector_40" d="M149.483 52.7312C149.794 52.7312 150.133 52.6182 150.479 52.3941L156.858 48.2642C156.982 48.1835 157.024 48.0045 156.953 47.8652C156.88 47.7246 156.72 47.6788 156.597 47.7582L150.219 51.8881C149.785 52.1694 149.391 52.2232 149.109 52.0409C148.826 51.8585 148.671 51.4488 148.671 50.8869V49.1618C148.671 48.3833 148.423 47.7939 147.973 47.5025C147.523 47.2105 146.943 47.2643 146.342 47.6546L145.01 48.5172C144.885 48.5979 144.843 48.7769 144.915 48.9162C144.987 49.0568 145.147 49.1019 145.27 49.0232L146.602 48.1606C147.037 47.88 147.43 47.8262 147.714 48.0078C147.996 48.1902 148.151 48.6006 148.151 49.1618V50.8869C148.151 51.6661 148.399 52.2555 148.848 52.5469C149.039 52.67 149.253 52.7312 149.483 52.7312Z" fill="#42E8E0"/>
<path id="Vector_41" d="M151.964 54.3319C152.275 54.3319 152.614 54.2189 152.96 53.9948L159.339 49.8649C159.464 49.7841 159.506 49.6052 159.435 49.4659C159.362 49.3253 159.202 49.2795 159.079 49.3589L152.7 53.4888C152.266 53.7694 151.872 53.8232 151.59 53.6416C151.307 53.4592 151.152 53.0488 151.152 52.4876V50.7618C151.152 49.9826 150.904 49.3932 150.454 49.1019C150.003 48.8105 149.425 48.865 148.824 49.2546L147.491 50.1172C147.366 50.1979 147.324 50.3769 147.396 50.5162C147.468 50.6568 147.628 50.7019 147.751 50.6232L149.084 49.7606C149.518 49.4787 149.912 49.4255 150.194 49.6079C150.477 49.7902 150.632 50.2 150.632 50.7618V52.4876C150.632 53.2661 150.88 53.8555 151.329 54.1469C151.521 54.27 151.735 54.3319 151.964 54.3319Z" fill="#42E8E0"/>
<path id="Vector_42" d="M154.445 55.9324C154.756 55.9324 155.094 55.8194 155.44 55.5954L161.82 51.4648C161.944 51.384 161.986 51.205 161.915 51.0658C161.842 50.9251 161.683 50.8794 161.559 50.9588L155.18 55.0894C154.746 55.37 154.352 55.4251 154.07 55.2414C153.787 55.0591 153.632 54.6493 153.632 54.0875V52.3623C153.632 51.5832 153.384 50.9938 152.935 50.7024C152.485 50.4111 151.906 50.4649 151.304 50.8552L149.971 51.7171C149.847 51.7978 149.805 51.9761 149.876 52.1161C149.947 52.2567 150.109 52.3018 150.232 52.2231L151.564 51.3611C151.998 51.0799 152.392 51.0261 152.674 51.2084C152.957 51.3907 153.112 51.8005 153.112 52.3623V54.0875C153.112 54.866 153.36 55.4554 153.81 55.7474C154.002 55.8712 154.215 55.9324 154.445 55.9324Z" fill="#42E8E0"/>
<path id="Vector_43" d="M156.926 57.5325C157.238 57.5325 157.576 57.4195 157.922 57.1954L164.301 53.0655C164.426 52.9847 164.468 52.8058 164.396 52.6665C164.324 52.5259 164.164 52.4801 164.041 52.5595L157.662 56.6894C157.227 56.9713 156.834 57.0232 156.552 56.8422C156.269 56.6598 156.115 56.2501 156.115 55.6882V53.9637C156.115 53.1853 155.867 52.5958 155.417 52.3038C154.966 52.0125 154.388 52.067 153.786 52.4559L152.454 53.3185C152.329 53.3992 152.287 53.5782 152.359 53.7175C152.432 53.8581 152.591 53.9032 152.714 53.8245L154.046 52.9619C154.48 52.6813 154.875 52.6261 155.157 52.8098C155.44 52.9922 155.594 53.4019 155.594 53.9637V55.6882C155.594 56.4674 155.842 57.0568 156.292 57.3481C156.483 57.4719 156.697 57.5325 156.926 57.5325Z" fill="#42E8E0"/>
<path id="Vector_44" d="M159.407 59.1326C159.718 59.1326 160.057 59.0196 160.403 58.7955L166.781 54.6656C166.906 54.5849 166.948 54.4059 166.877 54.2666C166.804 54.1253 166.644 54.0802 166.521 54.1596L160.142 58.2895C159.709 58.5715 159.314 58.6246 159.032 58.4423C158.75 58.2599 158.595 57.8502 158.595 57.2884V55.5632C158.595 54.7847 158.347 54.1953 157.898 53.9039C157.447 53.6126 156.868 53.6664 156.267 54.0553L154.935 54.9179C154.81 54.9987 154.768 55.1776 154.839 55.3169C154.912 55.4575 155.071 55.5026 155.195 55.4239L156.527 54.5613C156.961 54.2807 157.356 54.2269 157.637 54.4086C157.92 54.5909 158.075 55.0014 158.075 55.5625V57.2877C158.075 58.0668 158.323 58.6562 158.773 58.9476C158.963 59.0714 159.178 59.1326 159.407 59.1326Z" fill="#42E8E0"/>
<path id="Vector_45" d="M161.888 60.7334C162.199 60.7334 162.538 60.6203 162.884 60.3963L169.263 56.2664C169.388 56.1856 169.43 56.0066 169.358 55.8674C169.286 55.7267 169.126 55.6817 169.003 55.7604L162.623 59.8903C162.19 60.1722 161.795 60.2247 161.513 60.043C161.231 59.8607 161.076 59.4509 161.076 58.8891V57.1639C161.076 56.3848 160.828 55.7954 160.378 55.504C159.928 55.212 159.349 55.2672 158.748 55.6568L157.415 56.5193C157.291 56.6001 157.249 56.7791 157.32 56.9183C157.393 57.059 157.552 57.104 157.676 57.0253L159.008 56.1627C159.442 55.8808 159.837 55.8277 160.118 56.01C160.401 56.1923 160.556 56.6021 160.556 57.1639V58.8891C160.556 59.6683 160.804 60.2577 161.254 60.549C161.445 60.6721 161.659 60.7334 161.888 60.7334Z" fill="#42E8E0"/>
<path id="Vector_46" d="M164.369 62.3338C164.681 62.3338 165.019 62.2207 165.365 61.9967L171.744 57.8661C171.869 57.7853 171.911 57.6064 171.839 57.4671C171.767 57.3265 171.607 57.2807 171.483 57.3601L165.105 61.4907C164.672 61.7713 164.276 61.8264 163.994 61.6428C163.712 61.4604 163.557 61.0507 163.557 60.4888V58.7637C163.557 57.9845 163.309 57.3951 162.86 57.1038C162.41 56.8131 161.831 56.8662 161.229 57.2565L159.896 58.1184C159.772 58.1991 159.73 58.3774 159.801 58.5174C159.873 58.658 160.034 58.7031 160.157 58.6244L161.489 57.7625C161.923 57.4812 162.317 57.4267 162.599 57.6097C162.882 57.7921 163.037 58.2018 163.037 58.7637V60.4888C163.037 61.2673 163.284 61.8567 163.734 62.1487C163.926 62.2719 164.139 62.3338 164.369 62.3338Z" fill="#42E8E0"/>
<path id="Vector_47" d="M166.85 63.9351C167.162 63.9351 167.5 63.8221 167.846 63.5981L174.225 59.4675C174.35 59.3867 174.392 59.2077 174.32 59.0685C174.248 58.9272 174.088 58.8821 173.964 58.9615L167.586 63.0921C167.152 63.3727 166.757 63.4285 166.476 63.2441C166.193 63.0618 166.038 62.652 166.038 62.0902V60.365C166.038 59.5866 165.791 58.9971 165.341 58.7051C164.89 58.4138 164.312 58.4669 163.71 58.8572L162.378 59.7198C162.253 59.8005 162.211 59.9795 162.282 60.1188C162.356 60.2594 162.515 60.3045 162.638 60.2258L163.97 59.3632C164.403 59.0826 164.799 59.0274 165.081 59.2111C165.363 59.3934 165.518 59.8032 165.518 60.365V62.0902C165.518 62.8687 165.766 63.4581 166.215 63.7501C166.407 63.8732 166.621 63.9351 166.85 63.9351Z" fill="#42E8E0"/>
<path id="Vector_48" d="M169.33 65.5352C169.642 65.5352 169.98 65.4221 170.326 65.1981L176.705 61.0682C176.83 60.9874 176.872 60.8085 176.801 60.6692C176.728 60.5286 176.569 60.4828 176.445 60.5622L170.066 64.6921C169.633 64.974 169.237 65.0265 168.956 64.8448C168.673 64.6625 168.518 64.2527 168.518 63.6909V61.9664C168.518 61.1873 168.271 60.5979 167.821 60.3065C167.371 60.0152 166.792 60.0697 166.19 60.4586L164.858 61.3212C164.733 61.4019 164.691 61.5809 164.762 61.7202C164.835 61.8608 164.995 61.9059 165.118 61.8271L166.451 60.9646C166.884 60.684 167.279 60.6295 167.561 60.8118C167.843 60.9942 167.998 61.4046 167.998 61.9664V63.6909C167.998 64.4701 168.246 65.0595 168.696 65.3508C168.887 65.474 169.101 65.5352 169.33 65.5352Z" fill="#42E8E0"/>
<path id="Vector_49" d="M171.812 67.1355C172.123 67.1355 172.461 67.0224 172.808 66.7984L179.187 62.6685C179.312 62.5877 179.354 62.4087 179.282 62.2695C179.21 62.1288 179.049 62.0837 178.926 62.1625L172.547 66.2924C172.113 66.5743 171.719 66.6275 171.437 66.4451C171.155 66.2628 171 65.853 171 65.2912V63.566C171 62.7869 170.752 62.1975 170.302 61.9061C169.852 61.6148 169.273 61.6699 168.672 62.0588L167.339 62.9214C167.214 63.0022 167.172 63.1812 167.244 63.3204C167.316 63.4611 167.476 63.5068 167.6 63.4274L168.932 62.5648C169.365 62.2829 169.76 62.2298 170.042 62.4128C170.325 62.5951 170.48 63.0049 170.48 63.5667V65.2919C170.48 66.071 170.727 66.6604 171.177 66.9518C171.369 67.0742 171.583 67.1355 171.812 67.1355Z" fill="#42E8E0"/>
</g>
<g id="Group_11">
<g id="Group_12">
<path id="Vector_50" d="M168.627 63.7936V70.1452L119.612 101.881L70.5942 70.1446V63.7922L168.627 63.7936Z" fill="url(#paint3_linear_1151_2716)"/>
<path id="Vector_51" d="M119.612 95.5283L70.5942 63.7923L119.61 32.0576L168.627 63.7937L119.612 95.5283Z" fill="#BCBEFF"/>
<path id="Vector_52" d="M119.612 94.786L71.1672 63.4214L70.5942 63.7921L119.612 95.5282L168.627 63.7935L168.054 63.4221L119.612 94.786Z" fill="white"/>
</g>
<g id="Group_13">
<path id="Vector_53" d="M119.612 88.2084L81.9108 63.7996L119.611 39.3909L157.312 63.8003L119.612 88.2084Z" fill="#0F054C"/>
<g id="Group_14">
<path id="Vector_54" opacity="0.5" d="M119.613 88.2103L81.9111 63.8001L119.611 39.3914L157.313 63.8008L119.613 88.2103Z" fill="url(#paint4_linear_1151_2716)"/>
<g id="Group_15">
<path id="Vector_55" opacity="0.5" d="M119.611 33.2358L157.313 57.6453V63.8004L119.611 39.3903V33.2358Z" fill="url(#paint5_linear_1151_2716)"/>
<path id="Vector_56" opacity="0.5" d="M119.613 39.3903L81.9113 63.7998V57.6446L119.612 33.2358L119.613 39.3903Z" fill="url(#paint6_linear_1151_2716)"/>
<path id="Vector_57" opacity="0.5" d="M119.613 82.0547L81.9111 57.6446L119.611 33.2358L157.313 57.6453L119.613 82.0547Z" fill="url(#paint7_linear_1151_2716)"/>
<path id="Vector_58" opacity="0.5" d="M119.613 67.3999L104.548 57.6464L119.612 47.8928L134.677 57.6464L119.613 67.3999Z" fill="#42E8E0"/>
<path id="Vector_59" opacity="0.5" d="M119.612 48.7904L133.984 58.0952L134.677 57.6464L119.612 47.8928L104.548 57.6464L105.241 58.0952L119.612 48.7904Z" fill="#42E8E0"/>
<path id="Vector_60" opacity="0.5" d="M119.613 82.0552V88.2097L157.313 63.8009V57.6458L119.613 82.0552Z" fill="url(#paint8_linear_1151_2716)"/>
</g>
<path id="Vector_61" opacity="0.5" d="M81.9113 57.6448V63.8L119.613 88.2094V82.0549L81.9113 57.6448Z" fill="url(#paint9_linear_1151_2716)"/>
</g>
<path id="Vector_62" opacity="0.8" d="M119.613 81.3823L82.4295 57.3086L81.9111 57.6443L119.613 82.0544L157.313 57.645L156.794 57.3093L119.613 81.3823Z" fill="#42E8E0"/>
</g>
</g>
<g id="Group_16">
<path id="Vector_63" d="M131.919 109.54C132.009 109.54 132.096 109.488 132.145 109.394C132.216 109.255 132.174 109.076 132.05 108.995L125.67 104.865C124.674 104.22 123.863 102.645 123.863 101.354V99.6298C123.863 98.128 122.954 96.3638 121.795 95.6122L120.462 94.7503C120.34 94.6702 120.179 94.7166 120.107 94.8573C120.035 94.9972 120.077 95.1755 120.202 95.2563L121.535 96.1182C122.531 96.7634 123.342 98.3392 123.342 99.6298V101.354C123.342 102.855 124.251 104.62 125.41 105.371L131.789 109.501C131.831 109.528 131.875 109.54 131.919 109.54Z" fill="#42E8E0"/>
<path id="Vector_64" d="M134.399 107.937C134.488 107.937 134.576 107.885 134.624 107.791C134.696 107.652 134.654 107.473 134.529 107.392L128.15 103.262C127.153 102.617 126.342 101.042 126.342 99.7514V98.0255C126.342 96.5251 125.434 94.7602 124.274 94.0086L122.942 93.1467C122.819 93.0673 122.658 93.1131 122.586 93.2537C122.515 93.3936 122.557 93.572 122.681 93.6527L124.014 94.5146C125.011 95.1599 125.822 96.735 125.822 98.0255V99.7514C125.822 101.252 126.73 103.017 127.889 103.768L134.269 107.898C134.31 107.925 134.354 107.937 134.399 107.937Z" fill="#42E8E0"/>
<path id="Vector_65" d="M136.879 106.335C136.968 106.335 137.056 106.283 137.104 106.189C137.176 106.049 137.134 105.87 137.009 105.79L130.63 101.66C129.633 101.015 128.822 99.44 128.822 98.1489V96.4237C128.822 94.9219 127.914 93.1577 126.754 92.4068L125.422 91.5442C125.299 91.4642 125.139 91.5106 125.066 91.6512C124.995 91.7905 125.037 91.9695 125.161 92.0502L126.494 92.9128C127.491 93.5581 128.302 95.1332 128.302 96.4237V98.1489C128.302 99.6506 129.21 101.415 130.37 102.166L136.749 106.296C136.789 106.322 136.834 106.335 136.879 106.335Z" fill="#42E8E0"/>
<path id="Vector_66" d="M139.36 104.731C139.45 104.731 139.537 104.679 139.586 104.585C139.657 104.446 139.615 104.267 139.49 104.186L133.112 100.056C132.115 99.4114 131.304 97.8362 131.304 96.545V94.8199C131.304 93.3181 130.396 91.5546 129.236 90.803L127.904 89.9404C127.781 89.861 127.621 89.9068 127.548 90.0474C127.477 90.1867 127.519 90.3656 127.643 90.4464L128.975 91.309C129.972 91.9542 130.784 93.5294 130.784 94.8199V96.545C130.784 98.0475 131.692 99.8117 132.851 100.562L139.23 104.692C139.271 104.718 139.316 104.731 139.36 104.731Z" fill="#42E8E0"/>
<path id="Vector_67" d="M141.843 103.127C141.933 103.127 142.02 103.075 142.069 102.981C142.14 102.842 142.098 102.663 141.973 102.582L135.594 98.452C134.598 97.8067 133.786 96.2316 133.786 94.9411V93.2159C133.786 91.7155 132.878 89.9506 131.719 89.199L130.386 88.3365C130.264 88.2564 130.104 88.3028 130.03 88.4434C129.959 88.5827 130.001 88.7617 130.126 88.8424L131.458 89.705C132.455 90.3503 133.266 91.9254 133.266 93.2159V94.9411C133.266 96.4415 134.175 98.2064 135.334 98.958L141.713 103.088C141.754 103.114 141.799 103.127 141.843 103.127Z" fill="#42E8E0"/>
<path id="Vector_68" d="M144.325 101.524C144.414 101.524 144.502 101.472 144.55 101.378C144.622 101.239 144.58 101.06 144.455 100.979L138.076 96.8491C137.08 96.2038 136.268 94.6287 136.268 93.3382V91.613C136.268 90.1112 135.359 88.347 134.2 87.5961L132.868 86.7335C132.745 86.6541 132.584 86.6992 132.512 86.8405C132.44 86.9798 132.482 87.1588 132.607 87.2395L133.94 88.1021C134.936 88.7474 135.748 90.3225 135.748 91.613V93.3382C135.748 94.8393 136.656 96.6042 137.816 97.3551L144.194 101.485C144.236 101.512 144.28 101.524 144.325 101.524Z" fill="#42E8E0"/>
<path id="Vector_69" d="M146.803 99.9207C146.893 99.9207 146.98 99.8689 147.029 99.7747C147.1 99.6354 147.058 99.4564 146.933 99.3757L140.555 95.2458C139.558 94.6005 138.747 93.0254 138.747 91.7349V90.0091C138.747 88.5079 137.839 86.7431 136.679 85.9922L135.347 85.1296C135.224 85.0495 135.064 85.0953 134.991 85.2366C134.92 85.3759 134.962 85.5548 135.086 85.6356L136.418 86.4982C137.415 87.1434 138.227 88.7185 138.227 90.0091V91.7349C138.227 93.236 139.135 95.0002 140.294 95.7518L146.673 99.8817C146.714 99.9086 146.759 99.9207 146.803 99.9207Z" fill="#42E8E0"/>
<path id="Vector_70" d="M149.287 98.318C149.376 98.318 149.464 98.2662 149.512 98.172C149.584 98.0327 149.542 97.8537 149.417 97.773L143.038 93.6431C142.042 92.9978 141.23 91.4227 141.23 90.1322V88.4063C141.23 86.9059 140.322 85.1417 139.163 84.3894L137.83 83.5268C137.707 83.4474 137.547 83.4932 137.474 83.6338C137.403 83.7731 137.445 83.9521 137.57 84.0328L138.902 84.8954C139.899 85.5407 140.71 87.1158 140.71 88.4063V90.1322C140.71 91.6326 141.619 93.3975 142.778 94.149L149.156 98.2789C149.197 98.3052 149.242 98.318 149.287 98.318Z" fill="#42E8E0"/>
<path id="Vector_71" d="M151.766 96.7149C151.855 96.7149 151.943 96.6631 151.991 96.5689C152.063 96.4296 152.021 96.2507 151.896 96.1699L145.517 92.04C144.52 91.3947 143.709 89.8196 143.709 88.5291V86.8039C143.709 85.3035 142.8 83.5386 141.641 82.787L140.309 81.9244C140.186 81.8451 140.026 81.8901 139.953 82.0314C139.881 82.1707 139.923 82.3497 140.048 82.4304L141.381 83.293C142.377 83.9383 143.189 85.5134 143.189 86.8039V88.5291C143.189 90.0295 144.097 91.7944 145.256 92.546L151.635 96.6759C151.677 96.7021 151.721 96.7149 151.766 96.7149Z" fill="#42E8E0"/>
<path id="Vector_72" d="M154.248 95.1105C154.338 95.1105 154.425 95.0587 154.474 94.9645C154.545 94.8252 154.503 94.6463 154.379 94.5655L148 90.4356C147.003 89.7903 146.192 88.2152 146.192 86.9247V85.1988C146.192 83.6977 145.283 81.9329 144.124 81.182L142.791 80.3194C142.668 80.2393 142.508 80.2857 142.436 80.4264C142.364 80.5656 142.406 80.7446 142.531 80.8254L143.864 81.6879C144.86 82.3332 145.671 83.9083 145.671 85.1988V86.9247C145.671 88.4258 146.58 90.19 147.74 90.9416L154.118 95.0715C154.16 95.0977 154.204 95.1105 154.248 95.1105Z" fill="#42E8E0"/>
<path id="Vector_73" d="M156.727 93.5074C156.817 93.5074 156.904 93.4556 156.953 93.3614C157.024 93.2221 156.982 93.0431 156.858 92.9624L150.479 88.8325C149.482 88.1872 148.671 86.6121 148.671 85.3216V83.5964C148.671 82.0946 147.763 80.3304 146.603 79.5795L145.271 78.7169C145.148 78.6375 144.988 78.6826 144.915 78.8239C144.844 78.9632 144.886 79.1422 145.011 79.2229L146.343 80.0855C147.339 80.7308 148.151 82.3059 148.151 83.5964V85.3216C148.151 86.8234 149.059 88.5876 150.219 89.3384L156.597 93.4684C156.638 93.4946 156.683 93.5074 156.727 93.5074Z" fill="#42E8E0"/>
<path id="Vector_74" d="M159.211 91.9045C159.3 91.9045 159.388 91.8527 159.436 91.7585C159.508 91.6192 159.466 91.4402 159.341 91.3595L152.962 87.2296C151.965 86.5843 151.154 85.0092 151.154 83.7187V81.9935C151.154 80.4931 150.246 78.7282 149.086 77.9766L147.754 77.1141C147.631 77.034 147.471 77.0804 147.398 77.221C147.327 77.3603 147.369 77.5393 147.493 77.62L148.826 78.4826C149.823 79.1279 150.634 80.703 150.634 81.9935V83.7187C150.634 85.2191 151.542 86.984 152.701 87.7356L159.081 91.8655C159.121 91.8924 159.166 91.9045 159.211 91.9045Z" fill="#42E8E0"/>
<path id="Vector_75" d="M161.691 90.3017C161.781 90.3017 161.868 90.2499 161.917 90.1557C161.988 90.0164 161.946 89.8374 161.822 89.7567L155.442 85.6268C154.446 84.9815 153.635 83.4064 153.635 82.1159V80.3907C153.635 78.8889 152.726 77.1247 151.567 76.3738L150.234 75.5112C150.112 75.4318 149.952 75.4776 149.879 75.6182C149.807 75.7575 149.849 75.9365 149.974 76.0172L151.307 76.8798C152.303 77.525 153.114 79.1002 153.114 80.3907V82.1159C153.114 83.6163 154.023 85.3812 155.182 86.1327L161.561 90.2627C161.603 90.2889 161.647 90.3017 161.691 90.3017Z" fill="#42E8E0"/>
<path id="Vector_76" d="M164.171 88.6982C164.26 88.6982 164.348 88.6464 164.396 88.5522C164.468 88.4129 164.426 88.234 164.301 88.1532L157.922 84.0233C156.926 83.378 156.115 81.8029 156.115 80.5124V78.7872C156.115 77.2854 155.206 75.5212 154.046 74.7703L152.714 73.9078C152.592 73.8277 152.432 73.8741 152.359 74.0147C152.287 74.154 152.329 74.333 152.454 74.4137L153.786 75.2763C154.783 75.9216 155.594 77.4967 155.594 78.7872V80.5124C155.594 82.0135 156.503 83.7784 157.662 84.5293L164.041 88.6592C164.082 88.6854 164.126 88.6982 164.171 88.6982Z" fill="#42E8E0"/>
<path id="Vector_77" d="M166.653 87.0946C166.743 87.0946 166.83 87.0427 166.879 86.9485C166.95 86.8093 166.908 86.6303 166.783 86.5496L160.405 82.4196C159.408 81.7744 158.597 80.1992 158.597 78.9087V77.1836C158.597 75.6831 157.689 73.9189 156.529 73.1667L155.197 72.3041C155.074 72.2247 154.914 72.2698 154.841 72.4111C154.77 72.5503 154.812 72.7293 154.936 72.8101L156.269 73.6727C157.266 74.3179 158.077 75.893 158.077 77.1836V78.9087C158.077 80.4092 158.985 82.1734 160.144 82.9256L166.523 87.0555C166.564 87.0818 166.609 87.0946 166.653 87.0946Z" fill="#42E8E0"/>
<path id="Vector_78" d="M169.136 85.4918C169.226 85.4918 169.313 85.44 169.362 85.3458C169.433 85.2065 169.391 85.0275 169.266 84.9468L162.887 80.8168C161.891 80.1716 161.079 78.5965 161.079 77.3059V75.5808C161.079 74.0803 160.171 72.3155 159.012 71.5639L157.679 70.7013C157.556 70.6219 157.397 70.667 157.323 70.8083C157.252 70.9476 157.294 71.1265 157.419 71.2073L158.751 72.0699C159.748 72.7151 160.559 74.2903 160.559 75.5808V77.3059C160.559 78.8064 161.468 80.5706 162.627 81.3228L169.006 85.4527C169.047 85.479 169.091 85.4918 169.136 85.4918Z" fill="#42E8E0"/>
<path id="Vector_79" d="M171.614 83.8886C171.703 83.8886 171.791 83.8368 171.839 83.7426C171.911 83.6033 171.869 83.4243 171.744 83.3436L165.365 79.2137C164.369 78.5684 163.557 76.9933 163.557 75.7028V73.9776C163.557 72.4758 162.648 70.7109 161.489 69.9607L160.157 69.0981C160.034 69.0187 159.874 69.0645 159.801 69.2051C159.73 69.3444 159.772 69.5234 159.896 69.6041L161.229 70.4667C162.226 71.1113 163.037 72.6864 163.037 73.9776V75.7028C163.037 77.2039 163.945 78.9687 165.105 79.7196L171.483 83.8496C171.525 83.8765 171.569 83.8886 171.614 83.8886Z" fill="#42E8E0"/>
<path id="Vector_80" d="M174.095 82.2846C174.184 82.2846 174.272 82.2328 174.32 82.1386C174.392 81.9993 174.35 81.8203 174.225 81.7396L167.846 77.6097C166.85 76.9644 166.038 75.3893 166.038 74.0988V72.3736C166.038 70.8718 165.13 69.1076 163.97 68.3567L162.638 67.4941C162.515 67.4147 162.356 67.4605 162.282 67.6011C162.211 67.7404 162.253 67.9194 162.378 68.0001L163.71 68.8627C164.707 69.5073 165.518 71.0824 165.518 72.3736V74.0988C165.518 75.5999 166.427 77.3648 167.586 78.1156L173.964 82.2456C174.006 82.2725 174.05 82.2846 174.095 82.2846Z" fill="#42E8E0"/>
<path id="Vector_81" d="M176.577 80.6821C176.666 80.6821 176.754 80.6303 176.803 80.5361C176.874 80.3968 176.832 80.2178 176.707 80.1371L170.328 76.0072C169.331 75.3619 168.52 73.7868 168.52 72.4963V70.7711C168.52 69.27 167.612 67.5051 166.453 66.7542L165.12 65.8916C164.997 65.8116 164.837 65.858 164.764 65.9986C164.693 66.1379 164.735 66.3169 164.86 66.3976L166.192 67.2602C167.189 67.9055 168 69.4806 168 70.7711V72.4963C168 73.9967 168.908 75.7616 170.068 76.5132L176.447 80.6431C176.488 80.6693 176.533 80.6821 176.577 80.6821Z" fill="#42E8E0"/>
<path id="Vector_82" d="M179.059 79.0787C179.148 79.0787 179.236 79.0269 179.285 78.9327C179.356 78.7934 179.314 78.6144 179.189 78.5337L172.81 74.4038C171.813 73.7585 171.002 72.1834 171.002 70.8929V69.1677C171.002 67.6659 170.094 65.9017 168.935 65.1508L167.602 64.2882C167.478 64.2088 167.319 64.2539 167.246 64.3952C167.175 64.5345 167.217 64.7135 167.342 64.7942L168.674 65.6568C169.671 66.302 170.482 67.8772 170.482 69.1677V70.8929C170.482 72.3933 171.39 74.1582 172.55 74.9097L178.929 79.0397C178.97 79.0659 179.014 79.0787 179.059 79.0787Z" fill="#42E8E0"/>
</g>
<g id="Group_17">
<path id="Vector_83" d="M107.131 109.541C107.176 109.541 107.22 109.529 107.261 109.502L113.64 105.372C114.8 104.622 115.707 102.857 115.707 101.355V99.6304C115.707 98.3399 116.519 96.7641 117.515 96.1188L118.848 95.257C118.973 95.1762 119.015 94.9979 118.943 94.8579C118.871 94.7173 118.71 94.6716 118.587 94.751L117.255 95.6129C116.095 96.3644 115.187 98.1287 115.187 99.6304V101.355C115.187 102.646 114.376 104.221 113.379 104.866L107.001 108.996C106.876 109.076 106.834 109.255 106.906 109.395C106.954 109.489 107.041 109.541 107.131 109.541Z" fill="#42E8E0"/>
<path id="Vector_84" d="M104.65 107.937C104.694 107.937 104.739 107.925 104.78 107.898L111.159 103.768C112.319 103.018 113.227 101.253 113.227 99.7515V98.0257C113.227 96.7352 114.038 95.1601 115.035 94.5148L116.367 93.6529C116.492 93.5722 116.534 93.3938 116.463 93.2539C116.391 93.1133 116.231 93.0682 116.107 93.1469L114.774 94.0088C113.615 94.7604 112.707 96.5246 112.707 98.0257V99.7515C112.707 101.042 111.896 102.617 110.899 103.262L104.52 107.392C104.395 107.473 104.353 107.652 104.424 107.791C104.473 107.886 104.561 107.937 104.65 107.937Z" fill="#42E8E0"/>
<path id="Vector_85" d="M102.171 106.335C102.215 106.335 102.259 106.322 102.301 106.296L108.679 102.166C109.84 101.415 110.748 99.6513 110.748 98.1488V96.4236C110.748 95.1331 111.559 93.558 112.555 92.9127L113.888 92.0501C114.013 91.9694 114.055 91.7904 113.983 91.6512C113.911 91.5105 113.751 91.4648 113.628 91.5442L112.295 92.4067C111.135 93.1576 110.227 94.9218 110.227 96.4236V98.1488C110.227 99.44 109.416 101.015 108.419 101.66L102.04 105.79C101.916 105.87 101.874 106.049 101.945 106.189C101.994 106.282 102.081 106.335 102.171 106.335Z" fill="#42E8E0"/>
<path id="Vector_86" d="M99.6873 104.732C99.7317 104.732 99.7761 104.719 99.8175 104.693L106.196 100.563C107.356 99.8124 108.264 98.0482 108.264 96.5457V94.8205C108.264 93.53 109.075 91.9549 110.072 91.3097L111.404 90.4471C111.529 90.3663 111.571 90.1874 111.499 90.0481C111.427 89.9074 111.267 89.8624 111.144 89.9411L109.812 90.8037C108.651 91.5546 107.743 93.3188 107.743 94.8205V96.5457C107.743 97.8369 106.932 99.412 105.936 100.057L99.5571 104.187C99.4323 104.267 99.3903 104.446 99.4617 104.586C99.5109 104.68 99.5979 104.732 99.6873 104.732Z" fill="#42E8E0"/>
<path id="Vector_87" d="M97.2086 103.128C97.253 103.128 97.2974 103.115 97.3388 103.089L103.718 98.9586C104.878 98.2071 105.786 96.4429 105.786 94.9418V93.2166C105.786 91.9261 106.597 90.351 107.593 89.7057L108.926 88.8431C109.051 88.7624 109.093 88.5834 109.021 88.4441C108.948 88.3035 108.789 88.2577 108.666 88.3371L107.333 89.1997C106.173 89.9513 105.265 91.7155 105.265 93.2166V94.9418C105.265 96.2323 104.454 97.8074 103.458 98.4527L97.0784 102.583C96.9536 102.663 96.9116 102.842 96.983 102.982C97.0316 103.076 97.1186 103.128 97.2086 103.128Z" fill="#42E8E0"/>
<path id="Vector_88" d="M94.7257 101.524C94.7701 101.524 94.8145 101.512 94.8559 101.485L101.235 97.3553C102.395 96.6038 103.303 94.8396 103.303 93.3385V91.6133C103.303 90.3228 104.114 88.7476 105.111 88.1024L106.443 87.2398C106.568 87.1591 106.61 86.9801 106.539 86.8408C106.466 86.7002 106.306 86.6551 106.183 86.7338L104.85 87.5964C103.69 88.348 102.783 90.1122 102.783 91.6133V93.3385C102.783 94.629 101.971 96.2041 100.975 96.8494L94.5955 100.979C94.4707 101.06 94.4287 101.239 94.5001 101.378C94.5487 101.472 94.6363 101.524 94.7257 101.524Z" fill="#42E8E0"/>
<path id="Vector_89" d="M92.2433 99.9209C92.2877 99.9209 92.3321 99.9088 92.3735 99.8819L98.7521 95.752C99.9125 95.0011 100.82 93.2369 100.82 91.7351V90.0092C100.82 88.7187 101.631 87.1436 102.628 86.4984L103.961 85.6358C104.085 85.555 104.127 85.376 104.056 85.2368C103.983 85.0955 103.824 85.0504 103.7 85.1298L102.368 85.9924C101.208 86.7433 100.3 88.5075 100.3 90.0092V91.7351C100.3 93.0256 99.4889 94.6007 98.4917 95.246L92.1131 99.3759C91.9883 99.4566 91.9463 99.6356 92.0177 99.7749C92.0663 99.8691 92.1539 99.9209 92.2433 99.9209Z" fill="#42E8E0"/>
<path id="Vector_90" d="M89.7654 98.3187C89.8098 98.3187 89.8548 98.3059 89.8956 98.2796L96.2742 94.1497C97.434 93.3988 98.3418 91.6346 98.3418 90.1328V88.407C98.3418 87.1165 99.153 85.5413 100.15 84.8961L101.482 84.0335C101.607 83.9528 101.649 83.7738 101.578 83.6345C101.505 83.4939 101.345 83.4488 101.222 83.5275L99.8898 84.3901C98.7294 85.141 97.8216 86.9052 97.8216 88.407V90.1328C97.8216 91.4234 97.0104 92.9985 96.0138 93.6437L89.6352 97.7736C89.5104 97.8544 89.4684 98.0334 89.5398 98.1726C89.589 98.2662 89.676 98.3187 89.7654 98.3187Z" fill="#42E8E0"/>
<path id="Vector_91" d="M87.2833 96.715C87.3277 96.715 87.3721 96.7029 87.4135 96.676L93.7927 92.5461C94.9525 91.7945 95.8603 90.0303 95.8603 88.5292V86.804C95.8603 85.5135 96.6715 83.9384 97.6681 83.2931L99.0007 82.4305C99.1255 82.3498 99.1675 82.1708 99.0961 82.0315C99.0229 81.8909 98.8633 81.8451 98.7403 81.9245L97.4077 82.7871C96.2479 83.5387 95.3401 85.3029 95.3401 86.804V88.5292C95.3401 89.8197 94.5289 91.3948 93.5323 92.0401L87.1531 96.17C87.0283 96.2507 86.9863 96.4297 87.0577 96.569C87.1063 96.6632 87.1933 96.715 87.2833 96.715Z" fill="#42E8E0"/>
<path id="Vector_92" d="M84.8034 95.1112C84.8478 95.1112 84.8922 95.0984 84.9336 95.0722L91.3122 90.9422C92.4725 90.1913 93.3804 88.4271 93.3804 86.9254V85.1995C93.3804 83.909 94.1916 82.3339 95.1881 81.6886L96.5207 80.826C96.6455 80.7453 96.6875 80.5663 96.6161 80.427C96.5435 80.2864 96.3839 80.2407 96.2603 80.3201L94.9277 81.1826C93.7679 81.9335 92.8601 83.6977 92.8601 85.1995V86.9254C92.8601 88.2159 92.0483 89.791 91.0517 90.4363L84.6732 94.5662C84.5484 94.6469 84.5064 94.8259 84.5778 94.9652C84.6264 95.0594 84.7134 95.1112 84.8034 95.1112Z" fill="#42E8E0"/>
<path id="Vector_93" d="M82.3211 93.5077C82.3655 93.5077 82.4098 93.4949 82.4512 93.4687L88.8298 89.3387C89.9896 88.5878 90.8974 86.8236 90.8974 85.3219V83.5967C90.8974 82.3062 91.7092 80.731 92.7058 80.0858L94.0378 79.2232C94.1626 79.1425 94.2046 78.9635 94.1332 78.8242C94.0606 78.6836 93.901 78.6385 93.7774 78.7172L92.4454 79.5798C91.285 80.3307 90.3772 82.0949 90.3772 83.5967V85.3219C90.3772 86.6124 89.5666 88.1875 88.5694 88.8328L82.1909 92.9627C82.0661 93.0434 82.0241 93.2224 82.0955 93.3617C82.1441 93.4559 82.2317 93.5077 82.3211 93.5077Z" fill="#42E8E0"/>
<path id="Vector_94" d="M79.838 91.9047C79.8824 91.9047 79.9268 91.8919 79.9682 91.8657L86.3474 87.7358C87.5072 86.9842 88.415 85.22 88.415 83.7189V81.9937C88.415 80.7032 89.2262 79.1281 90.2228 78.4828L91.5554 77.6202C91.6802 77.5395 91.7222 77.3605 91.6508 77.2212C91.5782 77.0806 91.4186 77.0348 91.295 77.1142L89.9624 77.9768C88.8026 78.7284 87.8948 80.4926 87.8948 81.9937V83.7189C87.8948 85.0094 87.0836 86.5845 86.087 87.2298L79.7078 91.3597C79.583 91.4404 79.541 91.6194 79.6124 91.7587C79.6616 91.8529 79.7486 91.9047 79.838 91.9047Z" fill="#42E8E0"/>
<path id="Vector_95" d="M77.359 90.3024C77.4034 90.3024 77.4478 90.2896 77.4892 90.2633L83.8684 86.1334C85.0282 85.3819 85.936 83.6177 85.936 82.1165V80.3914C85.936 79.1008 86.7466 77.5257 87.7438 76.8805L89.0764 76.0179C89.2012 75.9371 89.2432 75.7582 89.1718 75.6189C89.0986 75.4782 88.939 75.4332 88.816 75.5119L87.4834 76.3745C86.3236 77.126 85.4158 78.8902 85.4158 80.3914V82.1165C85.4158 83.4071 84.6046 84.9822 83.608 85.6274L77.2288 89.7574C77.104 89.8381 77.062 90.0171 77.1334 90.1563C77.182 90.2499 77.269 90.3024 77.359 90.3024Z" fill="#42E8E0"/>
<path id="Vector_96" d="M74.8761 88.6982C74.9205 88.6982 74.9649 88.686 75.0063 88.6591L81.3849 84.5292C82.5453 83.7783 83.4531 82.0141 83.4531 80.5123V78.7872C83.4531 77.4967 84.2643 75.9215 85.2609 75.2763L86.5935 74.4137C86.7183 74.3329 86.7603 74.154 86.6889 74.0147C86.6163 73.8741 86.4567 73.8283 86.3331 73.9077L85.0005 74.7703C83.8407 75.5212 82.9329 77.2854 82.9329 78.7872V80.5123C82.9329 81.8028 82.1211 83.378 81.1245 84.0232L74.7459 88.1532C74.6211 88.2339 74.5791 88.4129 74.6505 88.5521C74.6991 88.6457 74.7867 88.6982 74.8761 88.6982Z" fill="#42E8E0"/>
<path id="Vector_97" d="M72.3972 87.0953C72.4416 87.0953 72.486 87.0832 72.5274 87.0563L78.906 82.9264C80.0658 82.1755 80.9736 80.4113 80.9736 78.9095V77.1843C80.9736 75.8938 81.7854 74.3187 82.782 73.6734L84.114 72.8108C84.2388 72.7301 84.2808 72.5511 84.2094 72.4118C84.1368 72.2712 83.9772 72.2261 83.8536 72.3049L82.5216 73.1674C81.3612 73.9183 80.4534 75.6825 80.4534 77.1843V78.9095C80.4534 80.2 79.6422 81.7752 78.6456 82.4204L72.267 86.5503C72.1422 86.6311 72.1002 86.81 72.1716 86.9493C72.2202 87.0435 72.3078 87.0953 72.3972 87.0953Z" fill="#42E8E0"/>
<path id="Vector_98" d="M69.9157 85.4918C69.9601 85.4918 70.0045 85.479 70.0459 85.4527L76.425 81.3228C77.5848 80.5713 78.4926 78.8071 78.4926 77.3059V75.5808C78.4926 74.2903 79.3038 72.7151 80.3004 72.0699L81.633 71.2073C81.7578 71.1265 81.7998 70.9476 81.7284 70.8083C81.6552 70.667 81.4962 70.6219 81.3726 70.7013L80.0401 71.5639C78.8803 72.3155 77.9724 74.0797 77.9724 75.5808V77.3059C77.9724 78.5965 77.1612 80.1716 76.1646 80.8168L69.7855 84.9468C69.6607 85.0275 69.6187 85.2065 69.6901 85.3458C69.7387 85.44 69.8263 85.4918 69.9157 85.4918Z" fill="#42E8E0"/>
<path id="Vector_99" d="M67.4367 83.889C67.4811 83.889 67.5255 83.8769 67.5669 83.85L73.9455 79.7201C75.1059 78.9692 76.0136 77.205 76.0136 75.7032V73.978C76.0136 72.6868 76.8248 71.1117 77.8214 70.4671L79.154 69.6045C79.2788 69.5238 79.3208 69.3448 79.2494 69.2055C79.1762 69.0649 79.0166 69.0198 78.8936 69.0986L77.561 69.9611C76.4012 70.7114 75.4934 72.4756 75.4934 73.978V75.7032C75.4934 76.9937 74.6816 78.5688 73.685 79.2141L67.3065 83.344C67.1817 83.4248 67.1397 83.6037 67.2111 83.743C67.2597 83.8372 67.3467 83.889 67.4367 83.889Z" fill="#42E8E0"/>
<path id="Vector_100" d="M64.9529 82.2853C64.9973 82.2853 65.0417 82.2725 65.0831 82.2462L71.4617 78.1163C72.6215 77.3654 73.5293 75.6012 73.5293 74.0994V72.3743C73.5293 71.0831 74.3405 69.508 75.3377 68.8634L76.6697 68.0008C76.7945 67.92 76.8365 67.7411 76.7651 67.6018C76.6925 67.4612 76.5323 67.4161 76.4093 67.4948L75.0773 68.3574C73.9169 69.1076 73.0091 70.8718 73.0091 72.3743V74.0994C73.0091 75.39 72.1979 76.9651 71.2013 77.6104L64.8227 81.7403C64.6979 81.821 64.6559 82 64.7273 82.1393C64.7759 82.2335 64.8629 82.2853 64.9529 82.2853Z" fill="#42E8E0"/>
<path id="Vector_101" d="M62.4714 80.6823C62.5158 80.6823 62.5602 80.6695 62.6016 80.6433L68.9802 76.5133C70.14 75.7618 71.0478 73.9976 71.0478 72.4965V70.7713C71.0478 69.4808 71.859 67.9057 72.8556 67.2604L74.1882 66.3978C74.313 66.3171 74.355 66.1381 74.2836 65.9988C74.211 65.8582 74.0514 65.8124 73.9278 65.8918L72.5952 66.7544C71.4354 67.5053 70.5276 69.2695 70.5276 70.7713V72.4965C70.5276 73.787 69.717 75.3621 68.7198 76.0074L62.3412 80.1373C62.2164 80.218 62.1744 80.397 62.2458 80.5363C62.2944 80.6298 62.382 80.6823 62.4714 80.6823Z" fill="#42E8E0"/>
<path id="Vector_102" d="M59.9918 79.0792C60.0362 79.0792 60.0806 79.0664 60.122 79.0402L66.5012 74.9103C67.661 74.1587 68.5688 72.3945 68.5688 70.8934V69.1682C68.5688 67.8777 69.38 66.3026 70.3766 65.6573L71.7092 64.7947C71.834 64.714 71.876 64.535 71.8046 64.3957C71.7314 64.2551 71.5724 64.21 71.4488 64.2887L70.1162 65.1513C68.9564 65.9022 68.0486 67.6664 68.0486 69.1682V70.8934C68.0486 72.1839 67.2374 73.759 66.2408 74.4043L59.8616 78.5342C59.7368 78.615 59.6948 78.7939 59.7662 78.9332C59.8148 79.0274 59.9024 79.0792 59.9918 79.0792Z" fill="#42E8E0"/>
</g>
</g>
</g>
<g id="Group 625226">
<g id="Group_18">
<path id="Vector_103" d="M99.8986 20.9109C98.5045 20.9109 97.3892 22.0362 97.3892 23.4104V35.5095C97.3892 36.9136 98.5144 38.0388 99.8986 38.0388C101.273 38.0388 102.388 36.9136 102.388 35.5095V23.4104C102.388 22.0362 101.273 20.9109 99.8986 20.9109Z" fill="url(#paint10_linear_1151_2716)"/>
<path id="Vector_104" d="M139.151 20.9109C137.757 20.9109 136.632 22.0362 136.632 23.4104V35.5095C136.632 36.9136 137.757 38.0388 139.151 38.0388C140.545 38.0388 141.671 36.9136 141.671 35.5095V23.4104C141.671 22.0362 140.535 20.9109 139.151 20.9109Z" fill="url(#paint11_linear_1151_2716)"/>
<path id="Vector_105" d="M104.641 20.9109C104.641 20.9507 104.641 20.9806 104.641 21.0204V43.3465C104.641 45.4078 106.314 47.1007 108.355 47.1007H112.398V53.454C112.398 54.8581 113.524 55.9634 114.888 55.9634C116.272 55.9634 117.407 54.8581 117.407 53.454V47.1007H121.689V53.454C121.689 54.8581 122.795 55.9634 124.179 55.9634C125.563 55.9634 126.688 54.8581 126.688 53.454V47.1007H130.692C132.773 47.1007 134.446 45.4078 134.446 43.3465V21.0204C134.446 20.9806 134.446 20.9507 134.446 20.9109H104.641Z" fill="url(#paint12_linear_1151_2716)"/>
<path id="Vector_106" d="M126.83 5.70147L129.499 0.722416L128.952 0.403761L126.263 5.39278C124.231 4.37705 121.941 3.79947 119.531 3.79947C117.241 3.79947 115.06 4.31729 113.108 5.23344L110.509 0.393799L109.961 0.722416L112.56 5.53219C107.93 8.03167 104.773 12.8813 104.733 18.5076H134.359C134.339 13.0207 131.312 8.23083 126.83 5.70147ZM111.913 12.8016C111.136 12.8016 110.509 12.1643 110.509 11.3676C110.509 10.6009 111.146 9.95358 111.913 9.95358C112.69 9.95358 113.317 10.5909 113.317 11.3676C113.317 12.1643 112.69 12.8016 111.913 12.8016ZM126.93 12.8016C126.163 12.8016 125.516 12.1643 125.516 11.3676C125.516 10.6009 126.153 9.95358 126.93 9.95358C127.697 9.95358 128.354 10.5909 128.354 11.3676C128.354 12.1643 127.697 12.8016 126.93 12.8016Z" fill="url(#paint13_linear_1151_2716)"/>
</g>
</g>
</g>
</g>
<defs>
<radialGradient id="paint0_radial_1151_2716" cx="0" cy="0" r="1" gradientUnits="userSpaceOnUse" gradientTransform="translate(120 77.2699) rotate(147.078) scale(100.281 91.4991)">
<stop stop-color="#42E8E0"/>
<stop offset="0.1539" stop-color="#33AEB9"/>
<stop offset="0.3113" stop-color="#267A95"/>
<stop offset="0.4663" stop-color="#1B5078"/>
<stop offset="0.6156" stop-color="#132E61"/>
<stop offset="0.7574" stop-color="#0D1651"/>
<stop offset="0.8889" stop-color="#090847"/>
<stop offset="1" stop-color="#080344"/>
</radialGradient>
<linearGradient id="paint1_linear_1151_2716" x1="278.034" y1="203.57" x2="96.0606" y2="84.302" gradientUnits="userSpaceOnUse">
<stop stop-color="#5761D7"/>
<stop offset="0.1779" stop-color="#5C66D9"/>
<stop offset="0.3876" stop-color="#6A73DF"/>
<stop offset="0.6134" stop-color="#8289E8"/>
<stop offset="0.849" stop-color="#A3A7F5"/>
<stop offset="1" stop-color="#BCBEFF"/>
</linearGradient>
<linearGradient id="paint2_linear_1151_2716" x1="-70.4264" y1="70.5384" x2="176.983" y2="70.5384" gradientUnits="userSpaceOnUse">
<stop stop-color="#C0BFF6"/>
<stop offset="0.2938" stop-color="#C5C4F7"/>
<stop offset="0.6399" stop-color="#D3D2F9"/>
<stop offset="1" stop-color="#E9E9FD"/>
</linearGradient>
<linearGradient id="paint3_linear_1151_2716" x1="46.3584" y1="82.8364" x2="171.981" y2="82.8364" gradientUnits="userSpaceOnUse">
<stop stop-color="#5761D7"/>
<stop offset="0.1645" stop-color="#5E67DA"/>
<stop offset="0.4051" stop-color="#727AE2"/>
<stop offset="0.6924" stop-color="#9297EE"/>
<stop offset="1" stop-color="#BCBEFF"/>
</linearGradient>
<linearGradient id="paint4_linear_1151_2716" x1="81.9109" y1="63.8008" x2="157.313" y2="63.8008" gradientUnits="userSpaceOnUse">
<stop stop-color="#42E8E0"/>
<stop offset="0.1507" stop-color="#43E3E0"/>
<stop offset="0.3285" stop-color="#45D5DF"/>
<stop offset="0.5199" stop-color="#49BDDD"/>
<stop offset="0.7209" stop-color="#4E9CDB"/>
<stop offset="0.9274" stop-color="#5472D8"/>
<stop offset="1" stop-color="#5761D7"/>
</linearGradient>
<linearGradient id="paint5_linear_1151_2716" x1="119.611" y1="48.5181" x2="157.313" y2="48.5181" gradientUnits="userSpaceOnUse">
<stop stop-color="#42E8E0"/>
<stop offset="0.1507" stop-color="#43E3E0"/>
<stop offset="0.3285" stop-color="#45D5DF"/>
<stop offset="0.5199" stop-color="#49BDDD"/>
<stop offset="0.7209" stop-color="#4E9CDB"/>
<stop offset="0.9274" stop-color="#5472D8"/>
<stop offset="1" stop-color="#5761D7"/>
</linearGradient>
<linearGradient id="paint6_linear_1151_2716" x1="81.911" y1="48.5177" x2="119.613" y2="48.5177" gradientUnits="userSpaceOnUse">
<stop stop-color="#42E8E0"/>
<stop offset="0.1507" stop-color="#43E3E0"/>
<stop offset="0.3285" stop-color="#45D5DF"/>
<stop offset="0.5199" stop-color="#49BDDD"/>
<stop offset="0.7209" stop-color="#4E9CDB"/>
<stop offset="0.9274" stop-color="#5472D8"/>
<stop offset="1" stop-color="#5761D7"/>
</linearGradient>
<linearGradient id="paint7_linear_1151_2716" x1="81.9109" y1="57.6451" x2="157.313" y2="57.6451" gradientUnits="userSpaceOnUse">
<stop stop-color="#42E8E0"/>
<stop offset="0.1507" stop-color="#43E3E0"/>
<stop offset="0.3285" stop-color="#45D5DF"/>
<stop offset="0.5199" stop-color="#49BDDD"/>
<stop offset="0.7209" stop-color="#4E9CDB"/>
<stop offset="0.9274" stop-color="#5472D8"/>
<stop offset="1" stop-color="#5761D7"/>
</linearGradient>
<linearGradient id="paint8_linear_1151_2716" x1="119.612" y1="72.9279" x2="157.313" y2="72.9279" gradientUnits="userSpaceOnUse">
<stop stop-color="#42E8E0"/>
<stop offset="0.1507" stop-color="#43E3E0"/>
<stop offset="0.3285" stop-color="#45D5DF"/>
<stop offset="0.5199" stop-color="#49BDDD"/>
<stop offset="0.7209" stop-color="#4E9CDB"/>
<stop offset="0.9274" stop-color="#5472D8"/>
<stop offset="1" stop-color="#5761D7"/>
</linearGradient>
<linearGradient id="paint9_linear_1151_2716" x1="81.911" y1="72.9272" x2="119.613" y2="72.9272" gradientUnits="userSpaceOnUse">
<stop stop-color="#42E8E0"/>
<stop offset="0.1507" stop-color="#43E3E0"/>
<stop offset="0.3285" stop-color="#45D5DF"/>
<stop offset="0.5199" stop-color="#49BDDD"/>
<stop offset="0.7209" stop-color="#4E9CDB"/>
<stop offset="0.9274" stop-color="#5472D8"/>
<stop offset="1" stop-color="#5761D7"/>
</linearGradient>
<linearGradient id="paint10_linear_1151_2716" x1="99.8886" y1="20.9109" x2="99.8886" y2="38.0388" gradientUnits="userSpaceOnUse">
<stop stop-color="#22769B"/>
<stop offset="1" stop-color="#587FD7"/>
</linearGradient>
<linearGradient id="paint11_linear_1151_2716" x1="139.151" y1="20.9109" x2="139.151" y2="38.0388" gradientUnits="userSpaceOnUse">
<stop stop-color="#22769B"/>
<stop offset="1" stop-color="#587FD7"/>
</linearGradient>
<linearGradient id="paint12_linear_1151_2716" x1="119.543" y1="20.9109" x2="119.543" y2="55.9634" gradientUnits="userSpaceOnUse">
<stop stop-color="#22769B"/>
<stop offset="1" stop-color="#587FD7"/>
</linearGradient>
<linearGradient id="paint13_linear_1151_2716" x1="119.546" y1="0.393799" x2="119.546" y2="18.5076" gradientUnits="userSpaceOnUse">
<stop stop-color="#22769B"/>
<stop offset="1" stop-color="#587FD7"/>
</linearGradient>
</defs>
</svg>
